%TF.GenerationSoftware,KiCad,Pcbnew,8.0.4*%
%TF.CreationDate,2024-10-28T16:26:41-05:00*%
%TF.ProjectId,String-Drum-Synthesizer,53747269-6e67-42d4-9472-756d2d53796e,rev?*%
%TF.SameCoordinates,Original*%
%TF.FileFunction,Paste,Top*%
%TF.FilePolarity,Positive*%
%FSLAX46Y46*%
G04 Gerber Fmt 4.6, Leading zero omitted, Abs format (unit mm)*
G04 Created by KiCad (PCBNEW 8.0.4) date 2024-10-28 16:26:41*
%MOMM*%
%LPD*%
G01*
G04 APERTURE LIST*
G04 Aperture macros list*
%AMRoundRect*
0 Rectangle with rounded corners*
0 $1 Rounding radius*
0 $2 $3 $4 $5 $6 $7 $8 $9 X,Y pos of 4 corners*
0 Add a 4 corners polygon primitive as box body*
4,1,4,$2,$3,$4,$5,$6,$7,$8,$9,$2,$3,0*
0 Add four circle primitives for the rounded corners*
1,1,$1+$1,$2,$3*
1,1,$1+$1,$4,$5*
1,1,$1+$1,$6,$7*
1,1,$1+$1,$8,$9*
0 Add four rect primitives between the rounded corners*
20,1,$1+$1,$2,$3,$4,$5,0*
20,1,$1+$1,$4,$5,$6,$7,0*
20,1,$1+$1,$6,$7,$8,$9,0*
20,1,$1+$1,$8,$9,$2,$3,0*%
G04 Aperture macros list end*
%ADD10R,0.300000X2.600000*%
%ADD11RoundRect,0.075000X0.700000X0.075000X-0.700000X0.075000X-0.700000X-0.075000X0.700000X-0.075000X0*%
%ADD12RoundRect,0.075000X0.075000X0.700000X-0.075000X0.700000X-0.075000X-0.700000X0.075000X-0.700000X0*%
%ADD13RoundRect,0.250000X-0.255000X0.255000X-0.255000X-0.255000X0.255000X-0.255000X0.255000X0.255000X0*%
%ADD14RoundRect,0.075000X-0.075000X0.662500X-0.075000X-0.662500X0.075000X-0.662500X0.075000X0.662500X0*%
%ADD15RoundRect,0.075000X-0.662500X0.075000X-0.662500X-0.075000X0.662500X-0.075000X0.662500X0.075000X0*%
%ADD16RoundRect,0.375000X-0.625000X-0.375000X0.625000X-0.375000X0.625000X0.375000X-0.625000X0.375000X0*%
%ADD17RoundRect,0.500000X-0.500000X-1.400000X0.500000X-1.400000X0.500000X1.400000X-0.500000X1.400000X0*%
%ADD18RoundRect,0.375000X0.625000X0.375000X-0.625000X0.375000X-0.625000X-0.375000X0.625000X-0.375000X0*%
%ADD19RoundRect,0.500000X0.500000X1.400000X-0.500000X1.400000X-0.500000X-1.400000X0.500000X-1.400000X0*%
G04 APERTURE END LIST*
D10*
%TO.C,J1*%
X187833000Y-122555000D03*
X187333000Y-122555000D03*
X186833000Y-122555000D03*
X186333000Y-122555000D03*
X185833000Y-122555000D03*
X185333000Y-122555000D03*
X184833000Y-122555000D03*
X184333000Y-122555000D03*
X183833000Y-122555000D03*
X183333000Y-122555000D03*
X182833000Y-122555000D03*
X182333000Y-122555000D03*
X181833000Y-122555000D03*
X181333000Y-122555000D03*
X180833000Y-122555000D03*
X180333000Y-122555000D03*
X179833000Y-122555000D03*
X179333000Y-122555000D03*
X178833000Y-122555000D03*
%TD*%
D11*
%TO.C,U6*%
X188682000Y-55312000D03*
X188682000Y-54812000D03*
X188682000Y-54312000D03*
X188682000Y-53812000D03*
X188682000Y-53312000D03*
X188682000Y-52812000D03*
X188682000Y-52312000D03*
X188682000Y-51812000D03*
X188682000Y-51312000D03*
X188682000Y-50812000D03*
X188682000Y-50312000D03*
X188682000Y-49812000D03*
X188682000Y-49312000D03*
X188682000Y-48812000D03*
X188682000Y-48312000D03*
X188682000Y-47812000D03*
D12*
X186757000Y-45887000D03*
X186257000Y-45887000D03*
X185757000Y-45887000D03*
X185257000Y-45887000D03*
X184757000Y-45887000D03*
X184257000Y-45887000D03*
X183757000Y-45887000D03*
X183257000Y-45887000D03*
X182757000Y-45887000D03*
X182257000Y-45887000D03*
X181757000Y-45887000D03*
X181257000Y-45887000D03*
X180757000Y-45887000D03*
X180257000Y-45887000D03*
X179757000Y-45887000D03*
X179257000Y-45887000D03*
D11*
X177332000Y-47812000D03*
X177332000Y-48312000D03*
X177332000Y-48812000D03*
X177332000Y-49312000D03*
X177332000Y-49812000D03*
X177332000Y-50312000D03*
X177332000Y-50812000D03*
X177332000Y-51312000D03*
X177332000Y-51812000D03*
X177332000Y-52312000D03*
X177332000Y-52812000D03*
X177332000Y-53312000D03*
X177332000Y-53812000D03*
X177332000Y-54312000D03*
X177332000Y-54812000D03*
X177332000Y-55312000D03*
D12*
X179257000Y-57237000D03*
X179757000Y-57237000D03*
X180257000Y-57237000D03*
X180757000Y-57237000D03*
X181257000Y-57237000D03*
X181757000Y-57237000D03*
X182257000Y-57237000D03*
X182757000Y-57237000D03*
X183257000Y-57237000D03*
X183757000Y-57237000D03*
X184257000Y-57237000D03*
X184757000Y-57237000D03*
X185257000Y-57237000D03*
X185757000Y-57237000D03*
X186257000Y-57237000D03*
X186757000Y-57237000D03*
%TD*%
D13*
%TO.C,U2*%
X185111500Y-69503000D03*
X183861500Y-69503000D03*
X182611500Y-69503000D03*
X181361500Y-69503000D03*
X185111500Y-70753000D03*
X183861500Y-70753000D03*
X182611500Y-70753000D03*
X181361500Y-70753000D03*
X185111500Y-72003000D03*
X183861500Y-72003000D03*
X182611500Y-72003000D03*
X181361500Y-72003000D03*
X185111500Y-73253000D03*
X183861500Y-73253000D03*
X182611500Y-73253000D03*
X181361500Y-73253000D03*
D14*
X189236500Y-63715500D03*
X188736500Y-63715500D03*
X188236500Y-63715500D03*
X187736500Y-63715500D03*
X187236500Y-63715500D03*
X186736500Y-63715500D03*
X186236500Y-63715500D03*
X185736500Y-63715500D03*
X185236500Y-63715500D03*
X184736500Y-63715500D03*
X184236500Y-63715500D03*
X183736500Y-63715500D03*
X183236500Y-63715500D03*
X182736500Y-63715500D03*
X182236500Y-63715500D03*
X181736500Y-63715500D03*
X181236500Y-63715500D03*
X180736500Y-63715500D03*
X180236500Y-63715500D03*
X179736500Y-63715500D03*
X179236500Y-63715500D03*
X178736500Y-63715500D03*
X178236500Y-63715500D03*
X177736500Y-63715500D03*
X177236500Y-63715500D03*
D15*
X175574000Y-65378000D03*
X175574000Y-65878000D03*
X175574000Y-66378000D03*
X175574000Y-66878000D03*
X175574000Y-67378000D03*
X175574000Y-67878000D03*
X175574000Y-68378000D03*
X175574000Y-68878000D03*
X175574000Y-69378000D03*
X175574000Y-69878000D03*
X175574000Y-70378000D03*
X175574000Y-70878000D03*
X175574000Y-71378000D03*
X175574000Y-71878000D03*
X175574000Y-72378000D03*
X175574000Y-72878000D03*
X175574000Y-73378000D03*
X175574000Y-73878000D03*
X175574000Y-74378000D03*
X175574000Y-74878000D03*
X175574000Y-75378000D03*
X175574000Y-75878000D03*
X175574000Y-76378000D03*
X175574000Y-76878000D03*
X175574000Y-77378000D03*
D14*
X177236500Y-79040500D03*
X177736500Y-79040500D03*
X178236500Y-79040500D03*
X178736500Y-79040500D03*
X179236500Y-79040500D03*
X179736500Y-79040500D03*
X180236500Y-79040500D03*
X180736500Y-79040500D03*
X181236500Y-79040500D03*
X181736500Y-79040500D03*
X182236500Y-79040500D03*
X182736500Y-79040500D03*
X183236500Y-79040500D03*
X183736500Y-79040500D03*
X184236500Y-79040500D03*
X184736500Y-79040500D03*
X185236500Y-79040500D03*
X185736500Y-79040500D03*
X186236500Y-79040500D03*
X186736500Y-79040500D03*
X187236500Y-79040500D03*
X187736500Y-79040500D03*
X188236500Y-79040500D03*
X188736500Y-79040500D03*
X189236500Y-79040500D03*
D15*
X190899000Y-77378000D03*
X190899000Y-76878000D03*
X190899000Y-76378000D03*
X190899000Y-75878000D03*
X190899000Y-75378000D03*
X190899000Y-74878000D03*
X190899000Y-74378000D03*
X190899000Y-73878000D03*
X190899000Y-73378000D03*
X190899000Y-72878000D03*
X190899000Y-72378000D03*
X190899000Y-71878000D03*
X190899000Y-71378000D03*
X190899000Y-70878000D03*
X190899000Y-70378000D03*
X190899000Y-69878000D03*
X190899000Y-69378000D03*
X190899000Y-68878000D03*
X190899000Y-68378000D03*
X190899000Y-67878000D03*
X190899000Y-67378000D03*
X190899000Y-66878000D03*
X190899000Y-66378000D03*
X190899000Y-65878000D03*
X190899000Y-65378000D03*
%TD*%
D16*
%TO.C,U1*%
X158192000Y-91082500D03*
X158192000Y-93382500D03*
D17*
X164492000Y-93382500D03*
D16*
X158192000Y-95682500D03*
%TD*%
D18*
%TO.C,U5*%
X151740000Y-105170000D03*
X151740000Y-102870000D03*
D19*
X145440000Y-102870000D03*
D18*
X151740000Y-100570000D03*
%TD*%
M02*
