%TF.GenerationSoftware,KiCad,Pcbnew,8.0.4*%
%TF.CreationDate,2024-10-28T16:26:41-05:00*%
%TF.ProjectId,String-Drum-Synthesizer,53747269-6e67-42d4-9472-756d2d53796e,rev?*%
%TF.SameCoordinates,Original*%
%TF.FileFunction,Legend,Top*%
%TF.FilePolarity,Positive*%
%FSLAX46Y46*%
G04 Gerber Fmt 4.6, Leading zero omitted, Abs format (unit mm)*
G04 Created by KiCad (PCBNEW 8.0.4) date 2024-10-28 16:26:41*
%MOMM*%
%LPD*%
G01*
G04 APERTURE LIST*
%ADD10C,0.100000*%
%ADD11C,0.150000*%
%ADD12C,0.120000*%
%ADD13C,0.127000*%
%ADD14C,0.200000*%
G04 APERTURE END LIST*
D10*
X117864333Y-78329531D02*
X118435761Y-78329531D01*
X118150047Y-79329531D02*
X118150047Y-78329531D01*
X119150047Y-79281912D02*
X119054809Y-79329531D01*
X119054809Y-79329531D02*
X118864333Y-79329531D01*
X118864333Y-79329531D02*
X118769095Y-79281912D01*
X118769095Y-79281912D02*
X118721476Y-79186673D01*
X118721476Y-79186673D02*
X118721476Y-78805721D01*
X118721476Y-78805721D02*
X118769095Y-78710483D01*
X118769095Y-78710483D02*
X118864333Y-78662864D01*
X118864333Y-78662864D02*
X119054809Y-78662864D01*
X119054809Y-78662864D02*
X119150047Y-78710483D01*
X119150047Y-78710483D02*
X119197666Y-78805721D01*
X119197666Y-78805721D02*
X119197666Y-78900959D01*
X119197666Y-78900959D02*
X118721476Y-78996197D01*
X120054809Y-79329531D02*
X120054809Y-78805721D01*
X120054809Y-78805721D02*
X120007190Y-78710483D01*
X120007190Y-78710483D02*
X119911952Y-78662864D01*
X119911952Y-78662864D02*
X119721476Y-78662864D01*
X119721476Y-78662864D02*
X119626238Y-78710483D01*
X120054809Y-79281912D02*
X119959571Y-79329531D01*
X119959571Y-79329531D02*
X119721476Y-79329531D01*
X119721476Y-79329531D02*
X119626238Y-79281912D01*
X119626238Y-79281912D02*
X119578619Y-79186673D01*
X119578619Y-79186673D02*
X119578619Y-79091435D01*
X119578619Y-79091435D02*
X119626238Y-78996197D01*
X119626238Y-78996197D02*
X119721476Y-78948578D01*
X119721476Y-78948578D02*
X119959571Y-78948578D01*
X119959571Y-78948578D02*
X120054809Y-78900959D01*
X120531000Y-79329531D02*
X120531000Y-78662864D01*
X120531000Y-78758102D02*
X120578619Y-78710483D01*
X120578619Y-78710483D02*
X120673857Y-78662864D01*
X120673857Y-78662864D02*
X120816714Y-78662864D01*
X120816714Y-78662864D02*
X120911952Y-78710483D01*
X120911952Y-78710483D02*
X120959571Y-78805721D01*
X120959571Y-78805721D02*
X120959571Y-79329531D01*
X120959571Y-78805721D02*
X121007190Y-78710483D01*
X121007190Y-78710483D02*
X121102428Y-78662864D01*
X121102428Y-78662864D02*
X121245285Y-78662864D01*
X121245285Y-78662864D02*
X121340524Y-78710483D01*
X121340524Y-78710483D02*
X121388143Y-78805721D01*
X121388143Y-78805721D02*
X121388143Y-79329531D01*
X122578619Y-78424769D02*
X122626238Y-78377150D01*
X122626238Y-78377150D02*
X122721476Y-78329531D01*
X122721476Y-78329531D02*
X122959571Y-78329531D01*
X122959571Y-78329531D02*
X123054809Y-78377150D01*
X123054809Y-78377150D02*
X123102428Y-78424769D01*
X123102428Y-78424769D02*
X123150047Y-78520007D01*
X123150047Y-78520007D02*
X123150047Y-78615245D01*
X123150047Y-78615245D02*
X123102428Y-78758102D01*
X123102428Y-78758102D02*
X122531000Y-79329531D01*
X122531000Y-79329531D02*
X123150047Y-79329531D01*
X124102428Y-79329531D02*
X123531000Y-79329531D01*
X123816714Y-79329531D02*
X123816714Y-78329531D01*
X123816714Y-78329531D02*
X123721476Y-78472388D01*
X123721476Y-78472388D02*
X123626238Y-78567626D01*
X123626238Y-78567626D02*
X123531000Y-78615245D01*
X117935761Y-79939475D02*
X118126237Y-79939475D01*
X118126237Y-79939475D02*
X118221475Y-79987094D01*
X118221475Y-79987094D02*
X118316713Y-80082332D01*
X118316713Y-80082332D02*
X118364332Y-80272808D01*
X118364332Y-80272808D02*
X118364332Y-80606141D01*
X118364332Y-80606141D02*
X118316713Y-80796617D01*
X118316713Y-80796617D02*
X118221475Y-80891856D01*
X118221475Y-80891856D02*
X118126237Y-80939475D01*
X118126237Y-80939475D02*
X117935761Y-80939475D01*
X117935761Y-80939475D02*
X117840523Y-80891856D01*
X117840523Y-80891856D02*
X117745285Y-80796617D01*
X117745285Y-80796617D02*
X117697666Y-80606141D01*
X117697666Y-80606141D02*
X117697666Y-80272808D01*
X117697666Y-80272808D02*
X117745285Y-80082332D01*
X117745285Y-80082332D02*
X117840523Y-79987094D01*
X117840523Y-79987094D02*
X117935761Y-79939475D01*
X119221475Y-80891856D02*
X119126237Y-80939475D01*
X119126237Y-80939475D02*
X118935761Y-80939475D01*
X118935761Y-80939475D02*
X118840523Y-80891856D01*
X118840523Y-80891856D02*
X118792904Y-80844236D01*
X118792904Y-80844236D02*
X118745285Y-80748998D01*
X118745285Y-80748998D02*
X118745285Y-80463284D01*
X118745285Y-80463284D02*
X118792904Y-80368046D01*
X118792904Y-80368046D02*
X118840523Y-80320427D01*
X118840523Y-80320427D02*
X118935761Y-80272808D01*
X118935761Y-80272808D02*
X119126237Y-80272808D01*
X119126237Y-80272808D02*
X119221475Y-80320427D01*
X119507190Y-80272808D02*
X119888142Y-80272808D01*
X119650047Y-79939475D02*
X119650047Y-80796617D01*
X119650047Y-80796617D02*
X119697666Y-80891856D01*
X119697666Y-80891856D02*
X119792904Y-80939475D01*
X119792904Y-80939475D02*
X119888142Y-80939475D01*
X120935762Y-80034713D02*
X120983381Y-79987094D01*
X120983381Y-79987094D02*
X121078619Y-79939475D01*
X121078619Y-79939475D02*
X121316714Y-79939475D01*
X121316714Y-79939475D02*
X121411952Y-79987094D01*
X121411952Y-79987094D02*
X121459571Y-80034713D01*
X121459571Y-80034713D02*
X121507190Y-80129951D01*
X121507190Y-80129951D02*
X121507190Y-80225189D01*
X121507190Y-80225189D02*
X121459571Y-80368046D01*
X121459571Y-80368046D02*
X120888143Y-80939475D01*
X120888143Y-80939475D02*
X121507190Y-80939475D01*
X122126238Y-79939475D02*
X122221476Y-79939475D01*
X122221476Y-79939475D02*
X122316714Y-79987094D01*
X122316714Y-79987094D02*
X122364333Y-80034713D01*
X122364333Y-80034713D02*
X122411952Y-80129951D01*
X122411952Y-80129951D02*
X122459571Y-80320427D01*
X122459571Y-80320427D02*
X122459571Y-80558522D01*
X122459571Y-80558522D02*
X122411952Y-80748998D01*
X122411952Y-80748998D02*
X122364333Y-80844236D01*
X122364333Y-80844236D02*
X122316714Y-80891856D01*
X122316714Y-80891856D02*
X122221476Y-80939475D01*
X122221476Y-80939475D02*
X122126238Y-80939475D01*
X122126238Y-80939475D02*
X122031000Y-80891856D01*
X122031000Y-80891856D02*
X121983381Y-80844236D01*
X121983381Y-80844236D02*
X121935762Y-80748998D01*
X121935762Y-80748998D02*
X121888143Y-80558522D01*
X121888143Y-80558522D02*
X121888143Y-80320427D01*
X121888143Y-80320427D02*
X121935762Y-80129951D01*
X121935762Y-80129951D02*
X121983381Y-80034713D01*
X121983381Y-80034713D02*
X122031000Y-79987094D01*
X122031000Y-79987094D02*
X122126238Y-79939475D01*
X122840524Y-80034713D02*
X122888143Y-79987094D01*
X122888143Y-79987094D02*
X122983381Y-79939475D01*
X122983381Y-79939475D02*
X123221476Y-79939475D01*
X123221476Y-79939475D02*
X123316714Y-79987094D01*
X123316714Y-79987094D02*
X123364333Y-80034713D01*
X123364333Y-80034713D02*
X123411952Y-80129951D01*
X123411952Y-80129951D02*
X123411952Y-80225189D01*
X123411952Y-80225189D02*
X123364333Y-80368046D01*
X123364333Y-80368046D02*
X122792905Y-80939475D01*
X122792905Y-80939475D02*
X123411952Y-80939475D01*
X124269095Y-80272808D02*
X124269095Y-80939475D01*
X124031000Y-79891856D02*
X123792905Y-80606141D01*
X123792905Y-80606141D02*
X124411952Y-80606141D01*
X117554809Y-81549419D02*
X117888142Y-82549419D01*
X117888142Y-82549419D02*
X118221475Y-81549419D01*
X118935761Y-82501800D02*
X118840523Y-82549419D01*
X118840523Y-82549419D02*
X118650047Y-82549419D01*
X118650047Y-82549419D02*
X118554809Y-82501800D01*
X118554809Y-82501800D02*
X118507190Y-82406561D01*
X118507190Y-82406561D02*
X118507190Y-82025609D01*
X118507190Y-82025609D02*
X118554809Y-81930371D01*
X118554809Y-81930371D02*
X118650047Y-81882752D01*
X118650047Y-81882752D02*
X118840523Y-81882752D01*
X118840523Y-81882752D02*
X118935761Y-81930371D01*
X118935761Y-81930371D02*
X118983380Y-82025609D01*
X118983380Y-82025609D02*
X118983380Y-82120847D01*
X118983380Y-82120847D02*
X118507190Y-82216085D01*
X119411952Y-82549419D02*
X119411952Y-81882752D01*
X119411952Y-82073228D02*
X119459571Y-81977990D01*
X119459571Y-81977990D02*
X119507190Y-81930371D01*
X119507190Y-81930371D02*
X119602428Y-81882752D01*
X119602428Y-81882752D02*
X119697666Y-81882752D01*
X119983381Y-82501800D02*
X120078619Y-82549419D01*
X120078619Y-82549419D02*
X120269095Y-82549419D01*
X120269095Y-82549419D02*
X120364333Y-82501800D01*
X120364333Y-82501800D02*
X120411952Y-82406561D01*
X120411952Y-82406561D02*
X120411952Y-82358942D01*
X120411952Y-82358942D02*
X120364333Y-82263704D01*
X120364333Y-82263704D02*
X120269095Y-82216085D01*
X120269095Y-82216085D02*
X120126238Y-82216085D01*
X120126238Y-82216085D02*
X120031000Y-82168466D01*
X120031000Y-82168466D02*
X119983381Y-82073228D01*
X119983381Y-82073228D02*
X119983381Y-82025609D01*
X119983381Y-82025609D02*
X120031000Y-81930371D01*
X120031000Y-81930371D02*
X120126238Y-81882752D01*
X120126238Y-81882752D02*
X120269095Y-81882752D01*
X120269095Y-81882752D02*
X120364333Y-81930371D01*
X120840524Y-82549419D02*
X120840524Y-81882752D01*
X120840524Y-81549419D02*
X120792905Y-81597038D01*
X120792905Y-81597038D02*
X120840524Y-81644657D01*
X120840524Y-81644657D02*
X120888143Y-81597038D01*
X120888143Y-81597038D02*
X120840524Y-81549419D01*
X120840524Y-81549419D02*
X120840524Y-81644657D01*
X121459571Y-82549419D02*
X121364333Y-82501800D01*
X121364333Y-82501800D02*
X121316714Y-82454180D01*
X121316714Y-82454180D02*
X121269095Y-82358942D01*
X121269095Y-82358942D02*
X121269095Y-82073228D01*
X121269095Y-82073228D02*
X121316714Y-81977990D01*
X121316714Y-81977990D02*
X121364333Y-81930371D01*
X121364333Y-81930371D02*
X121459571Y-81882752D01*
X121459571Y-81882752D02*
X121602428Y-81882752D01*
X121602428Y-81882752D02*
X121697666Y-81930371D01*
X121697666Y-81930371D02*
X121745285Y-81977990D01*
X121745285Y-81977990D02*
X121792904Y-82073228D01*
X121792904Y-82073228D02*
X121792904Y-82358942D01*
X121792904Y-82358942D02*
X121745285Y-82454180D01*
X121745285Y-82454180D02*
X121697666Y-82501800D01*
X121697666Y-82501800D02*
X121602428Y-82549419D01*
X121602428Y-82549419D02*
X121459571Y-82549419D01*
X122221476Y-81882752D02*
X122221476Y-82549419D01*
X122221476Y-81977990D02*
X122269095Y-81930371D01*
X122269095Y-81930371D02*
X122364333Y-81882752D01*
X122364333Y-81882752D02*
X122507190Y-81882752D01*
X122507190Y-81882752D02*
X122602428Y-81930371D01*
X122602428Y-81930371D02*
X122650047Y-82025609D01*
X122650047Y-82025609D02*
X122650047Y-82549419D01*
X124411952Y-82549419D02*
X123840524Y-82549419D01*
X124126238Y-82549419D02*
X124126238Y-81549419D01*
X124126238Y-81549419D02*
X124031000Y-81692276D01*
X124031000Y-81692276D02*
X123935762Y-81787514D01*
X123935762Y-81787514D02*
X123840524Y-81835133D01*
D11*
X191787819Y-127888333D02*
X192502104Y-127888333D01*
X192502104Y-127888333D02*
X192644961Y-127935952D01*
X192644961Y-127935952D02*
X192740200Y-128031190D01*
X192740200Y-128031190D02*
X192787819Y-128174047D01*
X192787819Y-128174047D02*
X192787819Y-128269285D01*
X192787819Y-126888333D02*
X192787819Y-127459761D01*
X192787819Y-127174047D02*
X191787819Y-127174047D01*
X191787819Y-127174047D02*
X191930676Y-127269285D01*
X191930676Y-127269285D02*
X192025914Y-127364523D01*
X192025914Y-127364523D02*
X192073533Y-127459761D01*
X133524809Y-32783819D02*
X133524809Y-31783819D01*
X133524809Y-31783819D02*
X133905761Y-31783819D01*
X133905761Y-31783819D02*
X134000999Y-31831438D01*
X134000999Y-31831438D02*
X134048618Y-31879057D01*
X134048618Y-31879057D02*
X134096237Y-31974295D01*
X134096237Y-31974295D02*
X134096237Y-32117152D01*
X134096237Y-32117152D02*
X134048618Y-32212390D01*
X134048618Y-32212390D02*
X134000999Y-32260009D01*
X134000999Y-32260009D02*
X133905761Y-32307628D01*
X133905761Y-32307628D02*
X133524809Y-32307628D01*
X134667666Y-32783819D02*
X134572428Y-32736200D01*
X134572428Y-32736200D02*
X134524809Y-32688580D01*
X134524809Y-32688580D02*
X134477190Y-32593342D01*
X134477190Y-32593342D02*
X134477190Y-32307628D01*
X134477190Y-32307628D02*
X134524809Y-32212390D01*
X134524809Y-32212390D02*
X134572428Y-32164771D01*
X134572428Y-32164771D02*
X134667666Y-32117152D01*
X134667666Y-32117152D02*
X134810523Y-32117152D01*
X134810523Y-32117152D02*
X134905761Y-32164771D01*
X134905761Y-32164771D02*
X134953380Y-32212390D01*
X134953380Y-32212390D02*
X135000999Y-32307628D01*
X135000999Y-32307628D02*
X135000999Y-32593342D01*
X135000999Y-32593342D02*
X134953380Y-32688580D01*
X134953380Y-32688580D02*
X134905761Y-32736200D01*
X134905761Y-32736200D02*
X134810523Y-32783819D01*
X134810523Y-32783819D02*
X134667666Y-32783819D01*
X135286714Y-32117152D02*
X135667666Y-32117152D01*
X135429571Y-31783819D02*
X135429571Y-32640961D01*
X135429571Y-32640961D02*
X135477190Y-32736200D01*
X135477190Y-32736200D02*
X135572428Y-32783819D01*
X135572428Y-32783819D02*
X135667666Y-32783819D01*
X135905762Y-31783819D02*
X136572428Y-31783819D01*
X136572428Y-31783819D02*
X136143857Y-32783819D01*
X147586333Y-53671080D02*
X147538714Y-53718700D01*
X147538714Y-53718700D02*
X147395857Y-53766319D01*
X147395857Y-53766319D02*
X147300619Y-53766319D01*
X147300619Y-53766319D02*
X147157762Y-53718700D01*
X147157762Y-53718700D02*
X147062524Y-53623461D01*
X147062524Y-53623461D02*
X147014905Y-53528223D01*
X147014905Y-53528223D02*
X146967286Y-53337747D01*
X146967286Y-53337747D02*
X146967286Y-53194890D01*
X146967286Y-53194890D02*
X147014905Y-53004414D01*
X147014905Y-53004414D02*
X147062524Y-52909176D01*
X147062524Y-52909176D02*
X147157762Y-52813938D01*
X147157762Y-52813938D02*
X147300619Y-52766319D01*
X147300619Y-52766319D02*
X147395857Y-52766319D01*
X147395857Y-52766319D02*
X147538714Y-52813938D01*
X147538714Y-52813938D02*
X147586333Y-52861557D01*
X148062524Y-53766319D02*
X148253000Y-53766319D01*
X148253000Y-53766319D02*
X148348238Y-53718700D01*
X148348238Y-53718700D02*
X148395857Y-53671080D01*
X148395857Y-53671080D02*
X148491095Y-53528223D01*
X148491095Y-53528223D02*
X148538714Y-53337747D01*
X148538714Y-53337747D02*
X148538714Y-52956795D01*
X148538714Y-52956795D02*
X148491095Y-52861557D01*
X148491095Y-52861557D02*
X148443476Y-52813938D01*
X148443476Y-52813938D02*
X148348238Y-52766319D01*
X148348238Y-52766319D02*
X148157762Y-52766319D01*
X148157762Y-52766319D02*
X148062524Y-52813938D01*
X148062524Y-52813938D02*
X148014905Y-52861557D01*
X148014905Y-52861557D02*
X147967286Y-52956795D01*
X147967286Y-52956795D02*
X147967286Y-53194890D01*
X147967286Y-53194890D02*
X148014905Y-53290128D01*
X148014905Y-53290128D02*
X148062524Y-53337747D01*
X148062524Y-53337747D02*
X148157762Y-53385366D01*
X148157762Y-53385366D02*
X148348238Y-53385366D01*
X148348238Y-53385366D02*
X148443476Y-53337747D01*
X148443476Y-53337747D02*
X148491095Y-53290128D01*
X148491095Y-53290128D02*
X148538714Y-53194890D01*
X147110142Y-59671319D02*
X146776809Y-59195128D01*
X146538714Y-59671319D02*
X146538714Y-58671319D01*
X146538714Y-58671319D02*
X146919666Y-58671319D01*
X146919666Y-58671319D02*
X147014904Y-58718938D01*
X147014904Y-58718938D02*
X147062523Y-58766557D01*
X147062523Y-58766557D02*
X147110142Y-58861795D01*
X147110142Y-58861795D02*
X147110142Y-59004652D01*
X147110142Y-59004652D02*
X147062523Y-59099890D01*
X147062523Y-59099890D02*
X147014904Y-59147509D01*
X147014904Y-59147509D02*
X146919666Y-59195128D01*
X146919666Y-59195128D02*
X146538714Y-59195128D01*
X148062523Y-59671319D02*
X147491095Y-59671319D01*
X147776809Y-59671319D02*
X147776809Y-58671319D01*
X147776809Y-58671319D02*
X147681571Y-58814176D01*
X147681571Y-58814176D02*
X147586333Y-58909414D01*
X147586333Y-58909414D02*
X147491095Y-58957033D01*
X148633952Y-59099890D02*
X148538714Y-59052271D01*
X148538714Y-59052271D02*
X148491095Y-59004652D01*
X148491095Y-59004652D02*
X148443476Y-58909414D01*
X148443476Y-58909414D02*
X148443476Y-58861795D01*
X148443476Y-58861795D02*
X148491095Y-58766557D01*
X148491095Y-58766557D02*
X148538714Y-58718938D01*
X148538714Y-58718938D02*
X148633952Y-58671319D01*
X148633952Y-58671319D02*
X148824428Y-58671319D01*
X148824428Y-58671319D02*
X148919666Y-58718938D01*
X148919666Y-58718938D02*
X148967285Y-58766557D01*
X148967285Y-58766557D02*
X149014904Y-58861795D01*
X149014904Y-58861795D02*
X149014904Y-58909414D01*
X149014904Y-58909414D02*
X148967285Y-59004652D01*
X148967285Y-59004652D02*
X148919666Y-59052271D01*
X148919666Y-59052271D02*
X148824428Y-59099890D01*
X148824428Y-59099890D02*
X148633952Y-59099890D01*
X148633952Y-59099890D02*
X148538714Y-59147509D01*
X148538714Y-59147509D02*
X148491095Y-59195128D01*
X148491095Y-59195128D02*
X148443476Y-59290366D01*
X148443476Y-59290366D02*
X148443476Y-59480842D01*
X148443476Y-59480842D02*
X148491095Y-59576080D01*
X148491095Y-59576080D02*
X148538714Y-59623700D01*
X148538714Y-59623700D02*
X148633952Y-59671319D01*
X148633952Y-59671319D02*
X148824428Y-59671319D01*
X148824428Y-59671319D02*
X148919666Y-59623700D01*
X148919666Y-59623700D02*
X148967285Y-59576080D01*
X148967285Y-59576080D02*
X149014904Y-59480842D01*
X149014904Y-59480842D02*
X149014904Y-59290366D01*
X149014904Y-59290366D02*
X148967285Y-59195128D01*
X148967285Y-59195128D02*
X148919666Y-59147509D01*
X148919666Y-59147509D02*
X148824428Y-59099890D01*
X210342819Y-121578666D02*
X209866628Y-121911999D01*
X210342819Y-122150094D02*
X209342819Y-122150094D01*
X209342819Y-122150094D02*
X209342819Y-121769142D01*
X209342819Y-121769142D02*
X209390438Y-121673904D01*
X209390438Y-121673904D02*
X209438057Y-121626285D01*
X209438057Y-121626285D02*
X209533295Y-121578666D01*
X209533295Y-121578666D02*
X209676152Y-121578666D01*
X209676152Y-121578666D02*
X209771390Y-121626285D01*
X209771390Y-121626285D02*
X209819009Y-121673904D01*
X209819009Y-121673904D02*
X209866628Y-121769142D01*
X209866628Y-121769142D02*
X209866628Y-122150094D01*
X209342819Y-120721523D02*
X209342819Y-120911999D01*
X209342819Y-120911999D02*
X209390438Y-121007237D01*
X209390438Y-121007237D02*
X209438057Y-121054856D01*
X209438057Y-121054856D02*
X209580914Y-121150094D01*
X209580914Y-121150094D02*
X209771390Y-121197713D01*
X209771390Y-121197713D02*
X210152342Y-121197713D01*
X210152342Y-121197713D02*
X210247580Y-121150094D01*
X210247580Y-121150094D02*
X210295200Y-121102475D01*
X210295200Y-121102475D02*
X210342819Y-121007237D01*
X210342819Y-121007237D02*
X210342819Y-120816761D01*
X210342819Y-120816761D02*
X210295200Y-120721523D01*
X210295200Y-120721523D02*
X210247580Y-120673904D01*
X210247580Y-120673904D02*
X210152342Y-120626285D01*
X210152342Y-120626285D02*
X209914247Y-120626285D01*
X209914247Y-120626285D02*
X209819009Y-120673904D01*
X209819009Y-120673904D02*
X209771390Y-120721523D01*
X209771390Y-120721523D02*
X209723771Y-120816761D01*
X209723771Y-120816761D02*
X209723771Y-121007237D01*
X209723771Y-121007237D02*
X209771390Y-121102475D01*
X209771390Y-121102475D02*
X209819009Y-121150094D01*
X209819009Y-121150094D02*
X209914247Y-121197713D01*
X209961819Y-107068857D02*
X209485628Y-107402190D01*
X209961819Y-107640285D02*
X208961819Y-107640285D01*
X208961819Y-107640285D02*
X208961819Y-107259333D01*
X208961819Y-107259333D02*
X209009438Y-107164095D01*
X209009438Y-107164095D02*
X209057057Y-107116476D01*
X209057057Y-107116476D02*
X209152295Y-107068857D01*
X209152295Y-107068857D02*
X209295152Y-107068857D01*
X209295152Y-107068857D02*
X209390390Y-107116476D01*
X209390390Y-107116476D02*
X209438009Y-107164095D01*
X209438009Y-107164095D02*
X209485628Y-107259333D01*
X209485628Y-107259333D02*
X209485628Y-107640285D01*
X209961819Y-106116476D02*
X209961819Y-106687904D01*
X209961819Y-106402190D02*
X208961819Y-106402190D01*
X208961819Y-106402190D02*
X209104676Y-106497428D01*
X209104676Y-106497428D02*
X209199914Y-106592666D01*
X209199914Y-106592666D02*
X209247533Y-106687904D01*
X208961819Y-105259333D02*
X208961819Y-105449809D01*
X208961819Y-105449809D02*
X209009438Y-105545047D01*
X209009438Y-105545047D02*
X209057057Y-105592666D01*
X209057057Y-105592666D02*
X209199914Y-105687904D01*
X209199914Y-105687904D02*
X209390390Y-105735523D01*
X209390390Y-105735523D02*
X209771342Y-105735523D01*
X209771342Y-105735523D02*
X209866580Y-105687904D01*
X209866580Y-105687904D02*
X209914200Y-105640285D01*
X209914200Y-105640285D02*
X209961819Y-105545047D01*
X209961819Y-105545047D02*
X209961819Y-105354571D01*
X209961819Y-105354571D02*
X209914200Y-105259333D01*
X209914200Y-105259333D02*
X209866580Y-105211714D01*
X209866580Y-105211714D02*
X209771342Y-105164095D01*
X209771342Y-105164095D02*
X209533247Y-105164095D01*
X209533247Y-105164095D02*
X209438009Y-105211714D01*
X209438009Y-105211714D02*
X209390390Y-105259333D01*
X209390390Y-105259333D02*
X209342771Y-105354571D01*
X209342771Y-105354571D02*
X209342771Y-105545047D01*
X209342771Y-105545047D02*
X209390390Y-105640285D01*
X209390390Y-105640285D02*
X209438009Y-105687904D01*
X209438009Y-105687904D02*
X209533247Y-105735523D01*
X193606580Y-83625666D02*
X193654200Y-83673285D01*
X193654200Y-83673285D02*
X193701819Y-83816142D01*
X193701819Y-83816142D02*
X193701819Y-83911380D01*
X193701819Y-83911380D02*
X193654200Y-84054237D01*
X193654200Y-84054237D02*
X193558961Y-84149475D01*
X193558961Y-84149475D02*
X193463723Y-84197094D01*
X193463723Y-84197094D02*
X193273247Y-84244713D01*
X193273247Y-84244713D02*
X193130390Y-84244713D01*
X193130390Y-84244713D02*
X192939914Y-84197094D01*
X192939914Y-84197094D02*
X192844676Y-84149475D01*
X192844676Y-84149475D02*
X192749438Y-84054237D01*
X192749438Y-84054237D02*
X192701819Y-83911380D01*
X192701819Y-83911380D02*
X192701819Y-83816142D01*
X192701819Y-83816142D02*
X192749438Y-83673285D01*
X192749438Y-83673285D02*
X192797057Y-83625666D01*
X192701819Y-83292332D02*
X192701819Y-82625666D01*
X192701819Y-82625666D02*
X193701819Y-83054237D01*
X160139142Y-114670819D02*
X159805809Y-114194628D01*
X159567714Y-114670819D02*
X159567714Y-113670819D01*
X159567714Y-113670819D02*
X159948666Y-113670819D01*
X159948666Y-113670819D02*
X160043904Y-113718438D01*
X160043904Y-113718438D02*
X160091523Y-113766057D01*
X160091523Y-113766057D02*
X160139142Y-113861295D01*
X160139142Y-113861295D02*
X160139142Y-114004152D01*
X160139142Y-114004152D02*
X160091523Y-114099390D01*
X160091523Y-114099390D02*
X160043904Y-114147009D01*
X160043904Y-114147009D02*
X159948666Y-114194628D01*
X159948666Y-114194628D02*
X159567714Y-114194628D01*
X160472476Y-113670819D02*
X161091523Y-113670819D01*
X161091523Y-113670819D02*
X160758190Y-114051771D01*
X160758190Y-114051771D02*
X160901047Y-114051771D01*
X160901047Y-114051771D02*
X160996285Y-114099390D01*
X160996285Y-114099390D02*
X161043904Y-114147009D01*
X161043904Y-114147009D02*
X161091523Y-114242247D01*
X161091523Y-114242247D02*
X161091523Y-114480342D01*
X161091523Y-114480342D02*
X161043904Y-114575580D01*
X161043904Y-114575580D02*
X160996285Y-114623200D01*
X160996285Y-114623200D02*
X160901047Y-114670819D01*
X160901047Y-114670819D02*
X160615333Y-114670819D01*
X160615333Y-114670819D02*
X160520095Y-114623200D01*
X160520095Y-114623200D02*
X160472476Y-114575580D01*
X161472476Y-113766057D02*
X161520095Y-113718438D01*
X161520095Y-113718438D02*
X161615333Y-113670819D01*
X161615333Y-113670819D02*
X161853428Y-113670819D01*
X161853428Y-113670819D02*
X161948666Y-113718438D01*
X161948666Y-113718438D02*
X161996285Y-113766057D01*
X161996285Y-113766057D02*
X162043904Y-113861295D01*
X162043904Y-113861295D02*
X162043904Y-113956533D01*
X162043904Y-113956533D02*
X161996285Y-114099390D01*
X161996285Y-114099390D02*
X161424857Y-114670819D01*
X161424857Y-114670819D02*
X162043904Y-114670819D01*
X182245095Y-58416819D02*
X182245095Y-59226342D01*
X182245095Y-59226342D02*
X182292714Y-59321580D01*
X182292714Y-59321580D02*
X182340333Y-59369200D01*
X182340333Y-59369200D02*
X182435571Y-59416819D01*
X182435571Y-59416819D02*
X182626047Y-59416819D01*
X182626047Y-59416819D02*
X182721285Y-59369200D01*
X182721285Y-59369200D02*
X182768904Y-59321580D01*
X182768904Y-59321580D02*
X182816523Y-59226342D01*
X182816523Y-59226342D02*
X182816523Y-58416819D01*
X183721285Y-58416819D02*
X183530809Y-58416819D01*
X183530809Y-58416819D02*
X183435571Y-58464438D01*
X183435571Y-58464438D02*
X183387952Y-58512057D01*
X183387952Y-58512057D02*
X183292714Y-58654914D01*
X183292714Y-58654914D02*
X183245095Y-58845390D01*
X183245095Y-58845390D02*
X183245095Y-59226342D01*
X183245095Y-59226342D02*
X183292714Y-59321580D01*
X183292714Y-59321580D02*
X183340333Y-59369200D01*
X183340333Y-59369200D02*
X183435571Y-59416819D01*
X183435571Y-59416819D02*
X183626047Y-59416819D01*
X183626047Y-59416819D02*
X183721285Y-59369200D01*
X183721285Y-59369200D02*
X183768904Y-59321580D01*
X183768904Y-59321580D02*
X183816523Y-59226342D01*
X183816523Y-59226342D02*
X183816523Y-58988247D01*
X183816523Y-58988247D02*
X183768904Y-58893009D01*
X183768904Y-58893009D02*
X183721285Y-58845390D01*
X183721285Y-58845390D02*
X183626047Y-58797771D01*
X183626047Y-58797771D02*
X183435571Y-58797771D01*
X183435571Y-58797771D02*
X183340333Y-58845390D01*
X183340333Y-58845390D02*
X183292714Y-58893009D01*
X183292714Y-58893009D02*
X183245095Y-58988247D01*
X114300095Y-128207819D02*
X114300095Y-127207819D01*
X114300095Y-127684009D02*
X114871523Y-127684009D01*
X114871523Y-128207819D02*
X114871523Y-127207819D01*
X115252476Y-127207819D02*
X115871523Y-127207819D01*
X115871523Y-127207819D02*
X115538190Y-127588771D01*
X115538190Y-127588771D02*
X115681047Y-127588771D01*
X115681047Y-127588771D02*
X115776285Y-127636390D01*
X115776285Y-127636390D02*
X115823904Y-127684009D01*
X115823904Y-127684009D02*
X115871523Y-127779247D01*
X115871523Y-127779247D02*
X115871523Y-128017342D01*
X115871523Y-128017342D02*
X115823904Y-128112580D01*
X115823904Y-128112580D02*
X115776285Y-128160200D01*
X115776285Y-128160200D02*
X115681047Y-128207819D01*
X115681047Y-128207819D02*
X115395333Y-128207819D01*
X115395333Y-128207819D02*
X115300095Y-128160200D01*
X115300095Y-128160200D02*
X115252476Y-128112580D01*
X202557142Y-72153819D02*
X202223809Y-71677628D01*
X201985714Y-72153819D02*
X201985714Y-71153819D01*
X201985714Y-71153819D02*
X202366666Y-71153819D01*
X202366666Y-71153819D02*
X202461904Y-71201438D01*
X202461904Y-71201438D02*
X202509523Y-71249057D01*
X202509523Y-71249057D02*
X202557142Y-71344295D01*
X202557142Y-71344295D02*
X202557142Y-71487152D01*
X202557142Y-71487152D02*
X202509523Y-71582390D01*
X202509523Y-71582390D02*
X202461904Y-71630009D01*
X202461904Y-71630009D02*
X202366666Y-71677628D01*
X202366666Y-71677628D02*
X201985714Y-71677628D01*
X202890476Y-71153819D02*
X203509523Y-71153819D01*
X203509523Y-71153819D02*
X203176190Y-71534771D01*
X203176190Y-71534771D02*
X203319047Y-71534771D01*
X203319047Y-71534771D02*
X203414285Y-71582390D01*
X203414285Y-71582390D02*
X203461904Y-71630009D01*
X203461904Y-71630009D02*
X203509523Y-71725247D01*
X203509523Y-71725247D02*
X203509523Y-71963342D01*
X203509523Y-71963342D02*
X203461904Y-72058580D01*
X203461904Y-72058580D02*
X203414285Y-72106200D01*
X203414285Y-72106200D02*
X203319047Y-72153819D01*
X203319047Y-72153819D02*
X203033333Y-72153819D01*
X203033333Y-72153819D02*
X202938095Y-72106200D01*
X202938095Y-72106200D02*
X202890476Y-72058580D01*
X204414285Y-71153819D02*
X203938095Y-71153819D01*
X203938095Y-71153819D02*
X203890476Y-71630009D01*
X203890476Y-71630009D02*
X203938095Y-71582390D01*
X203938095Y-71582390D02*
X204033333Y-71534771D01*
X204033333Y-71534771D02*
X204271428Y-71534771D01*
X204271428Y-71534771D02*
X204366666Y-71582390D01*
X204366666Y-71582390D02*
X204414285Y-71630009D01*
X204414285Y-71630009D02*
X204461904Y-71725247D01*
X204461904Y-71725247D02*
X204461904Y-71963342D01*
X204461904Y-71963342D02*
X204414285Y-72058580D01*
X204414285Y-72058580D02*
X204366666Y-72106200D01*
X204366666Y-72106200D02*
X204271428Y-72153819D01*
X204271428Y-72153819D02*
X204033333Y-72153819D01*
X204033333Y-72153819D02*
X203938095Y-72106200D01*
X203938095Y-72106200D02*
X203890476Y-72058580D01*
X159556142Y-71060319D02*
X159222809Y-70584128D01*
X158984714Y-71060319D02*
X158984714Y-70060319D01*
X158984714Y-70060319D02*
X159365666Y-70060319D01*
X159365666Y-70060319D02*
X159460904Y-70107938D01*
X159460904Y-70107938D02*
X159508523Y-70155557D01*
X159508523Y-70155557D02*
X159556142Y-70250795D01*
X159556142Y-70250795D02*
X159556142Y-70393652D01*
X159556142Y-70393652D02*
X159508523Y-70488890D01*
X159508523Y-70488890D02*
X159460904Y-70536509D01*
X159460904Y-70536509D02*
X159365666Y-70584128D01*
X159365666Y-70584128D02*
X158984714Y-70584128D01*
X160508523Y-71060319D02*
X159937095Y-71060319D01*
X160222809Y-71060319D02*
X160222809Y-70060319D01*
X160222809Y-70060319D02*
X160127571Y-70203176D01*
X160127571Y-70203176D02*
X160032333Y-70298414D01*
X160032333Y-70298414D02*
X159937095Y-70346033D01*
X161413285Y-70060319D02*
X160937095Y-70060319D01*
X160937095Y-70060319D02*
X160889476Y-70536509D01*
X160889476Y-70536509D02*
X160937095Y-70488890D01*
X160937095Y-70488890D02*
X161032333Y-70441271D01*
X161032333Y-70441271D02*
X161270428Y-70441271D01*
X161270428Y-70441271D02*
X161365666Y-70488890D01*
X161365666Y-70488890D02*
X161413285Y-70536509D01*
X161413285Y-70536509D02*
X161460904Y-70631747D01*
X161460904Y-70631747D02*
X161460904Y-70869842D01*
X161460904Y-70869842D02*
X161413285Y-70965080D01*
X161413285Y-70965080D02*
X161365666Y-71012700D01*
X161365666Y-71012700D02*
X161270428Y-71060319D01*
X161270428Y-71060319D02*
X161032333Y-71060319D01*
X161032333Y-71060319D02*
X160937095Y-71012700D01*
X160937095Y-71012700D02*
X160889476Y-70965080D01*
X193606580Y-93872666D02*
X193654200Y-93920285D01*
X193654200Y-93920285D02*
X193701819Y-94063142D01*
X193701819Y-94063142D02*
X193701819Y-94158380D01*
X193701819Y-94158380D02*
X193654200Y-94301237D01*
X193654200Y-94301237D02*
X193558961Y-94396475D01*
X193558961Y-94396475D02*
X193463723Y-94444094D01*
X193463723Y-94444094D02*
X193273247Y-94491713D01*
X193273247Y-94491713D02*
X193130390Y-94491713D01*
X193130390Y-94491713D02*
X192939914Y-94444094D01*
X192939914Y-94444094D02*
X192844676Y-94396475D01*
X192844676Y-94396475D02*
X192749438Y-94301237D01*
X192749438Y-94301237D02*
X192701819Y-94158380D01*
X192701819Y-94158380D02*
X192701819Y-94063142D01*
X192701819Y-94063142D02*
X192749438Y-93920285D01*
X192749438Y-93920285D02*
X192797057Y-93872666D01*
X192701819Y-93015523D02*
X192701819Y-93205999D01*
X192701819Y-93205999D02*
X192749438Y-93301237D01*
X192749438Y-93301237D02*
X192797057Y-93348856D01*
X192797057Y-93348856D02*
X192939914Y-93444094D01*
X192939914Y-93444094D02*
X193130390Y-93491713D01*
X193130390Y-93491713D02*
X193511342Y-93491713D01*
X193511342Y-93491713D02*
X193606580Y-93444094D01*
X193606580Y-93444094D02*
X193654200Y-93396475D01*
X193654200Y-93396475D02*
X193701819Y-93301237D01*
X193701819Y-93301237D02*
X193701819Y-93110761D01*
X193701819Y-93110761D02*
X193654200Y-93015523D01*
X193654200Y-93015523D02*
X193606580Y-92967904D01*
X193606580Y-92967904D02*
X193511342Y-92920285D01*
X193511342Y-92920285D02*
X193273247Y-92920285D01*
X193273247Y-92920285D02*
X193178009Y-92967904D01*
X193178009Y-92967904D02*
X193130390Y-93015523D01*
X193130390Y-93015523D02*
X193082771Y-93110761D01*
X193082771Y-93110761D02*
X193082771Y-93301237D01*
X193082771Y-93301237D02*
X193130390Y-93396475D01*
X193130390Y-93396475D02*
X193178009Y-93444094D01*
X193178009Y-93444094D02*
X193273247Y-93491713D01*
X152066809Y-32656819D02*
X152066809Y-31656819D01*
X152066809Y-31656819D02*
X152447761Y-31656819D01*
X152447761Y-31656819D02*
X152542999Y-31704438D01*
X152542999Y-31704438D02*
X152590618Y-31752057D01*
X152590618Y-31752057D02*
X152638237Y-31847295D01*
X152638237Y-31847295D02*
X152638237Y-31990152D01*
X152638237Y-31990152D02*
X152590618Y-32085390D01*
X152590618Y-32085390D02*
X152542999Y-32133009D01*
X152542999Y-32133009D02*
X152447761Y-32180628D01*
X152447761Y-32180628D02*
X152066809Y-32180628D01*
X153209666Y-32656819D02*
X153114428Y-32609200D01*
X153114428Y-32609200D02*
X153066809Y-32561580D01*
X153066809Y-32561580D02*
X153019190Y-32466342D01*
X153019190Y-32466342D02*
X153019190Y-32180628D01*
X153019190Y-32180628D02*
X153066809Y-32085390D01*
X153066809Y-32085390D02*
X153114428Y-32037771D01*
X153114428Y-32037771D02*
X153209666Y-31990152D01*
X153209666Y-31990152D02*
X153352523Y-31990152D01*
X153352523Y-31990152D02*
X153447761Y-32037771D01*
X153447761Y-32037771D02*
X153495380Y-32085390D01*
X153495380Y-32085390D02*
X153542999Y-32180628D01*
X153542999Y-32180628D02*
X153542999Y-32466342D01*
X153542999Y-32466342D02*
X153495380Y-32561580D01*
X153495380Y-32561580D02*
X153447761Y-32609200D01*
X153447761Y-32609200D02*
X153352523Y-32656819D01*
X153352523Y-32656819D02*
X153209666Y-32656819D01*
X153828714Y-31990152D02*
X154209666Y-31990152D01*
X153971571Y-31656819D02*
X153971571Y-32513961D01*
X153971571Y-32513961D02*
X154019190Y-32609200D01*
X154019190Y-32609200D02*
X154114428Y-32656819D01*
X154114428Y-32656819D02*
X154209666Y-32656819D01*
X155019190Y-31656819D02*
X154543000Y-31656819D01*
X154543000Y-31656819D02*
X154495381Y-32133009D01*
X154495381Y-32133009D02*
X154543000Y-32085390D01*
X154543000Y-32085390D02*
X154638238Y-32037771D01*
X154638238Y-32037771D02*
X154876333Y-32037771D01*
X154876333Y-32037771D02*
X154971571Y-32085390D01*
X154971571Y-32085390D02*
X155019190Y-32133009D01*
X155019190Y-32133009D02*
X155066809Y-32228247D01*
X155066809Y-32228247D02*
X155066809Y-32466342D01*
X155066809Y-32466342D02*
X155019190Y-32561580D01*
X155019190Y-32561580D02*
X154971571Y-32609200D01*
X154971571Y-32609200D02*
X154876333Y-32656819D01*
X154876333Y-32656819D02*
X154638238Y-32656819D01*
X154638238Y-32656819D02*
X154543000Y-32609200D01*
X154543000Y-32609200D02*
X154495381Y-32561580D01*
X193352580Y-104482272D02*
X193400200Y-104529891D01*
X193400200Y-104529891D02*
X193447819Y-104672748D01*
X193447819Y-104672748D02*
X193447819Y-104767986D01*
X193447819Y-104767986D02*
X193400200Y-104910843D01*
X193400200Y-104910843D02*
X193304961Y-105006081D01*
X193304961Y-105006081D02*
X193209723Y-105053700D01*
X193209723Y-105053700D02*
X193019247Y-105101319D01*
X193019247Y-105101319D02*
X192876390Y-105101319D01*
X192876390Y-105101319D02*
X192685914Y-105053700D01*
X192685914Y-105053700D02*
X192590676Y-105006081D01*
X192590676Y-105006081D02*
X192495438Y-104910843D01*
X192495438Y-104910843D02*
X192447819Y-104767986D01*
X192447819Y-104767986D02*
X192447819Y-104672748D01*
X192447819Y-104672748D02*
X192495438Y-104529891D01*
X192495438Y-104529891D02*
X192543057Y-104482272D01*
X192781152Y-103625129D02*
X193447819Y-103625129D01*
X192400200Y-103863224D02*
X193114485Y-104101319D01*
X193114485Y-104101319D02*
X193114485Y-103482272D01*
X160064142Y-54550319D02*
X159730809Y-54074128D01*
X159492714Y-54550319D02*
X159492714Y-53550319D01*
X159492714Y-53550319D02*
X159873666Y-53550319D01*
X159873666Y-53550319D02*
X159968904Y-53597938D01*
X159968904Y-53597938D02*
X160016523Y-53645557D01*
X160016523Y-53645557D02*
X160064142Y-53740795D01*
X160064142Y-53740795D02*
X160064142Y-53883652D01*
X160064142Y-53883652D02*
X160016523Y-53978890D01*
X160016523Y-53978890D02*
X159968904Y-54026509D01*
X159968904Y-54026509D02*
X159873666Y-54074128D01*
X159873666Y-54074128D02*
X159492714Y-54074128D01*
X160445095Y-53645557D02*
X160492714Y-53597938D01*
X160492714Y-53597938D02*
X160587952Y-53550319D01*
X160587952Y-53550319D02*
X160826047Y-53550319D01*
X160826047Y-53550319D02*
X160921285Y-53597938D01*
X160921285Y-53597938D02*
X160968904Y-53645557D01*
X160968904Y-53645557D02*
X161016523Y-53740795D01*
X161016523Y-53740795D02*
X161016523Y-53836033D01*
X161016523Y-53836033D02*
X160968904Y-53978890D01*
X160968904Y-53978890D02*
X160397476Y-54550319D01*
X160397476Y-54550319D02*
X161016523Y-54550319D01*
X161968904Y-54550319D02*
X161397476Y-54550319D01*
X161683190Y-54550319D02*
X161683190Y-53550319D01*
X161683190Y-53550319D02*
X161587952Y-53693176D01*
X161587952Y-53693176D02*
X161492714Y-53788414D01*
X161492714Y-53788414D02*
X161397476Y-53836033D01*
X116546809Y-106341104D02*
X117022999Y-106341104D01*
X116451571Y-106626819D02*
X116784904Y-105626819D01*
X116784904Y-105626819D02*
X117118237Y-106626819D01*
X117880142Y-105960152D02*
X117880142Y-106626819D01*
X117451571Y-105960152D02*
X117451571Y-106483961D01*
X117451571Y-106483961D02*
X117499190Y-106579200D01*
X117499190Y-106579200D02*
X117594428Y-106626819D01*
X117594428Y-106626819D02*
X117737285Y-106626819D01*
X117737285Y-106626819D02*
X117832523Y-106579200D01*
X117832523Y-106579200D02*
X117880142Y-106531580D01*
X118784904Y-106626819D02*
X118784904Y-105626819D01*
X118784904Y-106579200D02*
X118689666Y-106626819D01*
X118689666Y-106626819D02*
X118499190Y-106626819D01*
X118499190Y-106626819D02*
X118403952Y-106579200D01*
X118403952Y-106579200D02*
X118356333Y-106531580D01*
X118356333Y-106531580D02*
X118308714Y-106436342D01*
X118308714Y-106436342D02*
X118308714Y-106150628D01*
X118308714Y-106150628D02*
X118356333Y-106055390D01*
X118356333Y-106055390D02*
X118403952Y-106007771D01*
X118403952Y-106007771D02*
X118499190Y-105960152D01*
X118499190Y-105960152D02*
X118689666Y-105960152D01*
X118689666Y-105960152D02*
X118784904Y-106007771D01*
X119261095Y-106626819D02*
X119261095Y-105960152D01*
X119261095Y-105626819D02*
X119213476Y-105674438D01*
X119213476Y-105674438D02*
X119261095Y-105722057D01*
X119261095Y-105722057D02*
X119308714Y-105674438D01*
X119308714Y-105674438D02*
X119261095Y-105626819D01*
X119261095Y-105626819D02*
X119261095Y-105722057D01*
X119880142Y-106626819D02*
X119784904Y-106579200D01*
X119784904Y-106579200D02*
X119737285Y-106531580D01*
X119737285Y-106531580D02*
X119689666Y-106436342D01*
X119689666Y-106436342D02*
X119689666Y-106150628D01*
X119689666Y-106150628D02*
X119737285Y-106055390D01*
X119737285Y-106055390D02*
X119784904Y-106007771D01*
X119784904Y-106007771D02*
X119880142Y-105960152D01*
X119880142Y-105960152D02*
X120022999Y-105960152D01*
X120022999Y-105960152D02*
X120118237Y-106007771D01*
X120118237Y-106007771D02*
X120165856Y-106055390D01*
X120165856Y-106055390D02*
X120213475Y-106150628D01*
X120213475Y-106150628D02*
X120213475Y-106436342D01*
X120213475Y-106436342D02*
X120165856Y-106531580D01*
X120165856Y-106531580D02*
X120118237Y-106579200D01*
X120118237Y-106579200D02*
X120022999Y-106626819D01*
X120022999Y-106626819D02*
X119880142Y-106626819D01*
X120927761Y-105626819D02*
X120927761Y-106341104D01*
X120927761Y-106341104D02*
X120880142Y-106483961D01*
X120880142Y-106483961D02*
X120784904Y-106579200D01*
X120784904Y-106579200D02*
X120642047Y-106626819D01*
X120642047Y-106626819D02*
X120546809Y-106626819D01*
X121832523Y-106626819D02*
X121832523Y-106103009D01*
X121832523Y-106103009D02*
X121784904Y-106007771D01*
X121784904Y-106007771D02*
X121689666Y-105960152D01*
X121689666Y-105960152D02*
X121499190Y-105960152D01*
X121499190Y-105960152D02*
X121403952Y-106007771D01*
X121832523Y-106579200D02*
X121737285Y-106626819D01*
X121737285Y-106626819D02*
X121499190Y-106626819D01*
X121499190Y-106626819D02*
X121403952Y-106579200D01*
X121403952Y-106579200D02*
X121356333Y-106483961D01*
X121356333Y-106483961D02*
X121356333Y-106388723D01*
X121356333Y-106388723D02*
X121403952Y-106293485D01*
X121403952Y-106293485D02*
X121499190Y-106245866D01*
X121499190Y-106245866D02*
X121737285Y-106245866D01*
X121737285Y-106245866D02*
X121832523Y-106198247D01*
X122737285Y-106579200D02*
X122642047Y-106626819D01*
X122642047Y-106626819D02*
X122451571Y-106626819D01*
X122451571Y-106626819D02*
X122356333Y-106579200D01*
X122356333Y-106579200D02*
X122308714Y-106531580D01*
X122308714Y-106531580D02*
X122261095Y-106436342D01*
X122261095Y-106436342D02*
X122261095Y-106150628D01*
X122261095Y-106150628D02*
X122308714Y-106055390D01*
X122308714Y-106055390D02*
X122356333Y-106007771D01*
X122356333Y-106007771D02*
X122451571Y-105960152D01*
X122451571Y-105960152D02*
X122642047Y-105960152D01*
X122642047Y-105960152D02*
X122737285Y-106007771D01*
X123165857Y-106626819D02*
X123165857Y-105626819D01*
X123261095Y-106245866D02*
X123546809Y-106626819D01*
X123546809Y-105960152D02*
X123165857Y-106341104D01*
X124499190Y-106626819D02*
X123927762Y-106626819D01*
X124213476Y-106626819D02*
X124213476Y-105626819D01*
X124213476Y-105626819D02*
X124118238Y-105769676D01*
X124118238Y-105769676D02*
X124023000Y-105864914D01*
X124023000Y-105864914D02*
X123927762Y-105912533D01*
X159937142Y-48962319D02*
X159603809Y-48486128D01*
X159365714Y-48962319D02*
X159365714Y-47962319D01*
X159365714Y-47962319D02*
X159746666Y-47962319D01*
X159746666Y-47962319D02*
X159841904Y-48009938D01*
X159841904Y-48009938D02*
X159889523Y-48057557D01*
X159889523Y-48057557D02*
X159937142Y-48152795D01*
X159937142Y-48152795D02*
X159937142Y-48295652D01*
X159937142Y-48295652D02*
X159889523Y-48390890D01*
X159889523Y-48390890D02*
X159841904Y-48438509D01*
X159841904Y-48438509D02*
X159746666Y-48486128D01*
X159746666Y-48486128D02*
X159365714Y-48486128D01*
X160889523Y-48962319D02*
X160318095Y-48962319D01*
X160603809Y-48962319D02*
X160603809Y-47962319D01*
X160603809Y-47962319D02*
X160508571Y-48105176D01*
X160508571Y-48105176D02*
X160413333Y-48200414D01*
X160413333Y-48200414D02*
X160318095Y-48248033D01*
X161365714Y-48962319D02*
X161556190Y-48962319D01*
X161556190Y-48962319D02*
X161651428Y-48914700D01*
X161651428Y-48914700D02*
X161699047Y-48867080D01*
X161699047Y-48867080D02*
X161794285Y-48724223D01*
X161794285Y-48724223D02*
X161841904Y-48533747D01*
X161841904Y-48533747D02*
X161841904Y-48152795D01*
X161841904Y-48152795D02*
X161794285Y-48057557D01*
X161794285Y-48057557D02*
X161746666Y-48009938D01*
X161746666Y-48009938D02*
X161651428Y-47962319D01*
X161651428Y-47962319D02*
X161460952Y-47962319D01*
X161460952Y-47962319D02*
X161365714Y-48009938D01*
X161365714Y-48009938D02*
X161318095Y-48057557D01*
X161318095Y-48057557D02*
X161270476Y-48152795D01*
X161270476Y-48152795D02*
X161270476Y-48390890D01*
X161270476Y-48390890D02*
X161318095Y-48486128D01*
X161318095Y-48486128D02*
X161365714Y-48533747D01*
X161365714Y-48533747D02*
X161460952Y-48581366D01*
X161460952Y-48581366D02*
X161651428Y-48581366D01*
X161651428Y-48581366D02*
X161746666Y-48533747D01*
X161746666Y-48533747D02*
X161794285Y-48486128D01*
X161794285Y-48486128D02*
X161841904Y-48390890D01*
X160139142Y-119750819D02*
X159805809Y-119274628D01*
X159567714Y-119750819D02*
X159567714Y-118750819D01*
X159567714Y-118750819D02*
X159948666Y-118750819D01*
X159948666Y-118750819D02*
X160043904Y-118798438D01*
X160043904Y-118798438D02*
X160091523Y-118846057D01*
X160091523Y-118846057D02*
X160139142Y-118941295D01*
X160139142Y-118941295D02*
X160139142Y-119084152D01*
X160139142Y-119084152D02*
X160091523Y-119179390D01*
X160091523Y-119179390D02*
X160043904Y-119227009D01*
X160043904Y-119227009D02*
X159948666Y-119274628D01*
X159948666Y-119274628D02*
X159567714Y-119274628D01*
X160472476Y-118750819D02*
X161091523Y-118750819D01*
X161091523Y-118750819D02*
X160758190Y-119131771D01*
X160758190Y-119131771D02*
X160901047Y-119131771D01*
X160901047Y-119131771D02*
X160996285Y-119179390D01*
X160996285Y-119179390D02*
X161043904Y-119227009D01*
X161043904Y-119227009D02*
X161091523Y-119322247D01*
X161091523Y-119322247D02*
X161091523Y-119560342D01*
X161091523Y-119560342D02*
X161043904Y-119655580D01*
X161043904Y-119655580D02*
X160996285Y-119703200D01*
X160996285Y-119703200D02*
X160901047Y-119750819D01*
X160901047Y-119750819D02*
X160615333Y-119750819D01*
X160615333Y-119750819D02*
X160520095Y-119703200D01*
X160520095Y-119703200D02*
X160472476Y-119655580D01*
X162043904Y-119750819D02*
X161472476Y-119750819D01*
X161758190Y-119750819D02*
X161758190Y-118750819D01*
X161758190Y-118750819D02*
X161662952Y-118893676D01*
X161662952Y-118893676D02*
X161567714Y-118988914D01*
X161567714Y-118988914D02*
X161472476Y-119036533D01*
X161464809Y-32656819D02*
X161464809Y-31656819D01*
X161464809Y-31656819D02*
X161845761Y-31656819D01*
X161845761Y-31656819D02*
X161940999Y-31704438D01*
X161940999Y-31704438D02*
X161988618Y-31752057D01*
X161988618Y-31752057D02*
X162036237Y-31847295D01*
X162036237Y-31847295D02*
X162036237Y-31990152D01*
X162036237Y-31990152D02*
X161988618Y-32085390D01*
X161988618Y-32085390D02*
X161940999Y-32133009D01*
X161940999Y-32133009D02*
X161845761Y-32180628D01*
X161845761Y-32180628D02*
X161464809Y-32180628D01*
X162607666Y-32656819D02*
X162512428Y-32609200D01*
X162512428Y-32609200D02*
X162464809Y-32561580D01*
X162464809Y-32561580D02*
X162417190Y-32466342D01*
X162417190Y-32466342D02*
X162417190Y-32180628D01*
X162417190Y-32180628D02*
X162464809Y-32085390D01*
X162464809Y-32085390D02*
X162512428Y-32037771D01*
X162512428Y-32037771D02*
X162607666Y-31990152D01*
X162607666Y-31990152D02*
X162750523Y-31990152D01*
X162750523Y-31990152D02*
X162845761Y-32037771D01*
X162845761Y-32037771D02*
X162893380Y-32085390D01*
X162893380Y-32085390D02*
X162940999Y-32180628D01*
X162940999Y-32180628D02*
X162940999Y-32466342D01*
X162940999Y-32466342D02*
X162893380Y-32561580D01*
X162893380Y-32561580D02*
X162845761Y-32609200D01*
X162845761Y-32609200D02*
X162750523Y-32656819D01*
X162750523Y-32656819D02*
X162607666Y-32656819D01*
X163226714Y-31990152D02*
X163607666Y-31990152D01*
X163369571Y-31656819D02*
X163369571Y-32513961D01*
X163369571Y-32513961D02*
X163417190Y-32609200D01*
X163417190Y-32609200D02*
X163512428Y-32656819D01*
X163512428Y-32656819D02*
X163607666Y-32656819D01*
X164369571Y-31990152D02*
X164369571Y-32656819D01*
X164131476Y-31609200D02*
X163893381Y-32323485D01*
X163893381Y-32323485D02*
X164512428Y-32323485D01*
X204300580Y-95416666D02*
X204348200Y-95464285D01*
X204348200Y-95464285D02*
X204395819Y-95607142D01*
X204395819Y-95607142D02*
X204395819Y-95702380D01*
X204395819Y-95702380D02*
X204348200Y-95845237D01*
X204348200Y-95845237D02*
X204252961Y-95940475D01*
X204252961Y-95940475D02*
X204157723Y-95988094D01*
X204157723Y-95988094D02*
X203967247Y-96035713D01*
X203967247Y-96035713D02*
X203824390Y-96035713D01*
X203824390Y-96035713D02*
X203633914Y-95988094D01*
X203633914Y-95988094D02*
X203538676Y-95940475D01*
X203538676Y-95940475D02*
X203443438Y-95845237D01*
X203443438Y-95845237D02*
X203395819Y-95702380D01*
X203395819Y-95702380D02*
X203395819Y-95607142D01*
X203395819Y-95607142D02*
X203443438Y-95464285D01*
X203443438Y-95464285D02*
X203491057Y-95416666D01*
X203824390Y-94845237D02*
X203776771Y-94940475D01*
X203776771Y-94940475D02*
X203729152Y-94988094D01*
X203729152Y-94988094D02*
X203633914Y-95035713D01*
X203633914Y-95035713D02*
X203586295Y-95035713D01*
X203586295Y-95035713D02*
X203491057Y-94988094D01*
X203491057Y-94988094D02*
X203443438Y-94940475D01*
X203443438Y-94940475D02*
X203395819Y-94845237D01*
X203395819Y-94845237D02*
X203395819Y-94654761D01*
X203395819Y-94654761D02*
X203443438Y-94559523D01*
X203443438Y-94559523D02*
X203491057Y-94511904D01*
X203491057Y-94511904D02*
X203586295Y-94464285D01*
X203586295Y-94464285D02*
X203633914Y-94464285D01*
X203633914Y-94464285D02*
X203729152Y-94511904D01*
X203729152Y-94511904D02*
X203776771Y-94559523D01*
X203776771Y-94559523D02*
X203824390Y-94654761D01*
X203824390Y-94654761D02*
X203824390Y-94845237D01*
X203824390Y-94845237D02*
X203872009Y-94940475D01*
X203872009Y-94940475D02*
X203919628Y-94988094D01*
X203919628Y-94988094D02*
X204014866Y-95035713D01*
X204014866Y-95035713D02*
X204205342Y-95035713D01*
X204205342Y-95035713D02*
X204300580Y-94988094D01*
X204300580Y-94988094D02*
X204348200Y-94940475D01*
X204348200Y-94940475D02*
X204395819Y-94845237D01*
X204395819Y-94845237D02*
X204395819Y-94654761D01*
X204395819Y-94654761D02*
X204348200Y-94559523D01*
X204348200Y-94559523D02*
X204300580Y-94511904D01*
X204300580Y-94511904D02*
X204205342Y-94464285D01*
X204205342Y-94464285D02*
X204014866Y-94464285D01*
X204014866Y-94464285D02*
X203919628Y-94511904D01*
X203919628Y-94511904D02*
X203872009Y-94559523D01*
X203872009Y-94559523D02*
X203824390Y-94654761D01*
X133183333Y-104383819D02*
X132850000Y-103907628D01*
X132611905Y-104383819D02*
X132611905Y-103383819D01*
X132611905Y-103383819D02*
X132992857Y-103383819D01*
X132992857Y-103383819D02*
X133088095Y-103431438D01*
X133088095Y-103431438D02*
X133135714Y-103479057D01*
X133135714Y-103479057D02*
X133183333Y-103574295D01*
X133183333Y-103574295D02*
X133183333Y-103717152D01*
X133183333Y-103717152D02*
X133135714Y-103812390D01*
X133135714Y-103812390D02*
X133088095Y-103860009D01*
X133088095Y-103860009D02*
X132992857Y-103907628D01*
X132992857Y-103907628D02*
X132611905Y-103907628D01*
X133516667Y-103383819D02*
X134135714Y-103383819D01*
X134135714Y-103383819D02*
X133802381Y-103764771D01*
X133802381Y-103764771D02*
X133945238Y-103764771D01*
X133945238Y-103764771D02*
X134040476Y-103812390D01*
X134040476Y-103812390D02*
X134088095Y-103860009D01*
X134088095Y-103860009D02*
X134135714Y-103955247D01*
X134135714Y-103955247D02*
X134135714Y-104193342D01*
X134135714Y-104193342D02*
X134088095Y-104288580D01*
X134088095Y-104288580D02*
X134040476Y-104336200D01*
X134040476Y-104336200D02*
X133945238Y-104383819D01*
X133945238Y-104383819D02*
X133659524Y-104383819D01*
X133659524Y-104383819D02*
X133564286Y-104336200D01*
X133564286Y-104336200D02*
X133516667Y-104288580D01*
X193352580Y-115785272D02*
X193400200Y-115832891D01*
X193400200Y-115832891D02*
X193447819Y-115975748D01*
X193447819Y-115975748D02*
X193447819Y-116070986D01*
X193447819Y-116070986D02*
X193400200Y-116213843D01*
X193400200Y-116213843D02*
X193304961Y-116309081D01*
X193304961Y-116309081D02*
X193209723Y-116356700D01*
X193209723Y-116356700D02*
X193019247Y-116404319D01*
X193019247Y-116404319D02*
X192876390Y-116404319D01*
X192876390Y-116404319D02*
X192685914Y-116356700D01*
X192685914Y-116356700D02*
X192590676Y-116309081D01*
X192590676Y-116309081D02*
X192495438Y-116213843D01*
X192495438Y-116213843D02*
X192447819Y-116070986D01*
X192447819Y-116070986D02*
X192447819Y-115975748D01*
X192447819Y-115975748D02*
X192495438Y-115832891D01*
X192495438Y-115832891D02*
X192543057Y-115785272D01*
X192543057Y-115404319D02*
X192495438Y-115356700D01*
X192495438Y-115356700D02*
X192447819Y-115261462D01*
X192447819Y-115261462D02*
X192447819Y-115023367D01*
X192447819Y-115023367D02*
X192495438Y-114928129D01*
X192495438Y-114928129D02*
X192543057Y-114880510D01*
X192543057Y-114880510D02*
X192638295Y-114832891D01*
X192638295Y-114832891D02*
X192733533Y-114832891D01*
X192733533Y-114832891D02*
X192876390Y-114880510D01*
X192876390Y-114880510D02*
X193447819Y-115451938D01*
X193447819Y-115451938D02*
X193447819Y-114832891D01*
X146137333Y-115854819D02*
X145804000Y-115378628D01*
X145565905Y-115854819D02*
X145565905Y-114854819D01*
X145565905Y-114854819D02*
X145946857Y-114854819D01*
X145946857Y-114854819D02*
X146042095Y-114902438D01*
X146042095Y-114902438D02*
X146089714Y-114950057D01*
X146089714Y-114950057D02*
X146137333Y-115045295D01*
X146137333Y-115045295D02*
X146137333Y-115188152D01*
X146137333Y-115188152D02*
X146089714Y-115283390D01*
X146089714Y-115283390D02*
X146042095Y-115331009D01*
X146042095Y-115331009D02*
X145946857Y-115378628D01*
X145946857Y-115378628D02*
X145565905Y-115378628D01*
X146994476Y-115188152D02*
X146994476Y-115854819D01*
X146756381Y-114807200D02*
X146518286Y-115521485D01*
X146518286Y-115521485D02*
X147137333Y-115521485D01*
X142884580Y-82413166D02*
X142932200Y-82460785D01*
X142932200Y-82460785D02*
X142979819Y-82603642D01*
X142979819Y-82603642D02*
X142979819Y-82698880D01*
X142979819Y-82698880D02*
X142932200Y-82841737D01*
X142932200Y-82841737D02*
X142836961Y-82936975D01*
X142836961Y-82936975D02*
X142741723Y-82984594D01*
X142741723Y-82984594D02*
X142551247Y-83032213D01*
X142551247Y-83032213D02*
X142408390Y-83032213D01*
X142408390Y-83032213D02*
X142217914Y-82984594D01*
X142217914Y-82984594D02*
X142122676Y-82936975D01*
X142122676Y-82936975D02*
X142027438Y-82841737D01*
X142027438Y-82841737D02*
X141979819Y-82698880D01*
X141979819Y-82698880D02*
X141979819Y-82603642D01*
X141979819Y-82603642D02*
X142027438Y-82460785D01*
X142027438Y-82460785D02*
X142075057Y-82413166D01*
X141979819Y-81508404D02*
X141979819Y-81984594D01*
X141979819Y-81984594D02*
X142456009Y-82032213D01*
X142456009Y-82032213D02*
X142408390Y-81984594D01*
X142408390Y-81984594D02*
X142360771Y-81889356D01*
X142360771Y-81889356D02*
X142360771Y-81651261D01*
X142360771Y-81651261D02*
X142408390Y-81556023D01*
X142408390Y-81556023D02*
X142456009Y-81508404D01*
X142456009Y-81508404D02*
X142551247Y-81460785D01*
X142551247Y-81460785D02*
X142789342Y-81460785D01*
X142789342Y-81460785D02*
X142884580Y-81508404D01*
X142884580Y-81508404D02*
X142932200Y-81556023D01*
X142932200Y-81556023D02*
X142979819Y-81651261D01*
X142979819Y-81651261D02*
X142979819Y-81889356D01*
X142979819Y-81889356D02*
X142932200Y-81984594D01*
X142932200Y-81984594D02*
X142884580Y-82032213D01*
X128216819Y-71069286D02*
X127216819Y-71069286D01*
X128216819Y-70497858D02*
X127645390Y-70926429D01*
X127216819Y-70497858D02*
X127788247Y-71069286D01*
X128169200Y-69688334D02*
X128216819Y-69783572D01*
X128216819Y-69783572D02*
X128216819Y-69974048D01*
X128216819Y-69974048D02*
X128169200Y-70069286D01*
X128169200Y-70069286D02*
X128073961Y-70116905D01*
X128073961Y-70116905D02*
X127693009Y-70116905D01*
X127693009Y-70116905D02*
X127597771Y-70069286D01*
X127597771Y-70069286D02*
X127550152Y-69974048D01*
X127550152Y-69974048D02*
X127550152Y-69783572D01*
X127550152Y-69783572D02*
X127597771Y-69688334D01*
X127597771Y-69688334D02*
X127693009Y-69640715D01*
X127693009Y-69640715D02*
X127788247Y-69640715D01*
X127788247Y-69640715D02*
X127883485Y-70116905D01*
X127550152Y-69307381D02*
X128216819Y-69069286D01*
X127550152Y-68831191D02*
X128216819Y-69069286D01*
X128216819Y-69069286D02*
X128454914Y-69164524D01*
X128454914Y-69164524D02*
X128502533Y-69212143D01*
X128502533Y-69212143D02*
X128550152Y-69307381D01*
X128216819Y-68450238D02*
X127216819Y-68450238D01*
X127597771Y-68450238D02*
X127550152Y-68355000D01*
X127550152Y-68355000D02*
X127550152Y-68164524D01*
X127550152Y-68164524D02*
X127597771Y-68069286D01*
X127597771Y-68069286D02*
X127645390Y-68021667D01*
X127645390Y-68021667D02*
X127740628Y-67974048D01*
X127740628Y-67974048D02*
X128026342Y-67974048D01*
X128026342Y-67974048D02*
X128121580Y-68021667D01*
X128121580Y-68021667D02*
X128169200Y-68069286D01*
X128169200Y-68069286D02*
X128216819Y-68164524D01*
X128216819Y-68164524D02*
X128216819Y-68355000D01*
X128216819Y-68355000D02*
X128169200Y-68450238D01*
X128216819Y-67402619D02*
X128169200Y-67497857D01*
X128169200Y-67497857D02*
X128121580Y-67545476D01*
X128121580Y-67545476D02*
X128026342Y-67593095D01*
X128026342Y-67593095D02*
X127740628Y-67593095D01*
X127740628Y-67593095D02*
X127645390Y-67545476D01*
X127645390Y-67545476D02*
X127597771Y-67497857D01*
X127597771Y-67497857D02*
X127550152Y-67402619D01*
X127550152Y-67402619D02*
X127550152Y-67259762D01*
X127550152Y-67259762D02*
X127597771Y-67164524D01*
X127597771Y-67164524D02*
X127645390Y-67116905D01*
X127645390Y-67116905D02*
X127740628Y-67069286D01*
X127740628Y-67069286D02*
X128026342Y-67069286D01*
X128026342Y-67069286D02*
X128121580Y-67116905D01*
X128121580Y-67116905D02*
X128169200Y-67164524D01*
X128169200Y-67164524D02*
X128216819Y-67259762D01*
X128216819Y-67259762D02*
X128216819Y-67402619D01*
X128216819Y-66212143D02*
X127693009Y-66212143D01*
X127693009Y-66212143D02*
X127597771Y-66259762D01*
X127597771Y-66259762D02*
X127550152Y-66355000D01*
X127550152Y-66355000D02*
X127550152Y-66545476D01*
X127550152Y-66545476D02*
X127597771Y-66640714D01*
X128169200Y-66212143D02*
X128216819Y-66307381D01*
X128216819Y-66307381D02*
X128216819Y-66545476D01*
X128216819Y-66545476D02*
X128169200Y-66640714D01*
X128169200Y-66640714D02*
X128073961Y-66688333D01*
X128073961Y-66688333D02*
X127978723Y-66688333D01*
X127978723Y-66688333D02*
X127883485Y-66640714D01*
X127883485Y-66640714D02*
X127835866Y-66545476D01*
X127835866Y-66545476D02*
X127835866Y-66307381D01*
X127835866Y-66307381D02*
X127788247Y-66212143D01*
X128216819Y-65735952D02*
X127550152Y-65735952D01*
X127740628Y-65735952D02*
X127645390Y-65688333D01*
X127645390Y-65688333D02*
X127597771Y-65640714D01*
X127597771Y-65640714D02*
X127550152Y-65545476D01*
X127550152Y-65545476D02*
X127550152Y-65450238D01*
X128216819Y-64688333D02*
X127216819Y-64688333D01*
X128169200Y-64688333D02*
X128216819Y-64783571D01*
X128216819Y-64783571D02*
X128216819Y-64974047D01*
X128216819Y-64974047D02*
X128169200Y-65069285D01*
X128169200Y-65069285D02*
X128121580Y-65116904D01*
X128121580Y-65116904D02*
X128026342Y-65164523D01*
X128026342Y-65164523D02*
X127740628Y-65164523D01*
X127740628Y-65164523D02*
X127645390Y-65116904D01*
X127645390Y-65116904D02*
X127597771Y-65069285D01*
X127597771Y-65069285D02*
X127550152Y-64974047D01*
X127550152Y-64974047D02*
X127550152Y-64783571D01*
X127550152Y-64783571D02*
X127597771Y-64688333D01*
X127216819Y-64212142D02*
X128026342Y-64212142D01*
X128026342Y-64212142D02*
X128121580Y-64164523D01*
X128121580Y-64164523D02*
X128169200Y-64116904D01*
X128169200Y-64116904D02*
X128216819Y-64021666D01*
X128216819Y-64021666D02*
X128216819Y-63831190D01*
X128216819Y-63831190D02*
X128169200Y-63735952D01*
X128169200Y-63735952D02*
X128121580Y-63688333D01*
X128121580Y-63688333D02*
X128026342Y-63640714D01*
X128026342Y-63640714D02*
X127216819Y-63640714D01*
X128169200Y-63212142D02*
X128216819Y-63069285D01*
X128216819Y-63069285D02*
X128216819Y-62831190D01*
X128216819Y-62831190D02*
X128169200Y-62735952D01*
X128169200Y-62735952D02*
X128121580Y-62688333D01*
X128121580Y-62688333D02*
X128026342Y-62640714D01*
X128026342Y-62640714D02*
X127931104Y-62640714D01*
X127931104Y-62640714D02*
X127835866Y-62688333D01*
X127835866Y-62688333D02*
X127788247Y-62735952D01*
X127788247Y-62735952D02*
X127740628Y-62831190D01*
X127740628Y-62831190D02*
X127693009Y-63021666D01*
X127693009Y-63021666D02*
X127645390Y-63116904D01*
X127645390Y-63116904D02*
X127597771Y-63164523D01*
X127597771Y-63164523D02*
X127502533Y-63212142D01*
X127502533Y-63212142D02*
X127407295Y-63212142D01*
X127407295Y-63212142D02*
X127312057Y-63164523D01*
X127312057Y-63164523D02*
X127264438Y-63116904D01*
X127264438Y-63116904D02*
X127216819Y-63021666D01*
X127216819Y-63021666D02*
X127216819Y-62783571D01*
X127216819Y-62783571D02*
X127264438Y-62640714D01*
X127693009Y-61878809D02*
X127740628Y-61735952D01*
X127740628Y-61735952D02*
X127788247Y-61688333D01*
X127788247Y-61688333D02*
X127883485Y-61640714D01*
X127883485Y-61640714D02*
X128026342Y-61640714D01*
X128026342Y-61640714D02*
X128121580Y-61688333D01*
X128121580Y-61688333D02*
X128169200Y-61735952D01*
X128169200Y-61735952D02*
X128216819Y-61831190D01*
X128216819Y-61831190D02*
X128216819Y-62212142D01*
X128216819Y-62212142D02*
X127216819Y-62212142D01*
X127216819Y-62212142D02*
X127216819Y-61878809D01*
X127216819Y-61878809D02*
X127264438Y-61783571D01*
X127264438Y-61783571D02*
X127312057Y-61735952D01*
X127312057Y-61735952D02*
X127407295Y-61688333D01*
X127407295Y-61688333D02*
X127502533Y-61688333D01*
X127502533Y-61688333D02*
X127597771Y-61735952D01*
X127597771Y-61735952D02*
X127645390Y-61783571D01*
X127645390Y-61783571D02*
X127693009Y-61878809D01*
X127693009Y-61878809D02*
X127693009Y-62212142D01*
X128216819Y-61212142D02*
X127216819Y-61212142D01*
X127216819Y-61212142D02*
X127216819Y-60831190D01*
X127216819Y-60831190D02*
X127264438Y-60735952D01*
X127264438Y-60735952D02*
X127312057Y-60688333D01*
X127312057Y-60688333D02*
X127407295Y-60640714D01*
X127407295Y-60640714D02*
X127550152Y-60640714D01*
X127550152Y-60640714D02*
X127645390Y-60688333D01*
X127645390Y-60688333D02*
X127693009Y-60735952D01*
X127693009Y-60735952D02*
X127740628Y-60831190D01*
X127740628Y-60831190D02*
X127740628Y-61212142D01*
X128216819Y-60069285D02*
X128169200Y-60164523D01*
X128169200Y-60164523D02*
X128121580Y-60212142D01*
X128121580Y-60212142D02*
X128026342Y-60259761D01*
X128026342Y-60259761D02*
X127740628Y-60259761D01*
X127740628Y-60259761D02*
X127645390Y-60212142D01*
X127645390Y-60212142D02*
X127597771Y-60164523D01*
X127597771Y-60164523D02*
X127550152Y-60069285D01*
X127550152Y-60069285D02*
X127550152Y-59926428D01*
X127550152Y-59926428D02*
X127597771Y-59831190D01*
X127597771Y-59831190D02*
X127645390Y-59783571D01*
X127645390Y-59783571D02*
X127740628Y-59735952D01*
X127740628Y-59735952D02*
X128026342Y-59735952D01*
X128026342Y-59735952D02*
X128121580Y-59783571D01*
X128121580Y-59783571D02*
X128169200Y-59831190D01*
X128169200Y-59831190D02*
X128216819Y-59926428D01*
X128216819Y-59926428D02*
X128216819Y-60069285D01*
X128216819Y-59307380D02*
X127550152Y-59307380D01*
X127740628Y-59307380D02*
X127645390Y-59259761D01*
X127645390Y-59259761D02*
X127597771Y-59212142D01*
X127597771Y-59212142D02*
X127550152Y-59116904D01*
X127550152Y-59116904D02*
X127550152Y-59021666D01*
X127550152Y-58831189D02*
X127550152Y-58450237D01*
X127216819Y-58688332D02*
X128073961Y-58688332D01*
X128073961Y-58688332D02*
X128169200Y-58640713D01*
X128169200Y-58640713D02*
X128216819Y-58545475D01*
X128216819Y-58545475D02*
X128216819Y-58450237D01*
X128216819Y-57593094D02*
X128216819Y-58164522D01*
X128216819Y-57878808D02*
X127216819Y-57878808D01*
X127216819Y-57878808D02*
X127359676Y-57974046D01*
X127359676Y-57974046D02*
X127454914Y-58069284D01*
X127454914Y-58069284D02*
X127502533Y-58164522D01*
X148475333Y-98533319D02*
X148142000Y-98057128D01*
X147903905Y-98533319D02*
X147903905Y-97533319D01*
X147903905Y-97533319D02*
X148284857Y-97533319D01*
X148284857Y-97533319D02*
X148380095Y-97580938D01*
X148380095Y-97580938D02*
X148427714Y-97628557D01*
X148427714Y-97628557D02*
X148475333Y-97723795D01*
X148475333Y-97723795D02*
X148475333Y-97866652D01*
X148475333Y-97866652D02*
X148427714Y-97961890D01*
X148427714Y-97961890D02*
X148380095Y-98009509D01*
X148380095Y-98009509D02*
X148284857Y-98057128D01*
X148284857Y-98057128D02*
X147903905Y-98057128D01*
X149427714Y-98533319D02*
X148856286Y-98533319D01*
X149142000Y-98533319D02*
X149142000Y-97533319D01*
X149142000Y-97533319D02*
X149046762Y-97676176D01*
X149046762Y-97676176D02*
X148951524Y-97771414D01*
X148951524Y-97771414D02*
X148856286Y-97819033D01*
X114935095Y-26607819D02*
X114935095Y-25607819D01*
X114935095Y-26084009D02*
X115506523Y-26084009D01*
X115506523Y-26607819D02*
X115506523Y-25607819D01*
X116506523Y-26607819D02*
X115935095Y-26607819D01*
X116220809Y-26607819D02*
X116220809Y-25607819D01*
X116220809Y-25607819D02*
X116125571Y-25750676D01*
X116125571Y-25750676D02*
X116030333Y-25845914D01*
X116030333Y-25845914D02*
X115935095Y-25893533D01*
X159683142Y-64964319D02*
X159349809Y-64488128D01*
X159111714Y-64964319D02*
X159111714Y-63964319D01*
X159111714Y-63964319D02*
X159492666Y-63964319D01*
X159492666Y-63964319D02*
X159587904Y-64011938D01*
X159587904Y-64011938D02*
X159635523Y-64059557D01*
X159635523Y-64059557D02*
X159683142Y-64154795D01*
X159683142Y-64154795D02*
X159683142Y-64297652D01*
X159683142Y-64297652D02*
X159635523Y-64392890D01*
X159635523Y-64392890D02*
X159587904Y-64440509D01*
X159587904Y-64440509D02*
X159492666Y-64488128D01*
X159492666Y-64488128D02*
X159111714Y-64488128D01*
X160635523Y-64964319D02*
X160064095Y-64964319D01*
X160349809Y-64964319D02*
X160349809Y-63964319D01*
X160349809Y-63964319D02*
X160254571Y-64107176D01*
X160254571Y-64107176D02*
X160159333Y-64202414D01*
X160159333Y-64202414D02*
X160064095Y-64250033D01*
X161254571Y-63964319D02*
X161349809Y-63964319D01*
X161349809Y-63964319D02*
X161445047Y-64011938D01*
X161445047Y-64011938D02*
X161492666Y-64059557D01*
X161492666Y-64059557D02*
X161540285Y-64154795D01*
X161540285Y-64154795D02*
X161587904Y-64345271D01*
X161587904Y-64345271D02*
X161587904Y-64583366D01*
X161587904Y-64583366D02*
X161540285Y-64773842D01*
X161540285Y-64773842D02*
X161492666Y-64869080D01*
X161492666Y-64869080D02*
X161445047Y-64916700D01*
X161445047Y-64916700D02*
X161349809Y-64964319D01*
X161349809Y-64964319D02*
X161254571Y-64964319D01*
X161254571Y-64964319D02*
X161159333Y-64916700D01*
X161159333Y-64916700D02*
X161111714Y-64869080D01*
X161111714Y-64869080D02*
X161064095Y-64773842D01*
X161064095Y-64773842D02*
X161016476Y-64583366D01*
X161016476Y-64583366D02*
X161016476Y-64345271D01*
X161016476Y-64345271D02*
X161064095Y-64154795D01*
X161064095Y-64154795D02*
X161111714Y-64059557D01*
X161111714Y-64059557D02*
X161159333Y-64011938D01*
X161159333Y-64011938D02*
X161254571Y-63964319D01*
X208661095Y-128969819D02*
X208661095Y-127969819D01*
X208661095Y-128446009D02*
X209232523Y-128446009D01*
X209232523Y-128969819D02*
X209232523Y-127969819D01*
X210137285Y-128303152D02*
X210137285Y-128969819D01*
X209899190Y-127922200D02*
X209661095Y-128636485D01*
X209661095Y-128636485D02*
X210280142Y-128636485D01*
X202684142Y-47614819D02*
X202350809Y-47138628D01*
X202112714Y-47614819D02*
X202112714Y-46614819D01*
X202112714Y-46614819D02*
X202493666Y-46614819D01*
X202493666Y-46614819D02*
X202588904Y-46662438D01*
X202588904Y-46662438D02*
X202636523Y-46710057D01*
X202636523Y-46710057D02*
X202684142Y-46805295D01*
X202684142Y-46805295D02*
X202684142Y-46948152D01*
X202684142Y-46948152D02*
X202636523Y-47043390D01*
X202636523Y-47043390D02*
X202588904Y-47091009D01*
X202588904Y-47091009D02*
X202493666Y-47138628D01*
X202493666Y-47138628D02*
X202112714Y-47138628D01*
X203065095Y-46710057D02*
X203112714Y-46662438D01*
X203112714Y-46662438D02*
X203207952Y-46614819D01*
X203207952Y-46614819D02*
X203446047Y-46614819D01*
X203446047Y-46614819D02*
X203541285Y-46662438D01*
X203541285Y-46662438D02*
X203588904Y-46710057D01*
X203588904Y-46710057D02*
X203636523Y-46805295D01*
X203636523Y-46805295D02*
X203636523Y-46900533D01*
X203636523Y-46900533D02*
X203588904Y-47043390D01*
X203588904Y-47043390D02*
X203017476Y-47614819D01*
X203017476Y-47614819D02*
X203636523Y-47614819D01*
X204541285Y-46614819D02*
X204065095Y-46614819D01*
X204065095Y-46614819D02*
X204017476Y-47091009D01*
X204017476Y-47091009D02*
X204065095Y-47043390D01*
X204065095Y-47043390D02*
X204160333Y-46995771D01*
X204160333Y-46995771D02*
X204398428Y-46995771D01*
X204398428Y-46995771D02*
X204493666Y-47043390D01*
X204493666Y-47043390D02*
X204541285Y-47091009D01*
X204541285Y-47091009D02*
X204588904Y-47186247D01*
X204588904Y-47186247D02*
X204588904Y-47424342D01*
X204588904Y-47424342D02*
X204541285Y-47519580D01*
X204541285Y-47519580D02*
X204493666Y-47567200D01*
X204493666Y-47567200D02*
X204398428Y-47614819D01*
X204398428Y-47614819D02*
X204160333Y-47614819D01*
X204160333Y-47614819D02*
X204065095Y-47567200D01*
X204065095Y-47567200D02*
X204017476Y-47519580D01*
X150504580Y-82413166D02*
X150552200Y-82460785D01*
X150552200Y-82460785D02*
X150599819Y-82603642D01*
X150599819Y-82603642D02*
X150599819Y-82698880D01*
X150599819Y-82698880D02*
X150552200Y-82841737D01*
X150552200Y-82841737D02*
X150456961Y-82936975D01*
X150456961Y-82936975D02*
X150361723Y-82984594D01*
X150361723Y-82984594D02*
X150171247Y-83032213D01*
X150171247Y-83032213D02*
X150028390Y-83032213D01*
X150028390Y-83032213D02*
X149837914Y-82984594D01*
X149837914Y-82984594D02*
X149742676Y-82936975D01*
X149742676Y-82936975D02*
X149647438Y-82841737D01*
X149647438Y-82841737D02*
X149599819Y-82698880D01*
X149599819Y-82698880D02*
X149599819Y-82603642D01*
X149599819Y-82603642D02*
X149647438Y-82460785D01*
X149647438Y-82460785D02*
X149695057Y-82413166D01*
X149599819Y-82079832D02*
X149599819Y-81460785D01*
X149599819Y-81460785D02*
X149980771Y-81794118D01*
X149980771Y-81794118D02*
X149980771Y-81651261D01*
X149980771Y-81651261D02*
X150028390Y-81556023D01*
X150028390Y-81556023D02*
X150076009Y-81508404D01*
X150076009Y-81508404D02*
X150171247Y-81460785D01*
X150171247Y-81460785D02*
X150409342Y-81460785D01*
X150409342Y-81460785D02*
X150504580Y-81508404D01*
X150504580Y-81508404D02*
X150552200Y-81556023D01*
X150552200Y-81556023D02*
X150599819Y-81651261D01*
X150599819Y-81651261D02*
X150599819Y-81936975D01*
X150599819Y-81936975D02*
X150552200Y-82032213D01*
X150552200Y-82032213D02*
X150504580Y-82079832D01*
X132707142Y-98033819D02*
X132373809Y-97557628D01*
X132135714Y-98033819D02*
X132135714Y-97033819D01*
X132135714Y-97033819D02*
X132516666Y-97033819D01*
X132516666Y-97033819D02*
X132611904Y-97081438D01*
X132611904Y-97081438D02*
X132659523Y-97129057D01*
X132659523Y-97129057D02*
X132707142Y-97224295D01*
X132707142Y-97224295D02*
X132707142Y-97367152D01*
X132707142Y-97367152D02*
X132659523Y-97462390D01*
X132659523Y-97462390D02*
X132611904Y-97510009D01*
X132611904Y-97510009D02*
X132516666Y-97557628D01*
X132516666Y-97557628D02*
X132135714Y-97557628D01*
X133040476Y-97033819D02*
X133659523Y-97033819D01*
X133659523Y-97033819D02*
X133326190Y-97414771D01*
X133326190Y-97414771D02*
X133469047Y-97414771D01*
X133469047Y-97414771D02*
X133564285Y-97462390D01*
X133564285Y-97462390D02*
X133611904Y-97510009D01*
X133611904Y-97510009D02*
X133659523Y-97605247D01*
X133659523Y-97605247D02*
X133659523Y-97843342D01*
X133659523Y-97843342D02*
X133611904Y-97938580D01*
X133611904Y-97938580D02*
X133564285Y-97986200D01*
X133564285Y-97986200D02*
X133469047Y-98033819D01*
X133469047Y-98033819D02*
X133183333Y-98033819D01*
X133183333Y-98033819D02*
X133088095Y-97986200D01*
X133088095Y-97986200D02*
X133040476Y-97938580D01*
X134278571Y-97033819D02*
X134373809Y-97033819D01*
X134373809Y-97033819D02*
X134469047Y-97081438D01*
X134469047Y-97081438D02*
X134516666Y-97129057D01*
X134516666Y-97129057D02*
X134564285Y-97224295D01*
X134564285Y-97224295D02*
X134611904Y-97414771D01*
X134611904Y-97414771D02*
X134611904Y-97652866D01*
X134611904Y-97652866D02*
X134564285Y-97843342D01*
X134564285Y-97843342D02*
X134516666Y-97938580D01*
X134516666Y-97938580D02*
X134469047Y-97986200D01*
X134469047Y-97986200D02*
X134373809Y-98033819D01*
X134373809Y-98033819D02*
X134278571Y-98033819D01*
X134278571Y-98033819D02*
X134183333Y-97986200D01*
X134183333Y-97986200D02*
X134135714Y-97938580D01*
X134135714Y-97938580D02*
X134088095Y-97843342D01*
X134088095Y-97843342D02*
X134040476Y-97652866D01*
X134040476Y-97652866D02*
X134040476Y-97414771D01*
X134040476Y-97414771D02*
X134088095Y-97224295D01*
X134088095Y-97224295D02*
X134135714Y-97129057D01*
X134135714Y-97129057D02*
X134183333Y-97081438D01*
X134183333Y-97081438D02*
X134278571Y-97033819D01*
X158124580Y-82413166D02*
X158172200Y-82460785D01*
X158172200Y-82460785D02*
X158219819Y-82603642D01*
X158219819Y-82603642D02*
X158219819Y-82698880D01*
X158219819Y-82698880D02*
X158172200Y-82841737D01*
X158172200Y-82841737D02*
X158076961Y-82936975D01*
X158076961Y-82936975D02*
X157981723Y-82984594D01*
X157981723Y-82984594D02*
X157791247Y-83032213D01*
X157791247Y-83032213D02*
X157648390Y-83032213D01*
X157648390Y-83032213D02*
X157457914Y-82984594D01*
X157457914Y-82984594D02*
X157362676Y-82936975D01*
X157362676Y-82936975D02*
X157267438Y-82841737D01*
X157267438Y-82841737D02*
X157219819Y-82698880D01*
X157219819Y-82698880D02*
X157219819Y-82603642D01*
X157219819Y-82603642D02*
X157267438Y-82460785D01*
X157267438Y-82460785D02*
X157315057Y-82413166D01*
X158219819Y-81460785D02*
X158219819Y-82032213D01*
X158219819Y-81746499D02*
X157219819Y-81746499D01*
X157219819Y-81746499D02*
X157362676Y-81841737D01*
X157362676Y-81841737D02*
X157457914Y-81936975D01*
X157457914Y-81936975D02*
X157505533Y-82032213D01*
X167886142Y-110436819D02*
X167552809Y-109960628D01*
X167314714Y-110436819D02*
X167314714Y-109436819D01*
X167314714Y-109436819D02*
X167695666Y-109436819D01*
X167695666Y-109436819D02*
X167790904Y-109484438D01*
X167790904Y-109484438D02*
X167838523Y-109532057D01*
X167838523Y-109532057D02*
X167886142Y-109627295D01*
X167886142Y-109627295D02*
X167886142Y-109770152D01*
X167886142Y-109770152D02*
X167838523Y-109865390D01*
X167838523Y-109865390D02*
X167790904Y-109913009D01*
X167790904Y-109913009D02*
X167695666Y-109960628D01*
X167695666Y-109960628D02*
X167314714Y-109960628D01*
X168838523Y-110436819D02*
X168267095Y-110436819D01*
X168552809Y-110436819D02*
X168552809Y-109436819D01*
X168552809Y-109436819D02*
X168457571Y-109579676D01*
X168457571Y-109579676D02*
X168362333Y-109674914D01*
X168362333Y-109674914D02*
X168267095Y-109722533D01*
X169695666Y-109770152D02*
X169695666Y-110436819D01*
X169457571Y-109389200D02*
X169219476Y-110103485D01*
X169219476Y-110103485D02*
X169838523Y-110103485D01*
X119173809Y-87830819D02*
X119173809Y-86830819D01*
X119173809Y-86830819D02*
X119554761Y-86830819D01*
X119554761Y-86830819D02*
X119649999Y-86878438D01*
X119649999Y-86878438D02*
X119697618Y-86926057D01*
X119697618Y-86926057D02*
X119745237Y-87021295D01*
X119745237Y-87021295D02*
X119745237Y-87164152D01*
X119745237Y-87164152D02*
X119697618Y-87259390D01*
X119697618Y-87259390D02*
X119649999Y-87307009D01*
X119649999Y-87307009D02*
X119554761Y-87354628D01*
X119554761Y-87354628D02*
X119173809Y-87354628D01*
X120316666Y-87830819D02*
X120221428Y-87783200D01*
X120221428Y-87783200D02*
X120173809Y-87735580D01*
X120173809Y-87735580D02*
X120126190Y-87640342D01*
X120126190Y-87640342D02*
X120126190Y-87354628D01*
X120126190Y-87354628D02*
X120173809Y-87259390D01*
X120173809Y-87259390D02*
X120221428Y-87211771D01*
X120221428Y-87211771D02*
X120316666Y-87164152D01*
X120316666Y-87164152D02*
X120459523Y-87164152D01*
X120459523Y-87164152D02*
X120554761Y-87211771D01*
X120554761Y-87211771D02*
X120602380Y-87259390D01*
X120602380Y-87259390D02*
X120649999Y-87354628D01*
X120649999Y-87354628D02*
X120649999Y-87640342D01*
X120649999Y-87640342D02*
X120602380Y-87735580D01*
X120602380Y-87735580D02*
X120554761Y-87783200D01*
X120554761Y-87783200D02*
X120459523Y-87830819D01*
X120459523Y-87830819D02*
X120316666Y-87830819D01*
X120935714Y-87164152D02*
X121316666Y-87164152D01*
X121078571Y-86830819D02*
X121078571Y-87687961D01*
X121078571Y-87687961D02*
X121126190Y-87783200D01*
X121126190Y-87783200D02*
X121221428Y-87830819D01*
X121221428Y-87830819D02*
X121316666Y-87830819D01*
X121792857Y-87259390D02*
X121697619Y-87211771D01*
X121697619Y-87211771D02*
X121650000Y-87164152D01*
X121650000Y-87164152D02*
X121602381Y-87068914D01*
X121602381Y-87068914D02*
X121602381Y-87021295D01*
X121602381Y-87021295D02*
X121650000Y-86926057D01*
X121650000Y-86926057D02*
X121697619Y-86878438D01*
X121697619Y-86878438D02*
X121792857Y-86830819D01*
X121792857Y-86830819D02*
X121983333Y-86830819D01*
X121983333Y-86830819D02*
X122078571Y-86878438D01*
X122078571Y-86878438D02*
X122126190Y-86926057D01*
X122126190Y-86926057D02*
X122173809Y-87021295D01*
X122173809Y-87021295D02*
X122173809Y-87068914D01*
X122173809Y-87068914D02*
X122126190Y-87164152D01*
X122126190Y-87164152D02*
X122078571Y-87211771D01*
X122078571Y-87211771D02*
X121983333Y-87259390D01*
X121983333Y-87259390D02*
X121792857Y-87259390D01*
X121792857Y-87259390D02*
X121697619Y-87307009D01*
X121697619Y-87307009D02*
X121650000Y-87354628D01*
X121650000Y-87354628D02*
X121602381Y-87449866D01*
X121602381Y-87449866D02*
X121602381Y-87640342D01*
X121602381Y-87640342D02*
X121650000Y-87735580D01*
X121650000Y-87735580D02*
X121697619Y-87783200D01*
X121697619Y-87783200D02*
X121792857Y-87830819D01*
X121792857Y-87830819D02*
X121983333Y-87830819D01*
X121983333Y-87830819D02*
X122078571Y-87783200D01*
X122078571Y-87783200D02*
X122126190Y-87735580D01*
X122126190Y-87735580D02*
X122173809Y-87640342D01*
X122173809Y-87640342D02*
X122173809Y-87449866D01*
X122173809Y-87449866D02*
X122126190Y-87354628D01*
X122126190Y-87354628D02*
X122078571Y-87307009D01*
X122078571Y-87307009D02*
X121983333Y-87259390D01*
X179752809Y-32636819D02*
X179752809Y-31636819D01*
X179752809Y-31636819D02*
X180133761Y-31636819D01*
X180133761Y-31636819D02*
X180228999Y-31684438D01*
X180228999Y-31684438D02*
X180276618Y-31732057D01*
X180276618Y-31732057D02*
X180324237Y-31827295D01*
X180324237Y-31827295D02*
X180324237Y-31970152D01*
X180324237Y-31970152D02*
X180276618Y-32065390D01*
X180276618Y-32065390D02*
X180228999Y-32113009D01*
X180228999Y-32113009D02*
X180133761Y-32160628D01*
X180133761Y-32160628D02*
X179752809Y-32160628D01*
X180895666Y-32636819D02*
X180800428Y-32589200D01*
X180800428Y-32589200D02*
X180752809Y-32541580D01*
X180752809Y-32541580D02*
X180705190Y-32446342D01*
X180705190Y-32446342D02*
X180705190Y-32160628D01*
X180705190Y-32160628D02*
X180752809Y-32065390D01*
X180752809Y-32065390D02*
X180800428Y-32017771D01*
X180800428Y-32017771D02*
X180895666Y-31970152D01*
X180895666Y-31970152D02*
X181038523Y-31970152D01*
X181038523Y-31970152D02*
X181133761Y-32017771D01*
X181133761Y-32017771D02*
X181181380Y-32065390D01*
X181181380Y-32065390D02*
X181228999Y-32160628D01*
X181228999Y-32160628D02*
X181228999Y-32446342D01*
X181228999Y-32446342D02*
X181181380Y-32541580D01*
X181181380Y-32541580D02*
X181133761Y-32589200D01*
X181133761Y-32589200D02*
X181038523Y-32636819D01*
X181038523Y-32636819D02*
X180895666Y-32636819D01*
X181514714Y-31970152D02*
X181895666Y-31970152D01*
X181657571Y-31636819D02*
X181657571Y-32493961D01*
X181657571Y-32493961D02*
X181705190Y-32589200D01*
X181705190Y-32589200D02*
X181800428Y-32636819D01*
X181800428Y-32636819D02*
X181895666Y-32636819D01*
X182181381Y-31732057D02*
X182229000Y-31684438D01*
X182229000Y-31684438D02*
X182324238Y-31636819D01*
X182324238Y-31636819D02*
X182562333Y-31636819D01*
X182562333Y-31636819D02*
X182657571Y-31684438D01*
X182657571Y-31684438D02*
X182705190Y-31732057D01*
X182705190Y-31732057D02*
X182752809Y-31827295D01*
X182752809Y-31827295D02*
X182752809Y-31922533D01*
X182752809Y-31922533D02*
X182705190Y-32065390D01*
X182705190Y-32065390D02*
X182133762Y-32636819D01*
X182133762Y-32636819D02*
X182752809Y-32636819D01*
X170608809Y-32636819D02*
X170608809Y-31636819D01*
X170608809Y-31636819D02*
X170989761Y-31636819D01*
X170989761Y-31636819D02*
X171084999Y-31684438D01*
X171084999Y-31684438D02*
X171132618Y-31732057D01*
X171132618Y-31732057D02*
X171180237Y-31827295D01*
X171180237Y-31827295D02*
X171180237Y-31970152D01*
X171180237Y-31970152D02*
X171132618Y-32065390D01*
X171132618Y-32065390D02*
X171084999Y-32113009D01*
X171084999Y-32113009D02*
X170989761Y-32160628D01*
X170989761Y-32160628D02*
X170608809Y-32160628D01*
X171751666Y-32636819D02*
X171656428Y-32589200D01*
X171656428Y-32589200D02*
X171608809Y-32541580D01*
X171608809Y-32541580D02*
X171561190Y-32446342D01*
X171561190Y-32446342D02*
X171561190Y-32160628D01*
X171561190Y-32160628D02*
X171608809Y-32065390D01*
X171608809Y-32065390D02*
X171656428Y-32017771D01*
X171656428Y-32017771D02*
X171751666Y-31970152D01*
X171751666Y-31970152D02*
X171894523Y-31970152D01*
X171894523Y-31970152D02*
X171989761Y-32017771D01*
X171989761Y-32017771D02*
X172037380Y-32065390D01*
X172037380Y-32065390D02*
X172084999Y-32160628D01*
X172084999Y-32160628D02*
X172084999Y-32446342D01*
X172084999Y-32446342D02*
X172037380Y-32541580D01*
X172037380Y-32541580D02*
X171989761Y-32589200D01*
X171989761Y-32589200D02*
X171894523Y-32636819D01*
X171894523Y-32636819D02*
X171751666Y-32636819D01*
X172370714Y-31970152D02*
X172751666Y-31970152D01*
X172513571Y-31636819D02*
X172513571Y-32493961D01*
X172513571Y-32493961D02*
X172561190Y-32589200D01*
X172561190Y-32589200D02*
X172656428Y-32636819D01*
X172656428Y-32636819D02*
X172751666Y-32636819D01*
X172989762Y-31636819D02*
X173608809Y-31636819D01*
X173608809Y-31636819D02*
X173275476Y-32017771D01*
X173275476Y-32017771D02*
X173418333Y-32017771D01*
X173418333Y-32017771D02*
X173513571Y-32065390D01*
X173513571Y-32065390D02*
X173561190Y-32113009D01*
X173561190Y-32113009D02*
X173608809Y-32208247D01*
X173608809Y-32208247D02*
X173608809Y-32446342D01*
X173608809Y-32446342D02*
X173561190Y-32541580D01*
X173561190Y-32541580D02*
X173513571Y-32589200D01*
X173513571Y-32589200D02*
X173418333Y-32636819D01*
X173418333Y-32636819D02*
X173132619Y-32636819D01*
X173132619Y-32636819D02*
X173037381Y-32589200D01*
X173037381Y-32589200D02*
X172989762Y-32541580D01*
X209961819Y-84843857D02*
X209485628Y-85177190D01*
X209961819Y-85415285D02*
X208961819Y-85415285D01*
X208961819Y-85415285D02*
X208961819Y-85034333D01*
X208961819Y-85034333D02*
X209009438Y-84939095D01*
X209009438Y-84939095D02*
X209057057Y-84891476D01*
X209057057Y-84891476D02*
X209152295Y-84843857D01*
X209152295Y-84843857D02*
X209295152Y-84843857D01*
X209295152Y-84843857D02*
X209390390Y-84891476D01*
X209390390Y-84891476D02*
X209438009Y-84939095D01*
X209438009Y-84939095D02*
X209485628Y-85034333D01*
X209485628Y-85034333D02*
X209485628Y-85415285D01*
X209961819Y-83891476D02*
X209961819Y-84462904D01*
X209961819Y-84177190D02*
X208961819Y-84177190D01*
X208961819Y-84177190D02*
X209104676Y-84272428D01*
X209104676Y-84272428D02*
X209199914Y-84367666D01*
X209199914Y-84367666D02*
X209247533Y-84462904D01*
X208961819Y-83558142D02*
X208961819Y-82939095D01*
X208961819Y-82939095D02*
X209342771Y-83272428D01*
X209342771Y-83272428D02*
X209342771Y-83129571D01*
X209342771Y-83129571D02*
X209390390Y-83034333D01*
X209390390Y-83034333D02*
X209438009Y-82986714D01*
X209438009Y-82986714D02*
X209533247Y-82939095D01*
X209533247Y-82939095D02*
X209771342Y-82939095D01*
X209771342Y-82939095D02*
X209866580Y-82986714D01*
X209866580Y-82986714D02*
X209914200Y-83034333D01*
X209914200Y-83034333D02*
X209961819Y-83129571D01*
X209961819Y-83129571D02*
X209961819Y-83415285D01*
X209961819Y-83415285D02*
X209914200Y-83510523D01*
X209914200Y-83510523D02*
X209866580Y-83558142D01*
X129486819Y-55856976D02*
X128486819Y-55856976D01*
X128486819Y-55856976D02*
X128486819Y-55476024D01*
X128486819Y-55476024D02*
X128534438Y-55380786D01*
X128534438Y-55380786D02*
X128582057Y-55333167D01*
X128582057Y-55333167D02*
X128677295Y-55285548D01*
X128677295Y-55285548D02*
X128820152Y-55285548D01*
X128820152Y-55285548D02*
X128915390Y-55333167D01*
X128915390Y-55333167D02*
X128963009Y-55380786D01*
X128963009Y-55380786D02*
X129010628Y-55476024D01*
X129010628Y-55476024D02*
X129010628Y-55856976D01*
X129486819Y-54856976D02*
X128820152Y-54856976D01*
X129010628Y-54856976D02*
X128915390Y-54809357D01*
X128915390Y-54809357D02*
X128867771Y-54761738D01*
X128867771Y-54761738D02*
X128820152Y-54666500D01*
X128820152Y-54666500D02*
X128820152Y-54571262D01*
X129486819Y-54095071D02*
X129439200Y-54190309D01*
X129439200Y-54190309D02*
X129391580Y-54237928D01*
X129391580Y-54237928D02*
X129296342Y-54285547D01*
X129296342Y-54285547D02*
X129010628Y-54285547D01*
X129010628Y-54285547D02*
X128915390Y-54237928D01*
X128915390Y-54237928D02*
X128867771Y-54190309D01*
X128867771Y-54190309D02*
X128820152Y-54095071D01*
X128820152Y-54095071D02*
X128820152Y-53952214D01*
X128820152Y-53952214D02*
X128867771Y-53856976D01*
X128867771Y-53856976D02*
X128915390Y-53809357D01*
X128915390Y-53809357D02*
X129010628Y-53761738D01*
X129010628Y-53761738D02*
X129296342Y-53761738D01*
X129296342Y-53761738D02*
X129391580Y-53809357D01*
X129391580Y-53809357D02*
X129439200Y-53856976D01*
X129439200Y-53856976D02*
X129486819Y-53952214D01*
X129486819Y-53952214D02*
X129486819Y-54095071D01*
X128820152Y-52904595D02*
X129629676Y-52904595D01*
X129629676Y-52904595D02*
X129724914Y-52952214D01*
X129724914Y-52952214D02*
X129772533Y-52999833D01*
X129772533Y-52999833D02*
X129820152Y-53095071D01*
X129820152Y-53095071D02*
X129820152Y-53237928D01*
X129820152Y-53237928D02*
X129772533Y-53333166D01*
X129439200Y-52904595D02*
X129486819Y-52999833D01*
X129486819Y-52999833D02*
X129486819Y-53190309D01*
X129486819Y-53190309D02*
X129439200Y-53285547D01*
X129439200Y-53285547D02*
X129391580Y-53333166D01*
X129391580Y-53333166D02*
X129296342Y-53380785D01*
X129296342Y-53380785D02*
X129010628Y-53380785D01*
X129010628Y-53380785D02*
X128915390Y-53333166D01*
X128915390Y-53333166D02*
X128867771Y-53285547D01*
X128867771Y-53285547D02*
X128820152Y-53190309D01*
X128820152Y-53190309D02*
X128820152Y-52999833D01*
X128820152Y-52999833D02*
X128867771Y-52904595D01*
X129486819Y-52428404D02*
X128820152Y-52428404D01*
X129010628Y-52428404D02*
X128915390Y-52380785D01*
X128915390Y-52380785D02*
X128867771Y-52333166D01*
X128867771Y-52333166D02*
X128820152Y-52237928D01*
X128820152Y-52237928D02*
X128820152Y-52142690D01*
X129486819Y-51380785D02*
X128963009Y-51380785D01*
X128963009Y-51380785D02*
X128867771Y-51428404D01*
X128867771Y-51428404D02*
X128820152Y-51523642D01*
X128820152Y-51523642D02*
X128820152Y-51714118D01*
X128820152Y-51714118D02*
X128867771Y-51809356D01*
X129439200Y-51380785D02*
X129486819Y-51476023D01*
X129486819Y-51476023D02*
X129486819Y-51714118D01*
X129486819Y-51714118D02*
X129439200Y-51809356D01*
X129439200Y-51809356D02*
X129343961Y-51856975D01*
X129343961Y-51856975D02*
X129248723Y-51856975D01*
X129248723Y-51856975D02*
X129153485Y-51809356D01*
X129153485Y-51809356D02*
X129105866Y-51714118D01*
X129105866Y-51714118D02*
X129105866Y-51476023D01*
X129105866Y-51476023D02*
X129058247Y-51380785D01*
X129486819Y-50904594D02*
X128820152Y-50904594D01*
X128915390Y-50904594D02*
X128867771Y-50856975D01*
X128867771Y-50856975D02*
X128820152Y-50761737D01*
X128820152Y-50761737D02*
X128820152Y-50618880D01*
X128820152Y-50618880D02*
X128867771Y-50523642D01*
X128867771Y-50523642D02*
X128963009Y-50476023D01*
X128963009Y-50476023D02*
X129486819Y-50476023D01*
X128963009Y-50476023D02*
X128867771Y-50428404D01*
X128867771Y-50428404D02*
X128820152Y-50333166D01*
X128820152Y-50333166D02*
X128820152Y-50190309D01*
X128820152Y-50190309D02*
X128867771Y-50095070D01*
X128867771Y-50095070D02*
X128963009Y-50047451D01*
X128963009Y-50047451D02*
X129486819Y-50047451D01*
X129486819Y-49571261D02*
X128820152Y-49571261D01*
X128915390Y-49571261D02*
X128867771Y-49523642D01*
X128867771Y-49523642D02*
X128820152Y-49428404D01*
X128820152Y-49428404D02*
X128820152Y-49285547D01*
X128820152Y-49285547D02*
X128867771Y-49190309D01*
X128867771Y-49190309D02*
X128963009Y-49142690D01*
X128963009Y-49142690D02*
X129486819Y-49142690D01*
X128963009Y-49142690D02*
X128867771Y-49095071D01*
X128867771Y-49095071D02*
X128820152Y-48999833D01*
X128820152Y-48999833D02*
X128820152Y-48856976D01*
X128820152Y-48856976D02*
X128867771Y-48761737D01*
X128867771Y-48761737D02*
X128963009Y-48714118D01*
X128963009Y-48714118D02*
X129486819Y-48714118D01*
X129486819Y-47809357D02*
X128963009Y-47809357D01*
X128963009Y-47809357D02*
X128867771Y-47856976D01*
X128867771Y-47856976D02*
X128820152Y-47952214D01*
X128820152Y-47952214D02*
X128820152Y-48142690D01*
X128820152Y-48142690D02*
X128867771Y-48237928D01*
X129439200Y-47809357D02*
X129486819Y-47904595D01*
X129486819Y-47904595D02*
X129486819Y-48142690D01*
X129486819Y-48142690D02*
X129439200Y-48237928D01*
X129439200Y-48237928D02*
X129343961Y-48285547D01*
X129343961Y-48285547D02*
X129248723Y-48285547D01*
X129248723Y-48285547D02*
X129153485Y-48237928D01*
X129153485Y-48237928D02*
X129105866Y-48142690D01*
X129105866Y-48142690D02*
X129105866Y-47904595D01*
X129105866Y-47904595D02*
X129058247Y-47809357D01*
X129486819Y-47333166D02*
X128486819Y-47333166D01*
X128867771Y-47333166D02*
X128820152Y-47237928D01*
X128820152Y-47237928D02*
X128820152Y-47047452D01*
X128820152Y-47047452D02*
X128867771Y-46952214D01*
X128867771Y-46952214D02*
X128915390Y-46904595D01*
X128915390Y-46904595D02*
X129010628Y-46856976D01*
X129010628Y-46856976D02*
X129296342Y-46856976D01*
X129296342Y-46856976D02*
X129391580Y-46904595D01*
X129391580Y-46904595D02*
X129439200Y-46952214D01*
X129439200Y-46952214D02*
X129486819Y-47047452D01*
X129486819Y-47047452D02*
X129486819Y-47237928D01*
X129486819Y-47237928D02*
X129439200Y-47333166D01*
X129486819Y-46285547D02*
X129439200Y-46380785D01*
X129439200Y-46380785D02*
X129343961Y-46428404D01*
X129343961Y-46428404D02*
X128486819Y-46428404D01*
X129439200Y-45523642D02*
X129486819Y-45618880D01*
X129486819Y-45618880D02*
X129486819Y-45809356D01*
X129486819Y-45809356D02*
X129439200Y-45904594D01*
X129439200Y-45904594D02*
X129343961Y-45952213D01*
X129343961Y-45952213D02*
X128963009Y-45952213D01*
X128963009Y-45952213D02*
X128867771Y-45904594D01*
X128867771Y-45904594D02*
X128820152Y-45809356D01*
X128820152Y-45809356D02*
X128820152Y-45618880D01*
X128820152Y-45618880D02*
X128867771Y-45523642D01*
X128867771Y-45523642D02*
X128963009Y-45476023D01*
X128963009Y-45476023D02*
X129058247Y-45476023D01*
X129058247Y-45476023D02*
X129153485Y-45952213D01*
X128486819Y-45047451D02*
X129296342Y-45047451D01*
X129296342Y-45047451D02*
X129391580Y-44999832D01*
X129391580Y-44999832D02*
X129439200Y-44952213D01*
X129439200Y-44952213D02*
X129486819Y-44856975D01*
X129486819Y-44856975D02*
X129486819Y-44666499D01*
X129486819Y-44666499D02*
X129439200Y-44571261D01*
X129439200Y-44571261D02*
X129391580Y-44523642D01*
X129391580Y-44523642D02*
X129296342Y-44476023D01*
X129296342Y-44476023D02*
X128486819Y-44476023D01*
X129439200Y-44047451D02*
X129486819Y-43904594D01*
X129486819Y-43904594D02*
X129486819Y-43666499D01*
X129486819Y-43666499D02*
X129439200Y-43571261D01*
X129439200Y-43571261D02*
X129391580Y-43523642D01*
X129391580Y-43523642D02*
X129296342Y-43476023D01*
X129296342Y-43476023D02*
X129201104Y-43476023D01*
X129201104Y-43476023D02*
X129105866Y-43523642D01*
X129105866Y-43523642D02*
X129058247Y-43571261D01*
X129058247Y-43571261D02*
X129010628Y-43666499D01*
X129010628Y-43666499D02*
X128963009Y-43856975D01*
X128963009Y-43856975D02*
X128915390Y-43952213D01*
X128915390Y-43952213D02*
X128867771Y-43999832D01*
X128867771Y-43999832D02*
X128772533Y-44047451D01*
X128772533Y-44047451D02*
X128677295Y-44047451D01*
X128677295Y-44047451D02*
X128582057Y-43999832D01*
X128582057Y-43999832D02*
X128534438Y-43952213D01*
X128534438Y-43952213D02*
X128486819Y-43856975D01*
X128486819Y-43856975D02*
X128486819Y-43618880D01*
X128486819Y-43618880D02*
X128534438Y-43476023D01*
X128963009Y-42714118D02*
X129010628Y-42571261D01*
X129010628Y-42571261D02*
X129058247Y-42523642D01*
X129058247Y-42523642D02*
X129153485Y-42476023D01*
X129153485Y-42476023D02*
X129296342Y-42476023D01*
X129296342Y-42476023D02*
X129391580Y-42523642D01*
X129391580Y-42523642D02*
X129439200Y-42571261D01*
X129439200Y-42571261D02*
X129486819Y-42666499D01*
X129486819Y-42666499D02*
X129486819Y-43047451D01*
X129486819Y-43047451D02*
X128486819Y-43047451D01*
X128486819Y-43047451D02*
X128486819Y-42714118D01*
X128486819Y-42714118D02*
X128534438Y-42618880D01*
X128534438Y-42618880D02*
X128582057Y-42571261D01*
X128582057Y-42571261D02*
X128677295Y-42523642D01*
X128677295Y-42523642D02*
X128772533Y-42523642D01*
X128772533Y-42523642D02*
X128867771Y-42571261D01*
X128867771Y-42571261D02*
X128915390Y-42618880D01*
X128915390Y-42618880D02*
X128963009Y-42714118D01*
X128963009Y-42714118D02*
X128963009Y-43047451D01*
X129486819Y-42047451D02*
X128486819Y-42047451D01*
X128486819Y-42047451D02*
X128486819Y-41666499D01*
X128486819Y-41666499D02*
X128534438Y-41571261D01*
X128534438Y-41571261D02*
X128582057Y-41523642D01*
X128582057Y-41523642D02*
X128677295Y-41476023D01*
X128677295Y-41476023D02*
X128820152Y-41476023D01*
X128820152Y-41476023D02*
X128915390Y-41523642D01*
X128915390Y-41523642D02*
X128963009Y-41571261D01*
X128963009Y-41571261D02*
X129010628Y-41666499D01*
X129010628Y-41666499D02*
X129010628Y-42047451D01*
X129486819Y-40904594D02*
X129439200Y-40999832D01*
X129439200Y-40999832D02*
X129391580Y-41047451D01*
X129391580Y-41047451D02*
X129296342Y-41095070D01*
X129296342Y-41095070D02*
X129010628Y-41095070D01*
X129010628Y-41095070D02*
X128915390Y-41047451D01*
X128915390Y-41047451D02*
X128867771Y-40999832D01*
X128867771Y-40999832D02*
X128820152Y-40904594D01*
X128820152Y-40904594D02*
X128820152Y-40761737D01*
X128820152Y-40761737D02*
X128867771Y-40666499D01*
X128867771Y-40666499D02*
X128915390Y-40618880D01*
X128915390Y-40618880D02*
X129010628Y-40571261D01*
X129010628Y-40571261D02*
X129296342Y-40571261D01*
X129296342Y-40571261D02*
X129391580Y-40618880D01*
X129391580Y-40618880D02*
X129439200Y-40666499D01*
X129439200Y-40666499D02*
X129486819Y-40761737D01*
X129486819Y-40761737D02*
X129486819Y-40904594D01*
X129486819Y-40142689D02*
X128820152Y-40142689D01*
X129010628Y-40142689D02*
X128915390Y-40095070D01*
X128915390Y-40095070D02*
X128867771Y-40047451D01*
X128867771Y-40047451D02*
X128820152Y-39952213D01*
X128820152Y-39952213D02*
X128820152Y-39856975D01*
X128820152Y-39666498D02*
X128820152Y-39285546D01*
X128486819Y-39523641D02*
X129343961Y-39523641D01*
X129343961Y-39523641D02*
X129439200Y-39476022D01*
X129439200Y-39476022D02*
X129486819Y-39380784D01*
X129486819Y-39380784D02*
X129486819Y-39285546D01*
X129486819Y-38428403D02*
X129486819Y-38999831D01*
X129486819Y-38714117D02*
X128486819Y-38714117D01*
X128486819Y-38714117D02*
X128629676Y-38809355D01*
X128629676Y-38809355D02*
X128724914Y-38904593D01*
X128724914Y-38904593D02*
X128772533Y-38999831D01*
X120134142Y-110987819D02*
X119800809Y-110511628D01*
X119562714Y-110987819D02*
X119562714Y-109987819D01*
X119562714Y-109987819D02*
X119943666Y-109987819D01*
X119943666Y-109987819D02*
X120038904Y-110035438D01*
X120038904Y-110035438D02*
X120086523Y-110083057D01*
X120086523Y-110083057D02*
X120134142Y-110178295D01*
X120134142Y-110178295D02*
X120134142Y-110321152D01*
X120134142Y-110321152D02*
X120086523Y-110416390D01*
X120086523Y-110416390D02*
X120038904Y-110464009D01*
X120038904Y-110464009D02*
X119943666Y-110511628D01*
X119943666Y-110511628D02*
X119562714Y-110511628D01*
X121086523Y-110987819D02*
X120515095Y-110987819D01*
X120800809Y-110987819D02*
X120800809Y-109987819D01*
X120800809Y-109987819D02*
X120705571Y-110130676D01*
X120705571Y-110130676D02*
X120610333Y-110225914D01*
X120610333Y-110225914D02*
X120515095Y-110273533D01*
X121419857Y-109987819D02*
X122086523Y-109987819D01*
X122086523Y-109987819D02*
X121657952Y-110987819D01*
X188896809Y-32636819D02*
X188896809Y-31636819D01*
X188896809Y-31636819D02*
X189277761Y-31636819D01*
X189277761Y-31636819D02*
X189372999Y-31684438D01*
X189372999Y-31684438D02*
X189420618Y-31732057D01*
X189420618Y-31732057D02*
X189468237Y-31827295D01*
X189468237Y-31827295D02*
X189468237Y-31970152D01*
X189468237Y-31970152D02*
X189420618Y-32065390D01*
X189420618Y-32065390D02*
X189372999Y-32113009D01*
X189372999Y-32113009D02*
X189277761Y-32160628D01*
X189277761Y-32160628D02*
X188896809Y-32160628D01*
X190039666Y-32636819D02*
X189944428Y-32589200D01*
X189944428Y-32589200D02*
X189896809Y-32541580D01*
X189896809Y-32541580D02*
X189849190Y-32446342D01*
X189849190Y-32446342D02*
X189849190Y-32160628D01*
X189849190Y-32160628D02*
X189896809Y-32065390D01*
X189896809Y-32065390D02*
X189944428Y-32017771D01*
X189944428Y-32017771D02*
X190039666Y-31970152D01*
X190039666Y-31970152D02*
X190182523Y-31970152D01*
X190182523Y-31970152D02*
X190277761Y-32017771D01*
X190277761Y-32017771D02*
X190325380Y-32065390D01*
X190325380Y-32065390D02*
X190372999Y-32160628D01*
X190372999Y-32160628D02*
X190372999Y-32446342D01*
X190372999Y-32446342D02*
X190325380Y-32541580D01*
X190325380Y-32541580D02*
X190277761Y-32589200D01*
X190277761Y-32589200D02*
X190182523Y-32636819D01*
X190182523Y-32636819D02*
X190039666Y-32636819D01*
X190658714Y-31970152D02*
X191039666Y-31970152D01*
X190801571Y-31636819D02*
X190801571Y-32493961D01*
X190801571Y-32493961D02*
X190849190Y-32589200D01*
X190849190Y-32589200D02*
X190944428Y-32636819D01*
X190944428Y-32636819D02*
X191039666Y-32636819D01*
X191896809Y-32636819D02*
X191325381Y-32636819D01*
X191611095Y-32636819D02*
X191611095Y-31636819D01*
X191611095Y-31636819D02*
X191515857Y-31779676D01*
X191515857Y-31779676D02*
X191420619Y-31874914D01*
X191420619Y-31874914D02*
X191325381Y-31922533D01*
X120261142Y-116067819D02*
X119927809Y-115591628D01*
X119689714Y-116067819D02*
X119689714Y-115067819D01*
X119689714Y-115067819D02*
X120070666Y-115067819D01*
X120070666Y-115067819D02*
X120165904Y-115115438D01*
X120165904Y-115115438D02*
X120213523Y-115163057D01*
X120213523Y-115163057D02*
X120261142Y-115258295D01*
X120261142Y-115258295D02*
X120261142Y-115401152D01*
X120261142Y-115401152D02*
X120213523Y-115496390D01*
X120213523Y-115496390D02*
X120165904Y-115544009D01*
X120165904Y-115544009D02*
X120070666Y-115591628D01*
X120070666Y-115591628D02*
X119689714Y-115591628D01*
X120642095Y-115163057D02*
X120689714Y-115115438D01*
X120689714Y-115115438D02*
X120784952Y-115067819D01*
X120784952Y-115067819D02*
X121023047Y-115067819D01*
X121023047Y-115067819D02*
X121118285Y-115115438D01*
X121118285Y-115115438D02*
X121165904Y-115163057D01*
X121165904Y-115163057D02*
X121213523Y-115258295D01*
X121213523Y-115258295D02*
X121213523Y-115353533D01*
X121213523Y-115353533D02*
X121165904Y-115496390D01*
X121165904Y-115496390D02*
X120594476Y-116067819D01*
X120594476Y-116067819D02*
X121213523Y-116067819D01*
X121546857Y-115067819D02*
X122213523Y-115067819D01*
X122213523Y-115067819D02*
X121784952Y-116067819D01*
X119372142Y-122385580D02*
X119324523Y-122433200D01*
X119324523Y-122433200D02*
X119181666Y-122480819D01*
X119181666Y-122480819D02*
X119086428Y-122480819D01*
X119086428Y-122480819D02*
X118943571Y-122433200D01*
X118943571Y-122433200D02*
X118848333Y-122337961D01*
X118848333Y-122337961D02*
X118800714Y-122242723D01*
X118800714Y-122242723D02*
X118753095Y-122052247D01*
X118753095Y-122052247D02*
X118753095Y-121909390D01*
X118753095Y-121909390D02*
X118800714Y-121718914D01*
X118800714Y-121718914D02*
X118848333Y-121623676D01*
X118848333Y-121623676D02*
X118943571Y-121528438D01*
X118943571Y-121528438D02*
X119086428Y-121480819D01*
X119086428Y-121480819D02*
X119181666Y-121480819D01*
X119181666Y-121480819D02*
X119324523Y-121528438D01*
X119324523Y-121528438D02*
X119372142Y-121576057D01*
X120324523Y-122480819D02*
X119753095Y-122480819D01*
X120038809Y-122480819D02*
X120038809Y-121480819D01*
X120038809Y-121480819D02*
X119943571Y-121623676D01*
X119943571Y-121623676D02*
X119848333Y-121718914D01*
X119848333Y-121718914D02*
X119753095Y-121766533D01*
X120705476Y-121576057D02*
X120753095Y-121528438D01*
X120753095Y-121528438D02*
X120848333Y-121480819D01*
X120848333Y-121480819D02*
X121086428Y-121480819D01*
X121086428Y-121480819D02*
X121181666Y-121528438D01*
X121181666Y-121528438D02*
X121229285Y-121576057D01*
X121229285Y-121576057D02*
X121276904Y-121671295D01*
X121276904Y-121671295D02*
X121276904Y-121766533D01*
X121276904Y-121766533D02*
X121229285Y-121909390D01*
X121229285Y-121909390D02*
X120657857Y-122480819D01*
X120657857Y-122480819D02*
X121276904Y-122480819D01*
X198040809Y-32636819D02*
X198040809Y-31636819D01*
X198040809Y-31636819D02*
X198421761Y-31636819D01*
X198421761Y-31636819D02*
X198516999Y-31684438D01*
X198516999Y-31684438D02*
X198564618Y-31732057D01*
X198564618Y-31732057D02*
X198612237Y-31827295D01*
X198612237Y-31827295D02*
X198612237Y-31970152D01*
X198612237Y-31970152D02*
X198564618Y-32065390D01*
X198564618Y-32065390D02*
X198516999Y-32113009D01*
X198516999Y-32113009D02*
X198421761Y-32160628D01*
X198421761Y-32160628D02*
X198040809Y-32160628D01*
X199183666Y-32636819D02*
X199088428Y-32589200D01*
X199088428Y-32589200D02*
X199040809Y-32541580D01*
X199040809Y-32541580D02*
X198993190Y-32446342D01*
X198993190Y-32446342D02*
X198993190Y-32160628D01*
X198993190Y-32160628D02*
X199040809Y-32065390D01*
X199040809Y-32065390D02*
X199088428Y-32017771D01*
X199088428Y-32017771D02*
X199183666Y-31970152D01*
X199183666Y-31970152D02*
X199326523Y-31970152D01*
X199326523Y-31970152D02*
X199421761Y-32017771D01*
X199421761Y-32017771D02*
X199469380Y-32065390D01*
X199469380Y-32065390D02*
X199516999Y-32160628D01*
X199516999Y-32160628D02*
X199516999Y-32446342D01*
X199516999Y-32446342D02*
X199469380Y-32541580D01*
X199469380Y-32541580D02*
X199421761Y-32589200D01*
X199421761Y-32589200D02*
X199326523Y-32636819D01*
X199326523Y-32636819D02*
X199183666Y-32636819D01*
X199802714Y-31970152D02*
X200183666Y-31970152D01*
X199945571Y-31636819D02*
X199945571Y-32493961D01*
X199945571Y-32493961D02*
X199993190Y-32589200D01*
X199993190Y-32589200D02*
X200088428Y-32636819D01*
X200088428Y-32636819D02*
X200183666Y-32636819D01*
X200707476Y-31636819D02*
X200802714Y-31636819D01*
X200802714Y-31636819D02*
X200897952Y-31684438D01*
X200897952Y-31684438D02*
X200945571Y-31732057D01*
X200945571Y-31732057D02*
X200993190Y-31827295D01*
X200993190Y-31827295D02*
X201040809Y-32017771D01*
X201040809Y-32017771D02*
X201040809Y-32255866D01*
X201040809Y-32255866D02*
X200993190Y-32446342D01*
X200993190Y-32446342D02*
X200945571Y-32541580D01*
X200945571Y-32541580D02*
X200897952Y-32589200D01*
X200897952Y-32589200D02*
X200802714Y-32636819D01*
X200802714Y-32636819D02*
X200707476Y-32636819D01*
X200707476Y-32636819D02*
X200612238Y-32589200D01*
X200612238Y-32589200D02*
X200564619Y-32541580D01*
X200564619Y-32541580D02*
X200517000Y-32446342D01*
X200517000Y-32446342D02*
X200469381Y-32255866D01*
X200469381Y-32255866D02*
X200469381Y-32017771D01*
X200469381Y-32017771D02*
X200517000Y-31827295D01*
X200517000Y-31827295D02*
X200564619Y-31732057D01*
X200564619Y-31732057D02*
X200612238Y-31684438D01*
X200612238Y-31684438D02*
X200707476Y-31636819D01*
X147661333Y-76308319D02*
X147328000Y-75832128D01*
X147089905Y-76308319D02*
X147089905Y-75308319D01*
X147089905Y-75308319D02*
X147470857Y-75308319D01*
X147470857Y-75308319D02*
X147566095Y-75355938D01*
X147566095Y-75355938D02*
X147613714Y-75403557D01*
X147613714Y-75403557D02*
X147661333Y-75498795D01*
X147661333Y-75498795D02*
X147661333Y-75641652D01*
X147661333Y-75641652D02*
X147613714Y-75736890D01*
X147613714Y-75736890D02*
X147566095Y-75784509D01*
X147566095Y-75784509D02*
X147470857Y-75832128D01*
X147470857Y-75832128D02*
X147089905Y-75832128D01*
X148232762Y-75736890D02*
X148137524Y-75689271D01*
X148137524Y-75689271D02*
X148089905Y-75641652D01*
X148089905Y-75641652D02*
X148042286Y-75546414D01*
X148042286Y-75546414D02*
X148042286Y-75498795D01*
X148042286Y-75498795D02*
X148089905Y-75403557D01*
X148089905Y-75403557D02*
X148137524Y-75355938D01*
X148137524Y-75355938D02*
X148232762Y-75308319D01*
X148232762Y-75308319D02*
X148423238Y-75308319D01*
X148423238Y-75308319D02*
X148518476Y-75355938D01*
X148518476Y-75355938D02*
X148566095Y-75403557D01*
X148566095Y-75403557D02*
X148613714Y-75498795D01*
X148613714Y-75498795D02*
X148613714Y-75546414D01*
X148613714Y-75546414D02*
X148566095Y-75641652D01*
X148566095Y-75641652D02*
X148518476Y-75689271D01*
X148518476Y-75689271D02*
X148423238Y-75736890D01*
X148423238Y-75736890D02*
X148232762Y-75736890D01*
X148232762Y-75736890D02*
X148137524Y-75784509D01*
X148137524Y-75784509D02*
X148089905Y-75832128D01*
X148089905Y-75832128D02*
X148042286Y-75927366D01*
X148042286Y-75927366D02*
X148042286Y-76117842D01*
X148042286Y-76117842D02*
X148089905Y-76213080D01*
X148089905Y-76213080D02*
X148137524Y-76260700D01*
X148137524Y-76260700D02*
X148232762Y-76308319D01*
X148232762Y-76308319D02*
X148423238Y-76308319D01*
X148423238Y-76308319D02*
X148518476Y-76260700D01*
X148518476Y-76260700D02*
X148566095Y-76213080D01*
X148566095Y-76213080D02*
X148613714Y-76117842D01*
X148613714Y-76117842D02*
X148613714Y-75927366D01*
X148613714Y-75927366D02*
X148566095Y-75832128D01*
X148566095Y-75832128D02*
X148518476Y-75784509D01*
X148518476Y-75784509D02*
X148423238Y-75736890D01*
X148550333Y-92867819D02*
X148217000Y-92391628D01*
X147978905Y-92867819D02*
X147978905Y-91867819D01*
X147978905Y-91867819D02*
X148359857Y-91867819D01*
X148359857Y-91867819D02*
X148455095Y-91915438D01*
X148455095Y-91915438D02*
X148502714Y-91963057D01*
X148502714Y-91963057D02*
X148550333Y-92058295D01*
X148550333Y-92058295D02*
X148550333Y-92201152D01*
X148550333Y-92201152D02*
X148502714Y-92296390D01*
X148502714Y-92296390D02*
X148455095Y-92344009D01*
X148455095Y-92344009D02*
X148359857Y-92391628D01*
X148359857Y-92391628D02*
X147978905Y-92391628D01*
X148931286Y-91963057D02*
X148978905Y-91915438D01*
X148978905Y-91915438D02*
X149074143Y-91867819D01*
X149074143Y-91867819D02*
X149312238Y-91867819D01*
X149312238Y-91867819D02*
X149407476Y-91915438D01*
X149407476Y-91915438D02*
X149455095Y-91963057D01*
X149455095Y-91963057D02*
X149502714Y-92058295D01*
X149502714Y-92058295D02*
X149502714Y-92153533D01*
X149502714Y-92153533D02*
X149455095Y-92296390D01*
X149455095Y-92296390D02*
X148883667Y-92867819D01*
X148883667Y-92867819D02*
X149502714Y-92867819D01*
X132834142Y-116321819D02*
X132500809Y-115845628D01*
X132262714Y-116321819D02*
X132262714Y-115321819D01*
X132262714Y-115321819D02*
X132643666Y-115321819D01*
X132643666Y-115321819D02*
X132738904Y-115369438D01*
X132738904Y-115369438D02*
X132786523Y-115417057D01*
X132786523Y-115417057D02*
X132834142Y-115512295D01*
X132834142Y-115512295D02*
X132834142Y-115655152D01*
X132834142Y-115655152D02*
X132786523Y-115750390D01*
X132786523Y-115750390D02*
X132738904Y-115798009D01*
X132738904Y-115798009D02*
X132643666Y-115845628D01*
X132643666Y-115845628D02*
X132262714Y-115845628D01*
X133215095Y-115417057D02*
X133262714Y-115369438D01*
X133262714Y-115369438D02*
X133357952Y-115321819D01*
X133357952Y-115321819D02*
X133596047Y-115321819D01*
X133596047Y-115321819D02*
X133691285Y-115369438D01*
X133691285Y-115369438D02*
X133738904Y-115417057D01*
X133738904Y-115417057D02*
X133786523Y-115512295D01*
X133786523Y-115512295D02*
X133786523Y-115607533D01*
X133786523Y-115607533D02*
X133738904Y-115750390D01*
X133738904Y-115750390D02*
X133167476Y-116321819D01*
X133167476Y-116321819D02*
X133786523Y-116321819D01*
X134262714Y-116321819D02*
X134453190Y-116321819D01*
X134453190Y-116321819D02*
X134548428Y-116274200D01*
X134548428Y-116274200D02*
X134596047Y-116226580D01*
X134596047Y-116226580D02*
X134691285Y-116083723D01*
X134691285Y-116083723D02*
X134738904Y-115893247D01*
X134738904Y-115893247D02*
X134738904Y-115512295D01*
X134738904Y-115512295D02*
X134691285Y-115417057D01*
X134691285Y-115417057D02*
X134643666Y-115369438D01*
X134643666Y-115369438D02*
X134548428Y-115321819D01*
X134548428Y-115321819D02*
X134357952Y-115321819D01*
X134357952Y-115321819D02*
X134262714Y-115369438D01*
X134262714Y-115369438D02*
X134215095Y-115417057D01*
X134215095Y-115417057D02*
X134167476Y-115512295D01*
X134167476Y-115512295D02*
X134167476Y-115750390D01*
X134167476Y-115750390D02*
X134215095Y-115845628D01*
X134215095Y-115845628D02*
X134262714Y-115893247D01*
X134262714Y-115893247D02*
X134357952Y-115940866D01*
X134357952Y-115940866D02*
X134548428Y-115940866D01*
X134548428Y-115940866D02*
X134643666Y-115893247D01*
X134643666Y-115893247D02*
X134691285Y-115845628D01*
X134691285Y-115845628D02*
X134738904Y-115750390D01*
X130391714Y-75732819D02*
X130582190Y-75732819D01*
X130582190Y-75732819D02*
X130677428Y-75780438D01*
X130677428Y-75780438D02*
X130772666Y-75875676D01*
X130772666Y-75875676D02*
X130820285Y-76066152D01*
X130820285Y-76066152D02*
X130820285Y-76399485D01*
X130820285Y-76399485D02*
X130772666Y-76589961D01*
X130772666Y-76589961D02*
X130677428Y-76685200D01*
X130677428Y-76685200D02*
X130582190Y-76732819D01*
X130582190Y-76732819D02*
X130391714Y-76732819D01*
X130391714Y-76732819D02*
X130296476Y-76685200D01*
X130296476Y-76685200D02*
X130201238Y-76589961D01*
X130201238Y-76589961D02*
X130153619Y-76399485D01*
X130153619Y-76399485D02*
X130153619Y-76066152D01*
X130153619Y-76066152D02*
X130201238Y-75875676D01*
X130201238Y-75875676D02*
X130296476Y-75780438D01*
X130296476Y-75780438D02*
X130391714Y-75732819D01*
X131248857Y-76066152D02*
X131248857Y-77066152D01*
X131248857Y-76113771D02*
X131344095Y-76066152D01*
X131344095Y-76066152D02*
X131534571Y-76066152D01*
X131534571Y-76066152D02*
X131629809Y-76113771D01*
X131629809Y-76113771D02*
X131677428Y-76161390D01*
X131677428Y-76161390D02*
X131725047Y-76256628D01*
X131725047Y-76256628D02*
X131725047Y-76542342D01*
X131725047Y-76542342D02*
X131677428Y-76637580D01*
X131677428Y-76637580D02*
X131629809Y-76685200D01*
X131629809Y-76685200D02*
X131534571Y-76732819D01*
X131534571Y-76732819D02*
X131344095Y-76732819D01*
X131344095Y-76732819D02*
X131248857Y-76685200D01*
X132153619Y-76351866D02*
X132915524Y-76351866D01*
X133344095Y-76447104D02*
X133820285Y-76447104D01*
X133248857Y-76732819D02*
X133582190Y-75732819D01*
X133582190Y-75732819D02*
X133915523Y-76732819D01*
X134248857Y-76732819D02*
X134248857Y-76066152D01*
X134248857Y-76161390D02*
X134296476Y-76113771D01*
X134296476Y-76113771D02*
X134391714Y-76066152D01*
X134391714Y-76066152D02*
X134534571Y-76066152D01*
X134534571Y-76066152D02*
X134629809Y-76113771D01*
X134629809Y-76113771D02*
X134677428Y-76209009D01*
X134677428Y-76209009D02*
X134677428Y-76732819D01*
X134677428Y-76209009D02*
X134725047Y-76113771D01*
X134725047Y-76113771D02*
X134820285Y-76066152D01*
X134820285Y-76066152D02*
X134963142Y-76066152D01*
X134963142Y-76066152D02*
X135058381Y-76113771D01*
X135058381Y-76113771D02*
X135106000Y-76209009D01*
X135106000Y-76209009D02*
X135106000Y-76732819D01*
X135582190Y-76066152D02*
X135582190Y-77066152D01*
X135582190Y-76113771D02*
X135677428Y-76066152D01*
X135677428Y-76066152D02*
X135867904Y-76066152D01*
X135867904Y-76066152D02*
X135963142Y-76113771D01*
X135963142Y-76113771D02*
X136010761Y-76161390D01*
X136010761Y-76161390D02*
X136058380Y-76256628D01*
X136058380Y-76256628D02*
X136058380Y-76542342D01*
X136058380Y-76542342D02*
X136010761Y-76637580D01*
X136010761Y-76637580D02*
X135963142Y-76685200D01*
X135963142Y-76685200D02*
X135867904Y-76732819D01*
X135867904Y-76732819D02*
X135677428Y-76732819D01*
X135677428Y-76732819D02*
X135582190Y-76685200D01*
X202557142Y-63657819D02*
X202223809Y-63181628D01*
X201985714Y-63657819D02*
X201985714Y-62657819D01*
X201985714Y-62657819D02*
X202366666Y-62657819D01*
X202366666Y-62657819D02*
X202461904Y-62705438D01*
X202461904Y-62705438D02*
X202509523Y-62753057D01*
X202509523Y-62753057D02*
X202557142Y-62848295D01*
X202557142Y-62848295D02*
X202557142Y-62991152D01*
X202557142Y-62991152D02*
X202509523Y-63086390D01*
X202509523Y-63086390D02*
X202461904Y-63134009D01*
X202461904Y-63134009D02*
X202366666Y-63181628D01*
X202366666Y-63181628D02*
X201985714Y-63181628D01*
X202890476Y-62657819D02*
X203509523Y-62657819D01*
X203509523Y-62657819D02*
X203176190Y-63038771D01*
X203176190Y-63038771D02*
X203319047Y-63038771D01*
X203319047Y-63038771D02*
X203414285Y-63086390D01*
X203414285Y-63086390D02*
X203461904Y-63134009D01*
X203461904Y-63134009D02*
X203509523Y-63229247D01*
X203509523Y-63229247D02*
X203509523Y-63467342D01*
X203509523Y-63467342D02*
X203461904Y-63562580D01*
X203461904Y-63562580D02*
X203414285Y-63610200D01*
X203414285Y-63610200D02*
X203319047Y-63657819D01*
X203319047Y-63657819D02*
X203033333Y-63657819D01*
X203033333Y-63657819D02*
X202938095Y-63610200D01*
X202938095Y-63610200D02*
X202890476Y-63562580D01*
X204366666Y-62991152D02*
X204366666Y-63657819D01*
X204128571Y-62610200D02*
X203890476Y-63324485D01*
X203890476Y-63324485D02*
X204509523Y-63324485D01*
X159683142Y-59503319D02*
X159349809Y-59027128D01*
X159111714Y-59503319D02*
X159111714Y-58503319D01*
X159111714Y-58503319D02*
X159492666Y-58503319D01*
X159492666Y-58503319D02*
X159587904Y-58550938D01*
X159587904Y-58550938D02*
X159635523Y-58598557D01*
X159635523Y-58598557D02*
X159683142Y-58693795D01*
X159683142Y-58693795D02*
X159683142Y-58836652D01*
X159683142Y-58836652D02*
X159635523Y-58931890D01*
X159635523Y-58931890D02*
X159587904Y-58979509D01*
X159587904Y-58979509D02*
X159492666Y-59027128D01*
X159492666Y-59027128D02*
X159111714Y-59027128D01*
X160064095Y-58598557D02*
X160111714Y-58550938D01*
X160111714Y-58550938D02*
X160206952Y-58503319D01*
X160206952Y-58503319D02*
X160445047Y-58503319D01*
X160445047Y-58503319D02*
X160540285Y-58550938D01*
X160540285Y-58550938D02*
X160587904Y-58598557D01*
X160587904Y-58598557D02*
X160635523Y-58693795D01*
X160635523Y-58693795D02*
X160635523Y-58789033D01*
X160635523Y-58789033D02*
X160587904Y-58931890D01*
X160587904Y-58931890D02*
X160016476Y-59503319D01*
X160016476Y-59503319D02*
X160635523Y-59503319D01*
X160968857Y-58503319D02*
X161587904Y-58503319D01*
X161587904Y-58503319D02*
X161254571Y-58884271D01*
X161254571Y-58884271D02*
X161397428Y-58884271D01*
X161397428Y-58884271D02*
X161492666Y-58931890D01*
X161492666Y-58931890D02*
X161540285Y-58979509D01*
X161540285Y-58979509D02*
X161587904Y-59074747D01*
X161587904Y-59074747D02*
X161587904Y-59312842D01*
X161587904Y-59312842D02*
X161540285Y-59408080D01*
X161540285Y-59408080D02*
X161492666Y-59455700D01*
X161492666Y-59455700D02*
X161397428Y-59503319D01*
X161397428Y-59503319D02*
X161111714Y-59503319D01*
X161111714Y-59503319D02*
X161016476Y-59455700D01*
X161016476Y-59455700D02*
X160968857Y-59408080D01*
X146137333Y-127538819D02*
X145804000Y-127062628D01*
X145565905Y-127538819D02*
X145565905Y-126538819D01*
X145565905Y-126538819D02*
X145946857Y-126538819D01*
X145946857Y-126538819D02*
X146042095Y-126586438D01*
X146042095Y-126586438D02*
X146089714Y-126634057D01*
X146089714Y-126634057D02*
X146137333Y-126729295D01*
X146137333Y-126729295D02*
X146137333Y-126872152D01*
X146137333Y-126872152D02*
X146089714Y-126967390D01*
X146089714Y-126967390D02*
X146042095Y-127015009D01*
X146042095Y-127015009D02*
X145946857Y-127062628D01*
X145946857Y-127062628D02*
X145565905Y-127062628D01*
X146470667Y-126538819D02*
X147137333Y-126538819D01*
X147137333Y-126538819D02*
X146708762Y-127538819D01*
X202811142Y-69781819D02*
X202477809Y-69305628D01*
X202239714Y-69781819D02*
X202239714Y-68781819D01*
X202239714Y-68781819D02*
X202620666Y-68781819D01*
X202620666Y-68781819D02*
X202715904Y-68829438D01*
X202715904Y-68829438D02*
X202763523Y-68877057D01*
X202763523Y-68877057D02*
X202811142Y-68972295D01*
X202811142Y-68972295D02*
X202811142Y-69115152D01*
X202811142Y-69115152D02*
X202763523Y-69210390D01*
X202763523Y-69210390D02*
X202715904Y-69258009D01*
X202715904Y-69258009D02*
X202620666Y-69305628D01*
X202620666Y-69305628D02*
X202239714Y-69305628D01*
X203192095Y-68877057D02*
X203239714Y-68829438D01*
X203239714Y-68829438D02*
X203334952Y-68781819D01*
X203334952Y-68781819D02*
X203573047Y-68781819D01*
X203573047Y-68781819D02*
X203668285Y-68829438D01*
X203668285Y-68829438D02*
X203715904Y-68877057D01*
X203715904Y-68877057D02*
X203763523Y-68972295D01*
X203763523Y-68972295D02*
X203763523Y-69067533D01*
X203763523Y-69067533D02*
X203715904Y-69210390D01*
X203715904Y-69210390D02*
X203144476Y-69781819D01*
X203144476Y-69781819D02*
X203763523Y-69781819D01*
X204620666Y-68781819D02*
X204430190Y-68781819D01*
X204430190Y-68781819D02*
X204334952Y-68829438D01*
X204334952Y-68829438D02*
X204287333Y-68877057D01*
X204287333Y-68877057D02*
X204192095Y-69019914D01*
X204192095Y-69019914D02*
X204144476Y-69210390D01*
X204144476Y-69210390D02*
X204144476Y-69591342D01*
X204144476Y-69591342D02*
X204192095Y-69686580D01*
X204192095Y-69686580D02*
X204239714Y-69734200D01*
X204239714Y-69734200D02*
X204334952Y-69781819D01*
X204334952Y-69781819D02*
X204525428Y-69781819D01*
X204525428Y-69781819D02*
X204620666Y-69734200D01*
X204620666Y-69734200D02*
X204668285Y-69686580D01*
X204668285Y-69686580D02*
X204715904Y-69591342D01*
X204715904Y-69591342D02*
X204715904Y-69353247D01*
X204715904Y-69353247D02*
X204668285Y-69258009D01*
X204668285Y-69258009D02*
X204620666Y-69210390D01*
X204620666Y-69210390D02*
X204525428Y-69162771D01*
X204525428Y-69162771D02*
X204334952Y-69162771D01*
X204334952Y-69162771D02*
X204239714Y-69210390D01*
X204239714Y-69210390D02*
X204192095Y-69258009D01*
X204192095Y-69258009D02*
X204144476Y-69353247D01*
X147110142Y-70974319D02*
X146776809Y-70498128D01*
X146538714Y-70974319D02*
X146538714Y-69974319D01*
X146538714Y-69974319D02*
X146919666Y-69974319D01*
X146919666Y-69974319D02*
X147014904Y-70021938D01*
X147014904Y-70021938D02*
X147062523Y-70069557D01*
X147062523Y-70069557D02*
X147110142Y-70164795D01*
X147110142Y-70164795D02*
X147110142Y-70307652D01*
X147110142Y-70307652D02*
X147062523Y-70402890D01*
X147062523Y-70402890D02*
X147014904Y-70450509D01*
X147014904Y-70450509D02*
X146919666Y-70498128D01*
X146919666Y-70498128D02*
X146538714Y-70498128D01*
X147491095Y-70069557D02*
X147538714Y-70021938D01*
X147538714Y-70021938D02*
X147633952Y-69974319D01*
X147633952Y-69974319D02*
X147872047Y-69974319D01*
X147872047Y-69974319D02*
X147967285Y-70021938D01*
X147967285Y-70021938D02*
X148014904Y-70069557D01*
X148014904Y-70069557D02*
X148062523Y-70164795D01*
X148062523Y-70164795D02*
X148062523Y-70260033D01*
X148062523Y-70260033D02*
X148014904Y-70402890D01*
X148014904Y-70402890D02*
X147443476Y-70974319D01*
X147443476Y-70974319D02*
X148062523Y-70974319D01*
X148443476Y-70069557D02*
X148491095Y-70021938D01*
X148491095Y-70021938D02*
X148586333Y-69974319D01*
X148586333Y-69974319D02*
X148824428Y-69974319D01*
X148824428Y-69974319D02*
X148919666Y-70021938D01*
X148919666Y-70021938D02*
X148967285Y-70069557D01*
X148967285Y-70069557D02*
X149014904Y-70164795D01*
X149014904Y-70164795D02*
X149014904Y-70260033D01*
X149014904Y-70260033D02*
X148967285Y-70402890D01*
X148967285Y-70402890D02*
X148395857Y-70974319D01*
X148395857Y-70974319D02*
X149014904Y-70974319D01*
X207137095Y-26734819D02*
X207137095Y-25734819D01*
X207137095Y-26211009D02*
X207708523Y-26211009D01*
X207708523Y-26734819D02*
X207708523Y-25734819D01*
X208137095Y-25830057D02*
X208184714Y-25782438D01*
X208184714Y-25782438D02*
X208279952Y-25734819D01*
X208279952Y-25734819D02*
X208518047Y-25734819D01*
X208518047Y-25734819D02*
X208613285Y-25782438D01*
X208613285Y-25782438D02*
X208660904Y-25830057D01*
X208660904Y-25830057D02*
X208708523Y-25925295D01*
X208708523Y-25925295D02*
X208708523Y-26020533D01*
X208708523Y-26020533D02*
X208660904Y-26163390D01*
X208660904Y-26163390D02*
X208089476Y-26734819D01*
X208089476Y-26734819D02*
X208708523Y-26734819D01*
X142668809Y-32763819D02*
X142668809Y-31763819D01*
X142668809Y-31763819D02*
X143049761Y-31763819D01*
X143049761Y-31763819D02*
X143144999Y-31811438D01*
X143144999Y-31811438D02*
X143192618Y-31859057D01*
X143192618Y-31859057D02*
X143240237Y-31954295D01*
X143240237Y-31954295D02*
X143240237Y-32097152D01*
X143240237Y-32097152D02*
X143192618Y-32192390D01*
X143192618Y-32192390D02*
X143144999Y-32240009D01*
X143144999Y-32240009D02*
X143049761Y-32287628D01*
X143049761Y-32287628D02*
X142668809Y-32287628D01*
X143811666Y-32763819D02*
X143716428Y-32716200D01*
X143716428Y-32716200D02*
X143668809Y-32668580D01*
X143668809Y-32668580D02*
X143621190Y-32573342D01*
X143621190Y-32573342D02*
X143621190Y-32287628D01*
X143621190Y-32287628D02*
X143668809Y-32192390D01*
X143668809Y-32192390D02*
X143716428Y-32144771D01*
X143716428Y-32144771D02*
X143811666Y-32097152D01*
X143811666Y-32097152D02*
X143954523Y-32097152D01*
X143954523Y-32097152D02*
X144049761Y-32144771D01*
X144049761Y-32144771D02*
X144097380Y-32192390D01*
X144097380Y-32192390D02*
X144144999Y-32287628D01*
X144144999Y-32287628D02*
X144144999Y-32573342D01*
X144144999Y-32573342D02*
X144097380Y-32668580D01*
X144097380Y-32668580D02*
X144049761Y-32716200D01*
X144049761Y-32716200D02*
X143954523Y-32763819D01*
X143954523Y-32763819D02*
X143811666Y-32763819D01*
X144430714Y-32097152D02*
X144811666Y-32097152D01*
X144573571Y-31763819D02*
X144573571Y-32620961D01*
X144573571Y-32620961D02*
X144621190Y-32716200D01*
X144621190Y-32716200D02*
X144716428Y-32763819D01*
X144716428Y-32763819D02*
X144811666Y-32763819D01*
X145573571Y-31763819D02*
X145383095Y-31763819D01*
X145383095Y-31763819D02*
X145287857Y-31811438D01*
X145287857Y-31811438D02*
X145240238Y-31859057D01*
X145240238Y-31859057D02*
X145145000Y-32001914D01*
X145145000Y-32001914D02*
X145097381Y-32192390D01*
X145097381Y-32192390D02*
X145097381Y-32573342D01*
X145097381Y-32573342D02*
X145145000Y-32668580D01*
X145145000Y-32668580D02*
X145192619Y-32716200D01*
X145192619Y-32716200D02*
X145287857Y-32763819D01*
X145287857Y-32763819D02*
X145478333Y-32763819D01*
X145478333Y-32763819D02*
X145573571Y-32716200D01*
X145573571Y-32716200D02*
X145621190Y-32668580D01*
X145621190Y-32668580D02*
X145668809Y-32573342D01*
X145668809Y-32573342D02*
X145668809Y-32335247D01*
X145668809Y-32335247D02*
X145621190Y-32240009D01*
X145621190Y-32240009D02*
X145573571Y-32192390D01*
X145573571Y-32192390D02*
X145478333Y-32144771D01*
X145478333Y-32144771D02*
X145287857Y-32144771D01*
X145287857Y-32144771D02*
X145192619Y-32192390D01*
X145192619Y-32192390D02*
X145145000Y-32240009D01*
X145145000Y-32240009D02*
X145097381Y-32335247D01*
X130802142Y-122406580D02*
X130754523Y-122454200D01*
X130754523Y-122454200D02*
X130611666Y-122501819D01*
X130611666Y-122501819D02*
X130516428Y-122501819D01*
X130516428Y-122501819D02*
X130373571Y-122454200D01*
X130373571Y-122454200D02*
X130278333Y-122358961D01*
X130278333Y-122358961D02*
X130230714Y-122263723D01*
X130230714Y-122263723D02*
X130183095Y-122073247D01*
X130183095Y-122073247D02*
X130183095Y-121930390D01*
X130183095Y-121930390D02*
X130230714Y-121739914D01*
X130230714Y-121739914D02*
X130278333Y-121644676D01*
X130278333Y-121644676D02*
X130373571Y-121549438D01*
X130373571Y-121549438D02*
X130516428Y-121501819D01*
X130516428Y-121501819D02*
X130611666Y-121501819D01*
X130611666Y-121501819D02*
X130754523Y-121549438D01*
X130754523Y-121549438D02*
X130802142Y-121597057D01*
X131754523Y-122501819D02*
X131183095Y-122501819D01*
X131468809Y-122501819D02*
X131468809Y-121501819D01*
X131468809Y-121501819D02*
X131373571Y-121644676D01*
X131373571Y-121644676D02*
X131278333Y-121739914D01*
X131278333Y-121739914D02*
X131183095Y-121787533D01*
X132706904Y-122501819D02*
X132135476Y-122501819D01*
X132421190Y-122501819D02*
X132421190Y-121501819D01*
X132421190Y-121501819D02*
X132325952Y-121644676D01*
X132325952Y-121644676D02*
X132230714Y-121739914D01*
X132230714Y-121739914D02*
X132135476Y-121787533D01*
X167632142Y-105229819D02*
X167298809Y-104753628D01*
X167060714Y-105229819D02*
X167060714Y-104229819D01*
X167060714Y-104229819D02*
X167441666Y-104229819D01*
X167441666Y-104229819D02*
X167536904Y-104277438D01*
X167536904Y-104277438D02*
X167584523Y-104325057D01*
X167584523Y-104325057D02*
X167632142Y-104420295D01*
X167632142Y-104420295D02*
X167632142Y-104563152D01*
X167632142Y-104563152D02*
X167584523Y-104658390D01*
X167584523Y-104658390D02*
X167536904Y-104706009D01*
X167536904Y-104706009D02*
X167441666Y-104753628D01*
X167441666Y-104753628D02*
X167060714Y-104753628D01*
X168584523Y-105229819D02*
X168013095Y-105229819D01*
X168298809Y-105229819D02*
X168298809Y-104229819D01*
X168298809Y-104229819D02*
X168203571Y-104372676D01*
X168203571Y-104372676D02*
X168108333Y-104467914D01*
X168108333Y-104467914D02*
X168013095Y-104515533D01*
X168965476Y-104325057D02*
X169013095Y-104277438D01*
X169013095Y-104277438D02*
X169108333Y-104229819D01*
X169108333Y-104229819D02*
X169346428Y-104229819D01*
X169346428Y-104229819D02*
X169441666Y-104277438D01*
X169441666Y-104277438D02*
X169489285Y-104325057D01*
X169489285Y-104325057D02*
X169536904Y-104420295D01*
X169536904Y-104420295D02*
X169536904Y-104515533D01*
X169536904Y-104515533D02*
X169489285Y-104658390D01*
X169489285Y-104658390D02*
X168917857Y-105229819D01*
X168917857Y-105229819D02*
X169536904Y-105229819D01*
X160580095Y-88337319D02*
X160580095Y-89146842D01*
X160580095Y-89146842D02*
X160627714Y-89242080D01*
X160627714Y-89242080D02*
X160675333Y-89289700D01*
X160675333Y-89289700D02*
X160770571Y-89337319D01*
X160770571Y-89337319D02*
X160961047Y-89337319D01*
X160961047Y-89337319D02*
X161056285Y-89289700D01*
X161056285Y-89289700D02*
X161103904Y-89242080D01*
X161103904Y-89242080D02*
X161151523Y-89146842D01*
X161151523Y-89146842D02*
X161151523Y-88337319D01*
X162151523Y-89337319D02*
X161580095Y-89337319D01*
X161865809Y-89337319D02*
X161865809Y-88337319D01*
X161865809Y-88337319D02*
X161770571Y-88480176D01*
X161770571Y-88480176D02*
X161675333Y-88575414D01*
X161675333Y-88575414D02*
X161580095Y-88623033D01*
X147289142Y-65513319D02*
X146955809Y-65037128D01*
X146717714Y-65513319D02*
X146717714Y-64513319D01*
X146717714Y-64513319D02*
X147098666Y-64513319D01*
X147098666Y-64513319D02*
X147193904Y-64560938D01*
X147193904Y-64560938D02*
X147241523Y-64608557D01*
X147241523Y-64608557D02*
X147289142Y-64703795D01*
X147289142Y-64703795D02*
X147289142Y-64846652D01*
X147289142Y-64846652D02*
X147241523Y-64941890D01*
X147241523Y-64941890D02*
X147193904Y-64989509D01*
X147193904Y-64989509D02*
X147098666Y-65037128D01*
X147098666Y-65037128D02*
X146717714Y-65037128D01*
X147670095Y-64608557D02*
X147717714Y-64560938D01*
X147717714Y-64560938D02*
X147812952Y-64513319D01*
X147812952Y-64513319D02*
X148051047Y-64513319D01*
X148051047Y-64513319D02*
X148146285Y-64560938D01*
X148146285Y-64560938D02*
X148193904Y-64608557D01*
X148193904Y-64608557D02*
X148241523Y-64703795D01*
X148241523Y-64703795D02*
X148241523Y-64799033D01*
X148241523Y-64799033D02*
X148193904Y-64941890D01*
X148193904Y-64941890D02*
X147622476Y-65513319D01*
X147622476Y-65513319D02*
X148241523Y-65513319D01*
X148860571Y-64513319D02*
X148955809Y-64513319D01*
X148955809Y-64513319D02*
X149051047Y-64560938D01*
X149051047Y-64560938D02*
X149098666Y-64608557D01*
X149098666Y-64608557D02*
X149146285Y-64703795D01*
X149146285Y-64703795D02*
X149193904Y-64894271D01*
X149193904Y-64894271D02*
X149193904Y-65132366D01*
X149193904Y-65132366D02*
X149146285Y-65322842D01*
X149146285Y-65322842D02*
X149098666Y-65418080D01*
X149098666Y-65418080D02*
X149051047Y-65465700D01*
X149051047Y-65465700D02*
X148955809Y-65513319D01*
X148955809Y-65513319D02*
X148860571Y-65513319D01*
X148860571Y-65513319D02*
X148765333Y-65465700D01*
X148765333Y-65465700D02*
X148717714Y-65418080D01*
X148717714Y-65418080D02*
X148670095Y-65322842D01*
X148670095Y-65322842D02*
X148622476Y-65132366D01*
X148622476Y-65132366D02*
X148622476Y-64894271D01*
X148622476Y-64894271D02*
X148670095Y-64703795D01*
X148670095Y-64703795D02*
X148717714Y-64608557D01*
X148717714Y-64608557D02*
X148765333Y-64560938D01*
X148765333Y-64560938D02*
X148860571Y-64513319D01*
X202684142Y-57434819D02*
X202350809Y-56958628D01*
X202112714Y-57434819D02*
X202112714Y-56434819D01*
X202112714Y-56434819D02*
X202493666Y-56434819D01*
X202493666Y-56434819D02*
X202588904Y-56482438D01*
X202588904Y-56482438D02*
X202636523Y-56530057D01*
X202636523Y-56530057D02*
X202684142Y-56625295D01*
X202684142Y-56625295D02*
X202684142Y-56768152D01*
X202684142Y-56768152D02*
X202636523Y-56863390D01*
X202636523Y-56863390D02*
X202588904Y-56911009D01*
X202588904Y-56911009D02*
X202493666Y-56958628D01*
X202493666Y-56958628D02*
X202112714Y-56958628D01*
X203065095Y-56530057D02*
X203112714Y-56482438D01*
X203112714Y-56482438D02*
X203207952Y-56434819D01*
X203207952Y-56434819D02*
X203446047Y-56434819D01*
X203446047Y-56434819D02*
X203541285Y-56482438D01*
X203541285Y-56482438D02*
X203588904Y-56530057D01*
X203588904Y-56530057D02*
X203636523Y-56625295D01*
X203636523Y-56625295D02*
X203636523Y-56720533D01*
X203636523Y-56720533D02*
X203588904Y-56863390D01*
X203588904Y-56863390D02*
X203017476Y-57434819D01*
X203017476Y-57434819D02*
X203636523Y-57434819D01*
X204493666Y-56768152D02*
X204493666Y-57434819D01*
X204255571Y-56387200D02*
X204017476Y-57101485D01*
X204017476Y-57101485D02*
X204636523Y-57101485D01*
X146042142Y-121188819D02*
X145708809Y-120712628D01*
X145470714Y-121188819D02*
X145470714Y-120188819D01*
X145470714Y-120188819D02*
X145851666Y-120188819D01*
X145851666Y-120188819D02*
X145946904Y-120236438D01*
X145946904Y-120236438D02*
X145994523Y-120284057D01*
X145994523Y-120284057D02*
X146042142Y-120379295D01*
X146042142Y-120379295D02*
X146042142Y-120522152D01*
X146042142Y-120522152D02*
X145994523Y-120617390D01*
X145994523Y-120617390D02*
X145946904Y-120665009D01*
X145946904Y-120665009D02*
X145851666Y-120712628D01*
X145851666Y-120712628D02*
X145470714Y-120712628D01*
X146423095Y-120284057D02*
X146470714Y-120236438D01*
X146470714Y-120236438D02*
X146565952Y-120188819D01*
X146565952Y-120188819D02*
X146804047Y-120188819D01*
X146804047Y-120188819D02*
X146899285Y-120236438D01*
X146899285Y-120236438D02*
X146946904Y-120284057D01*
X146946904Y-120284057D02*
X146994523Y-120379295D01*
X146994523Y-120379295D02*
X146994523Y-120474533D01*
X146994523Y-120474533D02*
X146946904Y-120617390D01*
X146946904Y-120617390D02*
X146375476Y-121188819D01*
X146375476Y-121188819D02*
X146994523Y-121188819D01*
X147565952Y-120617390D02*
X147470714Y-120569771D01*
X147470714Y-120569771D02*
X147423095Y-120522152D01*
X147423095Y-120522152D02*
X147375476Y-120426914D01*
X147375476Y-120426914D02*
X147375476Y-120379295D01*
X147375476Y-120379295D02*
X147423095Y-120284057D01*
X147423095Y-120284057D02*
X147470714Y-120236438D01*
X147470714Y-120236438D02*
X147565952Y-120188819D01*
X147565952Y-120188819D02*
X147756428Y-120188819D01*
X147756428Y-120188819D02*
X147851666Y-120236438D01*
X147851666Y-120236438D02*
X147899285Y-120284057D01*
X147899285Y-120284057D02*
X147946904Y-120379295D01*
X147946904Y-120379295D02*
X147946904Y-120426914D01*
X147946904Y-120426914D02*
X147899285Y-120522152D01*
X147899285Y-120522152D02*
X147851666Y-120569771D01*
X147851666Y-120569771D02*
X147756428Y-120617390D01*
X147756428Y-120617390D02*
X147565952Y-120617390D01*
X147565952Y-120617390D02*
X147470714Y-120665009D01*
X147470714Y-120665009D02*
X147423095Y-120712628D01*
X147423095Y-120712628D02*
X147375476Y-120807866D01*
X147375476Y-120807866D02*
X147375476Y-120998342D01*
X147375476Y-120998342D02*
X147423095Y-121093580D01*
X147423095Y-121093580D02*
X147470714Y-121141200D01*
X147470714Y-121141200D02*
X147565952Y-121188819D01*
X147565952Y-121188819D02*
X147756428Y-121188819D01*
X147756428Y-121188819D02*
X147851666Y-121141200D01*
X147851666Y-121141200D02*
X147899285Y-121093580D01*
X147899285Y-121093580D02*
X147946904Y-120998342D01*
X147946904Y-120998342D02*
X147946904Y-120807866D01*
X147946904Y-120807866D02*
X147899285Y-120712628D01*
X147899285Y-120712628D02*
X147851666Y-120665009D01*
X147851666Y-120665009D02*
X147756428Y-120617390D01*
X161123333Y-124830819D02*
X160790000Y-124354628D01*
X160551905Y-124830819D02*
X160551905Y-123830819D01*
X160551905Y-123830819D02*
X160932857Y-123830819D01*
X160932857Y-123830819D02*
X161028095Y-123878438D01*
X161028095Y-123878438D02*
X161075714Y-123926057D01*
X161075714Y-123926057D02*
X161123333Y-124021295D01*
X161123333Y-124021295D02*
X161123333Y-124164152D01*
X161123333Y-124164152D02*
X161075714Y-124259390D01*
X161075714Y-124259390D02*
X161028095Y-124307009D01*
X161028095Y-124307009D02*
X160932857Y-124354628D01*
X160932857Y-124354628D02*
X160551905Y-124354628D01*
X161599524Y-124830819D02*
X161790000Y-124830819D01*
X161790000Y-124830819D02*
X161885238Y-124783200D01*
X161885238Y-124783200D02*
X161932857Y-124735580D01*
X161932857Y-124735580D02*
X162028095Y-124592723D01*
X162028095Y-124592723D02*
X162075714Y-124402247D01*
X162075714Y-124402247D02*
X162075714Y-124021295D01*
X162075714Y-124021295D02*
X162028095Y-123926057D01*
X162028095Y-123926057D02*
X161980476Y-123878438D01*
X161980476Y-123878438D02*
X161885238Y-123830819D01*
X161885238Y-123830819D02*
X161694762Y-123830819D01*
X161694762Y-123830819D02*
X161599524Y-123878438D01*
X161599524Y-123878438D02*
X161551905Y-123926057D01*
X161551905Y-123926057D02*
X161504286Y-124021295D01*
X161504286Y-124021295D02*
X161504286Y-124259390D01*
X161504286Y-124259390D02*
X161551905Y-124354628D01*
X161551905Y-124354628D02*
X161599524Y-124402247D01*
X161599524Y-124402247D02*
X161694762Y-124449866D01*
X161694762Y-124449866D02*
X161885238Y-124449866D01*
X161885238Y-124449866D02*
X161980476Y-124402247D01*
X161980476Y-124402247D02*
X162028095Y-124354628D01*
X162028095Y-124354628D02*
X162075714Y-124259390D01*
X132802333Y-111368819D02*
X132469000Y-110892628D01*
X132230905Y-111368819D02*
X132230905Y-110368819D01*
X132230905Y-110368819D02*
X132611857Y-110368819D01*
X132611857Y-110368819D02*
X132707095Y-110416438D01*
X132707095Y-110416438D02*
X132754714Y-110464057D01*
X132754714Y-110464057D02*
X132802333Y-110559295D01*
X132802333Y-110559295D02*
X132802333Y-110702152D01*
X132802333Y-110702152D02*
X132754714Y-110797390D01*
X132754714Y-110797390D02*
X132707095Y-110845009D01*
X132707095Y-110845009D02*
X132611857Y-110892628D01*
X132611857Y-110892628D02*
X132230905Y-110892628D01*
X133707095Y-110368819D02*
X133230905Y-110368819D01*
X133230905Y-110368819D02*
X133183286Y-110845009D01*
X133183286Y-110845009D02*
X133230905Y-110797390D01*
X133230905Y-110797390D02*
X133326143Y-110749771D01*
X133326143Y-110749771D02*
X133564238Y-110749771D01*
X133564238Y-110749771D02*
X133659476Y-110797390D01*
X133659476Y-110797390D02*
X133707095Y-110845009D01*
X133707095Y-110845009D02*
X133754714Y-110940247D01*
X133754714Y-110940247D02*
X133754714Y-111178342D01*
X133754714Y-111178342D02*
X133707095Y-111273580D01*
X133707095Y-111273580D02*
X133659476Y-111321200D01*
X133659476Y-111321200D02*
X133564238Y-111368819D01*
X133564238Y-111368819D02*
X133326143Y-111368819D01*
X133326143Y-111368819D02*
X133230905Y-111321200D01*
X133230905Y-111321200D02*
X133183286Y-111273580D01*
X147828095Y-106824819D02*
X147828095Y-107634342D01*
X147828095Y-107634342D02*
X147875714Y-107729580D01*
X147875714Y-107729580D02*
X147923333Y-107777200D01*
X147923333Y-107777200D02*
X148018571Y-107824819D01*
X148018571Y-107824819D02*
X148209047Y-107824819D01*
X148209047Y-107824819D02*
X148304285Y-107777200D01*
X148304285Y-107777200D02*
X148351904Y-107729580D01*
X148351904Y-107729580D02*
X148399523Y-107634342D01*
X148399523Y-107634342D02*
X148399523Y-106824819D01*
X149351904Y-106824819D02*
X148875714Y-106824819D01*
X148875714Y-106824819D02*
X148828095Y-107301009D01*
X148828095Y-107301009D02*
X148875714Y-107253390D01*
X148875714Y-107253390D02*
X148970952Y-107205771D01*
X148970952Y-107205771D02*
X149209047Y-107205771D01*
X149209047Y-107205771D02*
X149304285Y-107253390D01*
X149304285Y-107253390D02*
X149351904Y-107301009D01*
X149351904Y-107301009D02*
X149399523Y-107396247D01*
X149399523Y-107396247D02*
X149399523Y-107634342D01*
X149399523Y-107634342D02*
X149351904Y-107729580D01*
X149351904Y-107729580D02*
X149304285Y-107777200D01*
X149304285Y-107777200D02*
X149209047Y-107824819D01*
X149209047Y-107824819D02*
X148970952Y-107824819D01*
X148970952Y-107824819D02*
X148875714Y-107777200D01*
X148875714Y-107777200D02*
X148828095Y-107729580D01*
X167632142Y-99895819D02*
X167298809Y-99419628D01*
X167060714Y-99895819D02*
X167060714Y-98895819D01*
X167060714Y-98895819D02*
X167441666Y-98895819D01*
X167441666Y-98895819D02*
X167536904Y-98943438D01*
X167536904Y-98943438D02*
X167584523Y-98991057D01*
X167584523Y-98991057D02*
X167632142Y-99086295D01*
X167632142Y-99086295D02*
X167632142Y-99229152D01*
X167632142Y-99229152D02*
X167584523Y-99324390D01*
X167584523Y-99324390D02*
X167536904Y-99372009D01*
X167536904Y-99372009D02*
X167441666Y-99419628D01*
X167441666Y-99419628D02*
X167060714Y-99419628D01*
X168584523Y-99895819D02*
X168013095Y-99895819D01*
X168298809Y-99895819D02*
X168298809Y-98895819D01*
X168298809Y-98895819D02*
X168203571Y-99038676D01*
X168203571Y-99038676D02*
X168108333Y-99133914D01*
X168108333Y-99133914D02*
X168013095Y-99181533D01*
X169536904Y-99895819D02*
X168965476Y-99895819D01*
X169251190Y-99895819D02*
X169251190Y-98895819D01*
X169251190Y-98895819D02*
X169155952Y-99038676D01*
X169155952Y-99038676D02*
X169060714Y-99133914D01*
X169060714Y-99133914D02*
X168965476Y-99181533D01*
D12*
%TO.C,J1*%
X188233000Y-120855000D02*
X188233000Y-121605000D01*
X188233000Y-121605000D02*
X190033000Y-121605000D01*
X176633000Y-121605000D02*
X178433000Y-121605000D01*
X190943000Y-125155000D02*
X190943000Y-127955000D01*
X175723000Y-125155000D02*
X175723000Y-127955000D01*
X190943000Y-130655000D02*
X190943000Y-132755000D01*
X175723000Y-130655000D02*
X175723000Y-132755000D01*
%TO.C,Pot7*%
X130791000Y-34449000D02*
X130791000Y-38449000D01*
X131081000Y-33419000D02*
X131081000Y-39439000D01*
X131081000Y-39439000D02*
X138921000Y-39439000D01*
X131661000Y-33419000D02*
X131661000Y-34019000D01*
X131661000Y-34019000D02*
X133261000Y-34019000D01*
X132461000Y-38439000D02*
X132711000Y-37909000D01*
X132461000Y-38439000D02*
X137541000Y-38439000D01*
X132461000Y-39439000D02*
X132461000Y-38439000D01*
X132711000Y-37909000D02*
X137291000Y-37909000D01*
X132711000Y-39439000D02*
X132711000Y-38439000D01*
X133261000Y-34019000D02*
X133261000Y-33419000D01*
X134201000Y-33419000D02*
X134201000Y-34019000D01*
X134201000Y-34019000D02*
X135801000Y-34019000D01*
X135801000Y-34019000D02*
X135801000Y-33419000D01*
X136741000Y-33419000D02*
X136741000Y-34019000D01*
X136741000Y-34019000D02*
X138341000Y-34019000D01*
X137291000Y-37909000D02*
X137541000Y-38439000D01*
X137291000Y-39439000D02*
X137291000Y-38439000D01*
X137541000Y-38439000D02*
X137541000Y-39439000D01*
X138341000Y-34019000D02*
X138341000Y-33419000D01*
X138921000Y-33419000D02*
X131081000Y-33419000D01*
X138921000Y-39439000D02*
X138921000Y-33419000D01*
%TO.C,C9*%
X144633000Y-48936500D02*
X144633000Y-47540500D01*
X144633000Y-52182500D02*
X144633000Y-50786500D01*
X150873000Y-47540500D02*
X144633000Y-47540500D01*
X150873000Y-48936500D02*
X150873000Y-47540500D01*
X150873000Y-52182500D02*
X144633000Y-52182500D01*
X150873000Y-52182500D02*
X150873000Y-50786500D01*
%TO.C,R18*%
X144483000Y-55476500D02*
X144483000Y-55806500D01*
X144483000Y-58216500D02*
X144483000Y-57886500D01*
X151023000Y-55476500D02*
X144483000Y-55476500D01*
X151023000Y-55806500D02*
X151023000Y-55476500D01*
X151023000Y-57886500D02*
X151023000Y-58216500D01*
X151023000Y-58216500D02*
X144483000Y-58216500D01*
%TO.C,R6*%
X206148000Y-118142000D02*
X206148000Y-124682000D01*
X206148000Y-124682000D02*
X206478000Y-124682000D01*
X206478000Y-118142000D02*
X206148000Y-118142000D01*
X208558000Y-118142000D02*
X208888000Y-118142000D01*
X208888000Y-118142000D02*
X208888000Y-124682000D01*
X208888000Y-124682000D02*
X208558000Y-124682000D01*
%TO.C,R16*%
X205767000Y-103156000D02*
X205767000Y-109696000D01*
X205767000Y-109696000D02*
X206097000Y-109696000D01*
X206097000Y-103156000D02*
X205767000Y-103156000D01*
X208177000Y-103156000D02*
X208507000Y-103156000D01*
X208507000Y-103156000D02*
X208507000Y-109696000D01*
X208507000Y-109696000D02*
X208177000Y-109696000D01*
%TO.C,C7*%
X194417000Y-83379000D02*
X202077000Y-83379000D01*
X194417000Y-83419000D02*
X202077000Y-83419000D01*
X194417000Y-83459000D02*
X202077000Y-83459000D01*
X194418000Y-83339000D02*
X202076000Y-83339000D01*
X194420000Y-83299000D02*
X202074000Y-83299000D01*
X194422000Y-83259000D02*
X202072000Y-83259000D01*
X194424000Y-83219000D02*
X197207000Y-83219000D01*
X194427000Y-83179000D02*
X197207000Y-83179000D01*
X194430000Y-83139000D02*
X197207000Y-83139000D01*
X194433000Y-83099000D02*
X197207000Y-83099000D01*
X194437000Y-83059000D02*
X197207000Y-83059000D01*
X194442000Y-83019000D02*
X197207000Y-83019000D01*
X194446000Y-82979000D02*
X197207000Y-82979000D01*
X194452000Y-82939000D02*
X197207000Y-82939000D01*
X194457000Y-82899000D02*
X197207000Y-82899000D01*
X194463000Y-82859000D02*
X197207000Y-82859000D01*
X194470000Y-82819000D02*
X197207000Y-82819000D01*
X194477000Y-82779000D02*
X197207000Y-82779000D01*
X194484000Y-82738000D02*
X197207000Y-82738000D01*
X194492000Y-82698000D02*
X197207000Y-82698000D01*
X194500000Y-82658000D02*
X197207000Y-82658000D01*
X194509000Y-82618000D02*
X197207000Y-82618000D01*
X194518000Y-82578000D02*
X197207000Y-82578000D01*
X194527000Y-82538000D02*
X197207000Y-82538000D01*
X194537000Y-82498000D02*
X197207000Y-82498000D01*
X194548000Y-82458000D02*
X197207000Y-82458000D01*
X194559000Y-82418000D02*
X197207000Y-82418000D01*
X194570000Y-82378000D02*
X197207000Y-82378000D01*
X194582000Y-82338000D02*
X197207000Y-82338000D01*
X194594000Y-82298000D02*
X197207000Y-82298000D01*
X194607000Y-82258000D02*
X197207000Y-82258000D01*
X194621000Y-82218000D02*
X197207000Y-82218000D01*
X194634000Y-82178000D02*
X197207000Y-82178000D01*
X194649000Y-82138000D02*
X197207000Y-82138000D01*
X194663000Y-82098000D02*
X197207000Y-82098000D01*
X194679000Y-82058000D02*
X197207000Y-82058000D01*
X194694000Y-82018000D02*
X197207000Y-82018000D01*
X194711000Y-81978000D02*
X197207000Y-81978000D01*
X194727000Y-81938000D02*
X197207000Y-81938000D01*
X194745000Y-81898000D02*
X197207000Y-81898000D01*
X194763000Y-81858000D02*
X197207000Y-81858000D01*
X194781000Y-81818000D02*
X197207000Y-81818000D01*
X194800000Y-81778000D02*
X197207000Y-81778000D01*
X194820000Y-81738000D02*
X197207000Y-81738000D01*
X194840000Y-81698000D02*
X197207000Y-81698000D01*
X194861000Y-81658000D02*
X197207000Y-81658000D01*
X194882000Y-81618000D02*
X197207000Y-81618000D01*
X194904000Y-81578000D02*
X197207000Y-81578000D01*
X194926000Y-81538000D02*
X197207000Y-81538000D01*
X194950000Y-81498000D02*
X197207000Y-81498000D01*
X194973000Y-81458000D02*
X197207000Y-81458000D01*
X194998000Y-81418000D02*
X197207000Y-81418000D01*
X195023000Y-81378000D02*
X197207000Y-81378000D01*
X195049000Y-81338000D02*
X197207000Y-81338000D01*
X195075000Y-81298000D02*
X197207000Y-81298000D01*
X195103000Y-81258000D02*
X197207000Y-81258000D01*
X195131000Y-81218000D02*
X197207000Y-81218000D01*
X195159000Y-81178000D02*
X197207000Y-81178000D01*
X195189000Y-81138000D02*
X201305000Y-81138000D01*
X195219000Y-81098000D02*
X201275000Y-81098000D01*
X195251000Y-81058000D02*
X201243000Y-81058000D01*
X195283000Y-81018000D02*
X201211000Y-81018000D01*
X195316000Y-80978000D02*
X201178000Y-80978000D01*
X195349000Y-80938000D02*
X201145000Y-80938000D01*
X195384000Y-80898000D02*
X201110000Y-80898000D01*
X195420000Y-80858000D02*
X201074000Y-80858000D01*
X195457000Y-80818000D02*
X201037000Y-80818000D01*
X195495000Y-80778000D02*
X200999000Y-80778000D01*
X195534000Y-80738000D02*
X200960000Y-80738000D01*
X195574000Y-80698000D02*
X200920000Y-80698000D01*
X195615000Y-80658000D02*
X200879000Y-80658000D01*
X195658000Y-80618000D02*
X200836000Y-80618000D01*
X195697000Y-87226211D02*
X196447000Y-87226211D01*
X195701000Y-80578000D02*
X200793000Y-80578000D01*
X195747000Y-80538000D02*
X200747000Y-80538000D01*
X195793000Y-80498000D02*
X200701000Y-80498000D01*
X195842000Y-80458000D02*
X200652000Y-80458000D01*
X195892000Y-80418000D02*
X200602000Y-80418000D01*
X195943000Y-80378000D02*
X200551000Y-80378000D01*
X195997000Y-80338000D02*
X200497000Y-80338000D01*
X196052000Y-80298000D02*
X200442000Y-80298000D01*
X196072000Y-87601211D02*
X196072000Y-86851211D01*
X196110000Y-80258000D02*
X200384000Y-80258000D01*
X196170000Y-80218000D02*
X200324000Y-80218000D01*
X196233000Y-80178000D02*
X200261000Y-80178000D01*
X196298000Y-80138000D02*
X200196000Y-80138000D01*
X196366000Y-80098000D02*
X200128000Y-80098000D01*
X196438000Y-80058000D02*
X200056000Y-80058000D01*
X196514000Y-80018000D02*
X199980000Y-80018000D01*
X196593000Y-79978000D02*
X199901000Y-79978000D01*
X196678000Y-79938000D02*
X199816000Y-79938000D01*
X196769000Y-79898000D02*
X199725000Y-79898000D01*
X196866000Y-79858000D02*
X199628000Y-79858000D01*
X196972000Y-79818000D02*
X199522000Y-79818000D01*
X197089000Y-79778000D02*
X199405000Y-79778000D01*
X197219000Y-79738000D02*
X199275000Y-79738000D01*
X197370000Y-79698000D02*
X199124000Y-79698000D01*
X197554000Y-79658000D02*
X198940000Y-79658000D01*
X197806000Y-79618000D02*
X198688000Y-79618000D01*
X199287000Y-81178000D02*
X201335000Y-81178000D01*
X199287000Y-81218000D02*
X201363000Y-81218000D01*
X199287000Y-81258000D02*
X201391000Y-81258000D01*
X199287000Y-81298000D02*
X201419000Y-81298000D01*
X199287000Y-81338000D02*
X201445000Y-81338000D01*
X199287000Y-81378000D02*
X201471000Y-81378000D01*
X199287000Y-81418000D02*
X201496000Y-81418000D01*
X199287000Y-81458000D02*
X201521000Y-81458000D01*
X199287000Y-81498000D02*
X201544000Y-81498000D01*
X199287000Y-81538000D02*
X201568000Y-81538000D01*
X199287000Y-81578000D02*
X201590000Y-81578000D01*
X199287000Y-81618000D02*
X201612000Y-81618000D01*
X199287000Y-81658000D02*
X201633000Y-81658000D01*
X199287000Y-81698000D02*
X201654000Y-81698000D01*
X199287000Y-81738000D02*
X201674000Y-81738000D01*
X199287000Y-81778000D02*
X201694000Y-81778000D01*
X199287000Y-81818000D02*
X201713000Y-81818000D01*
X199287000Y-81858000D02*
X201731000Y-81858000D01*
X199287000Y-81898000D02*
X201749000Y-81898000D01*
X199287000Y-81938000D02*
X201767000Y-81938000D01*
X199287000Y-81978000D02*
X201783000Y-81978000D01*
X199287000Y-82018000D02*
X201800000Y-82018000D01*
X199287000Y-82058000D02*
X201815000Y-82058000D01*
X199287000Y-82098000D02*
X201831000Y-82098000D01*
X199287000Y-82138000D02*
X201845000Y-82138000D01*
X199287000Y-82178000D02*
X201860000Y-82178000D01*
X199287000Y-82218000D02*
X201873000Y-82218000D01*
X199287000Y-82258000D02*
X201887000Y-82258000D01*
X199287000Y-82298000D02*
X201900000Y-82298000D01*
X199287000Y-82338000D02*
X201912000Y-82338000D01*
X199287000Y-82378000D02*
X201924000Y-82378000D01*
X199287000Y-82418000D02*
X201935000Y-82418000D01*
X199287000Y-82458000D02*
X201946000Y-82458000D01*
X199287000Y-82498000D02*
X201957000Y-82498000D01*
X199287000Y-82538000D02*
X201967000Y-82538000D01*
X199287000Y-82578000D02*
X201976000Y-82578000D01*
X199287000Y-82618000D02*
X201985000Y-82618000D01*
X199287000Y-82658000D02*
X201994000Y-82658000D01*
X199287000Y-82698000D02*
X202002000Y-82698000D01*
X199287000Y-82738000D02*
X202010000Y-82738000D01*
X199287000Y-82779000D02*
X202017000Y-82779000D01*
X199287000Y-82819000D02*
X202024000Y-82819000D01*
X199287000Y-82859000D02*
X202031000Y-82859000D01*
X199287000Y-82899000D02*
X202037000Y-82899000D01*
X199287000Y-82939000D02*
X202042000Y-82939000D01*
X199287000Y-82979000D02*
X202048000Y-82979000D01*
X199287000Y-83019000D02*
X202052000Y-83019000D01*
X199287000Y-83059000D02*
X202057000Y-83059000D01*
X199287000Y-83099000D02*
X202061000Y-83099000D01*
X199287000Y-83139000D02*
X202064000Y-83139000D01*
X199287000Y-83179000D02*
X202067000Y-83179000D01*
X199287000Y-83219000D02*
X202070000Y-83219000D01*
X202117000Y-83459000D02*
G75*
G02*
X194377000Y-83459000I-3870000J0D01*
G01*
X194377000Y-83459000D02*
G75*
G02*
X202117000Y-83459000I3870000J0D01*
G01*
%TO.C,R32*%
X157512000Y-115216000D02*
X164052000Y-115216000D01*
X157512000Y-115546000D02*
X157512000Y-115216000D01*
X157512000Y-117626000D02*
X157512000Y-117956000D01*
X157512000Y-117956000D02*
X164052000Y-117956000D01*
X164052000Y-115216000D02*
X164052000Y-115546000D01*
X164052000Y-117956000D02*
X164052000Y-117626000D01*
%TO.C,U6*%
X177897000Y-46452000D02*
X177897000Y-47402000D01*
X177897000Y-56672000D02*
X177897000Y-55722000D01*
X178847000Y-46452000D02*
X177897000Y-46452000D01*
X178847000Y-56672000D02*
X177897000Y-56672000D01*
X187167000Y-46452000D02*
X188117000Y-46452000D01*
X187167000Y-56672000D02*
X188117000Y-56672000D01*
X188117000Y-46452000D02*
X188117000Y-47402000D01*
X188117000Y-56672000D02*
X188117000Y-55722000D01*
X189072000Y-56192000D02*
X188392000Y-56192000D01*
X188732000Y-55722000D01*
X189072000Y-56192000D01*
G36*
X189072000Y-56192000D02*
G01*
X188392000Y-56192000D01*
X188732000Y-55722000D01*
X189072000Y-56192000D01*
G37*
%TO.C,U2*%
X176126500Y-64268000D02*
X176826500Y-64268000D01*
X176126500Y-64968000D02*
X176126500Y-64268000D01*
X176126500Y-77788000D02*
X176126500Y-78488000D01*
X176126500Y-78488000D02*
X176826500Y-78488000D01*
X190346500Y-64268000D02*
X189646500Y-64268000D01*
X190346500Y-64968000D02*
X190346500Y-64268000D01*
X190346500Y-77788000D02*
X190346500Y-78488000D01*
X190346500Y-78488000D02*
X189646500Y-78488000D01*
X190116500Y-64018000D02*
X189646500Y-63678000D01*
X190116500Y-63338000D01*
X190116500Y-64018000D01*
G36*
X190116500Y-64018000D02*
G01*
X189646500Y-63678000D01*
X190116500Y-63338000D01*
X190116500Y-64018000D01*
G37*
%TO.C,R35*%
X199930000Y-72699000D02*
X206470000Y-72699000D01*
X199930000Y-73029000D02*
X199930000Y-72699000D01*
X199930000Y-75109000D02*
X199930000Y-75439000D01*
X199930000Y-75439000D02*
X206470000Y-75439000D01*
X206470000Y-72699000D02*
X206470000Y-73029000D01*
X206470000Y-75439000D02*
X206470000Y-75109000D01*
%TO.C,R15*%
X156929000Y-71605500D02*
X163469000Y-71605500D01*
X156929000Y-71935500D02*
X156929000Y-71605500D01*
X156929000Y-74015500D02*
X156929000Y-74345500D01*
X156929000Y-74345500D02*
X163469000Y-74345500D01*
X163469000Y-71605500D02*
X163469000Y-71935500D01*
X163469000Y-74345500D02*
X163469000Y-74015500D01*
%TO.C,C6*%
X194417000Y-93626000D02*
X202077000Y-93626000D01*
X194417000Y-93666000D02*
X202077000Y-93666000D01*
X194417000Y-93706000D02*
X202077000Y-93706000D01*
X194418000Y-93586000D02*
X202076000Y-93586000D01*
X194420000Y-93546000D02*
X202074000Y-93546000D01*
X194422000Y-93506000D02*
X202072000Y-93506000D01*
X194424000Y-93466000D02*
X197207000Y-93466000D01*
X194427000Y-93426000D02*
X197207000Y-93426000D01*
X194430000Y-93386000D02*
X197207000Y-93386000D01*
X194433000Y-93346000D02*
X197207000Y-93346000D01*
X194437000Y-93306000D02*
X197207000Y-93306000D01*
X194442000Y-93266000D02*
X197207000Y-93266000D01*
X194446000Y-93226000D02*
X197207000Y-93226000D01*
X194452000Y-93186000D02*
X197207000Y-93186000D01*
X194457000Y-93146000D02*
X197207000Y-93146000D01*
X194463000Y-93106000D02*
X197207000Y-93106000D01*
X194470000Y-93066000D02*
X197207000Y-93066000D01*
X194477000Y-93026000D02*
X197207000Y-93026000D01*
X194484000Y-92985000D02*
X197207000Y-92985000D01*
X194492000Y-92945000D02*
X197207000Y-92945000D01*
X194500000Y-92905000D02*
X197207000Y-92905000D01*
X194509000Y-92865000D02*
X197207000Y-92865000D01*
X194518000Y-92825000D02*
X197207000Y-92825000D01*
X194527000Y-92785000D02*
X197207000Y-92785000D01*
X194537000Y-92745000D02*
X197207000Y-92745000D01*
X194548000Y-92705000D02*
X197207000Y-92705000D01*
X194559000Y-92665000D02*
X197207000Y-92665000D01*
X194570000Y-92625000D02*
X197207000Y-92625000D01*
X194582000Y-92585000D02*
X197207000Y-92585000D01*
X194594000Y-92545000D02*
X197207000Y-92545000D01*
X194607000Y-92505000D02*
X197207000Y-92505000D01*
X194621000Y-92465000D02*
X197207000Y-92465000D01*
X194634000Y-92425000D02*
X197207000Y-92425000D01*
X194649000Y-92385000D02*
X197207000Y-92385000D01*
X194663000Y-92345000D02*
X197207000Y-92345000D01*
X194679000Y-92305000D02*
X197207000Y-92305000D01*
X194694000Y-92265000D02*
X197207000Y-92265000D01*
X194711000Y-92225000D02*
X197207000Y-92225000D01*
X194727000Y-92185000D02*
X197207000Y-92185000D01*
X194745000Y-92145000D02*
X197207000Y-92145000D01*
X194763000Y-92105000D02*
X197207000Y-92105000D01*
X194781000Y-92065000D02*
X197207000Y-92065000D01*
X194800000Y-92025000D02*
X197207000Y-92025000D01*
X194820000Y-91985000D02*
X197207000Y-91985000D01*
X194840000Y-91945000D02*
X197207000Y-91945000D01*
X194861000Y-91905000D02*
X197207000Y-91905000D01*
X194882000Y-91865000D02*
X197207000Y-91865000D01*
X194904000Y-91825000D02*
X197207000Y-91825000D01*
X194926000Y-91785000D02*
X197207000Y-91785000D01*
X194950000Y-91745000D02*
X197207000Y-91745000D01*
X194973000Y-91705000D02*
X197207000Y-91705000D01*
X194998000Y-91665000D02*
X197207000Y-91665000D01*
X195023000Y-91625000D02*
X197207000Y-91625000D01*
X195049000Y-91585000D02*
X197207000Y-91585000D01*
X195075000Y-91545000D02*
X197207000Y-91545000D01*
X195103000Y-91505000D02*
X197207000Y-91505000D01*
X195131000Y-91465000D02*
X197207000Y-91465000D01*
X195159000Y-91425000D02*
X197207000Y-91425000D01*
X195189000Y-91385000D02*
X201305000Y-91385000D01*
X195219000Y-91345000D02*
X201275000Y-91345000D01*
X195251000Y-91305000D02*
X201243000Y-91305000D01*
X195283000Y-91265000D02*
X201211000Y-91265000D01*
X195316000Y-91225000D02*
X201178000Y-91225000D01*
X195349000Y-91185000D02*
X201145000Y-91185000D01*
X195384000Y-91145000D02*
X201110000Y-91145000D01*
X195420000Y-91105000D02*
X201074000Y-91105000D01*
X195457000Y-91065000D02*
X201037000Y-91065000D01*
X195495000Y-91025000D02*
X200999000Y-91025000D01*
X195534000Y-90985000D02*
X200960000Y-90985000D01*
X195574000Y-90945000D02*
X200920000Y-90945000D01*
X195615000Y-90905000D02*
X200879000Y-90905000D01*
X195658000Y-90865000D02*
X200836000Y-90865000D01*
X195697000Y-97473211D02*
X196447000Y-97473211D01*
X195701000Y-90825000D02*
X200793000Y-90825000D01*
X195747000Y-90785000D02*
X200747000Y-90785000D01*
X195793000Y-90745000D02*
X200701000Y-90745000D01*
X195842000Y-90705000D02*
X200652000Y-90705000D01*
X195892000Y-90665000D02*
X200602000Y-90665000D01*
X195943000Y-90625000D02*
X200551000Y-90625000D01*
X195997000Y-90585000D02*
X200497000Y-90585000D01*
X196052000Y-90545000D02*
X200442000Y-90545000D01*
X196072000Y-97848211D02*
X196072000Y-97098211D01*
X196110000Y-90505000D02*
X200384000Y-90505000D01*
X196170000Y-90465000D02*
X200324000Y-90465000D01*
X196233000Y-90425000D02*
X200261000Y-90425000D01*
X196298000Y-90385000D02*
X200196000Y-90385000D01*
X196366000Y-90345000D02*
X200128000Y-90345000D01*
X196438000Y-90305000D02*
X200056000Y-90305000D01*
X196514000Y-90265000D02*
X199980000Y-90265000D01*
X196593000Y-90225000D02*
X199901000Y-90225000D01*
X196678000Y-90185000D02*
X199816000Y-90185000D01*
X196769000Y-90145000D02*
X199725000Y-90145000D01*
X196866000Y-90105000D02*
X199628000Y-90105000D01*
X196972000Y-90065000D02*
X199522000Y-90065000D01*
X197089000Y-90025000D02*
X199405000Y-90025000D01*
X197219000Y-89985000D02*
X199275000Y-89985000D01*
X197370000Y-89945000D02*
X199124000Y-89945000D01*
X197554000Y-89905000D02*
X198940000Y-89905000D01*
X197806000Y-89865000D02*
X198688000Y-89865000D01*
X199287000Y-91425000D02*
X201335000Y-91425000D01*
X199287000Y-91465000D02*
X201363000Y-91465000D01*
X199287000Y-91505000D02*
X201391000Y-91505000D01*
X199287000Y-91545000D02*
X201419000Y-91545000D01*
X199287000Y-91585000D02*
X201445000Y-91585000D01*
X199287000Y-91625000D02*
X201471000Y-91625000D01*
X199287000Y-91665000D02*
X201496000Y-91665000D01*
X199287000Y-91705000D02*
X201521000Y-91705000D01*
X199287000Y-91745000D02*
X201544000Y-91745000D01*
X199287000Y-91785000D02*
X201568000Y-91785000D01*
X199287000Y-91825000D02*
X201590000Y-91825000D01*
X199287000Y-91865000D02*
X201612000Y-91865000D01*
X199287000Y-91905000D02*
X201633000Y-91905000D01*
X199287000Y-91945000D02*
X201654000Y-91945000D01*
X199287000Y-91985000D02*
X201674000Y-91985000D01*
X199287000Y-92025000D02*
X201694000Y-92025000D01*
X199287000Y-92065000D02*
X201713000Y-92065000D01*
X199287000Y-92105000D02*
X201731000Y-92105000D01*
X199287000Y-92145000D02*
X201749000Y-92145000D01*
X199287000Y-92185000D02*
X201767000Y-92185000D01*
X199287000Y-92225000D02*
X201783000Y-92225000D01*
X199287000Y-92265000D02*
X201800000Y-92265000D01*
X199287000Y-92305000D02*
X201815000Y-92305000D01*
X199287000Y-92345000D02*
X201831000Y-92345000D01*
X199287000Y-92385000D02*
X201845000Y-92385000D01*
X199287000Y-92425000D02*
X201860000Y-92425000D01*
X199287000Y-92465000D02*
X201873000Y-92465000D01*
X199287000Y-92505000D02*
X201887000Y-92505000D01*
X199287000Y-92545000D02*
X201900000Y-92545000D01*
X199287000Y-92585000D02*
X201912000Y-92585000D01*
X199287000Y-92625000D02*
X201924000Y-92625000D01*
X199287000Y-92665000D02*
X201935000Y-92665000D01*
X199287000Y-92705000D02*
X201946000Y-92705000D01*
X199287000Y-92745000D02*
X201957000Y-92745000D01*
X199287000Y-92785000D02*
X201967000Y-92785000D01*
X199287000Y-92825000D02*
X201976000Y-92825000D01*
X199287000Y-92865000D02*
X201985000Y-92865000D01*
X199287000Y-92905000D02*
X201994000Y-92905000D01*
X199287000Y-92945000D02*
X202002000Y-92945000D01*
X199287000Y-92985000D02*
X202010000Y-92985000D01*
X199287000Y-93026000D02*
X202017000Y-93026000D01*
X199287000Y-93066000D02*
X202024000Y-93066000D01*
X199287000Y-93106000D02*
X202031000Y-93106000D01*
X199287000Y-93146000D02*
X202037000Y-93146000D01*
X199287000Y-93186000D02*
X202042000Y-93186000D01*
X199287000Y-93226000D02*
X202048000Y-93226000D01*
X199287000Y-93266000D02*
X202052000Y-93266000D01*
X199287000Y-93306000D02*
X202057000Y-93306000D01*
X199287000Y-93346000D02*
X202061000Y-93346000D01*
X199287000Y-93386000D02*
X202064000Y-93386000D01*
X199287000Y-93426000D02*
X202067000Y-93426000D01*
X199287000Y-93466000D02*
X202070000Y-93466000D01*
X202117000Y-93706000D02*
G75*
G02*
X194377000Y-93706000I-3870000J0D01*
G01*
X194377000Y-93706000D02*
G75*
G02*
X202117000Y-93706000I3870000J0D01*
G01*
%TO.C,Pot5*%
X149333000Y-34322000D02*
X149333000Y-38322000D01*
X149623000Y-33292000D02*
X149623000Y-39312000D01*
X149623000Y-39312000D02*
X157463000Y-39312000D01*
X150203000Y-33292000D02*
X150203000Y-33892000D01*
X150203000Y-33892000D02*
X151803000Y-33892000D01*
X151003000Y-38312000D02*
X151253000Y-37782000D01*
X151003000Y-38312000D02*
X156083000Y-38312000D01*
X151003000Y-39312000D02*
X151003000Y-38312000D01*
X151253000Y-37782000D02*
X155833000Y-37782000D01*
X151253000Y-39312000D02*
X151253000Y-38312000D01*
X151803000Y-33892000D02*
X151803000Y-33292000D01*
X152743000Y-33292000D02*
X152743000Y-33892000D01*
X152743000Y-33892000D02*
X154343000Y-33892000D01*
X154343000Y-33892000D02*
X154343000Y-33292000D01*
X155283000Y-33292000D02*
X155283000Y-33892000D01*
X155283000Y-33892000D02*
X156883000Y-33892000D01*
X155833000Y-37782000D02*
X156083000Y-38312000D01*
X155833000Y-39312000D02*
X155833000Y-38312000D01*
X156083000Y-38312000D02*
X156083000Y-39312000D01*
X156883000Y-33892000D02*
X156883000Y-33292000D01*
X157463000Y-33292000D02*
X149623000Y-33292000D01*
X157463000Y-39312000D02*
X157463000Y-33292000D01*
%TO.C,C4*%
X194163000Y-104235606D02*
X201823000Y-104235606D01*
X194163000Y-104275606D02*
X201823000Y-104275606D01*
X194163000Y-104315606D02*
X201823000Y-104315606D01*
X194164000Y-104195606D02*
X201822000Y-104195606D01*
X194166000Y-104155606D02*
X201820000Y-104155606D01*
X194168000Y-104115606D02*
X201818000Y-104115606D01*
X194170000Y-104075606D02*
X196953000Y-104075606D01*
X194173000Y-104035606D02*
X196953000Y-104035606D01*
X194176000Y-103995606D02*
X196953000Y-103995606D01*
X194179000Y-103955606D02*
X196953000Y-103955606D01*
X194183000Y-103915606D02*
X196953000Y-103915606D01*
X194188000Y-103875606D02*
X196953000Y-103875606D01*
X194192000Y-103835606D02*
X196953000Y-103835606D01*
X194198000Y-103795606D02*
X196953000Y-103795606D01*
X194203000Y-103755606D02*
X196953000Y-103755606D01*
X194209000Y-103715606D02*
X196953000Y-103715606D01*
X194216000Y-103675606D02*
X196953000Y-103675606D01*
X194223000Y-103635606D02*
X196953000Y-103635606D01*
X194230000Y-103594606D02*
X196953000Y-103594606D01*
X194238000Y-103554606D02*
X196953000Y-103554606D01*
X194246000Y-103514606D02*
X196953000Y-103514606D01*
X194255000Y-103474606D02*
X196953000Y-103474606D01*
X194264000Y-103434606D02*
X196953000Y-103434606D01*
X194273000Y-103394606D02*
X196953000Y-103394606D01*
X194283000Y-103354606D02*
X196953000Y-103354606D01*
X194294000Y-103314606D02*
X196953000Y-103314606D01*
X194305000Y-103274606D02*
X196953000Y-103274606D01*
X194316000Y-103234606D02*
X196953000Y-103234606D01*
X194328000Y-103194606D02*
X196953000Y-103194606D01*
X194340000Y-103154606D02*
X196953000Y-103154606D01*
X194353000Y-103114606D02*
X196953000Y-103114606D01*
X194367000Y-103074606D02*
X196953000Y-103074606D01*
X194380000Y-103034606D02*
X196953000Y-103034606D01*
X194395000Y-102994606D02*
X196953000Y-102994606D01*
X194409000Y-102954606D02*
X196953000Y-102954606D01*
X194425000Y-102914606D02*
X196953000Y-102914606D01*
X194440000Y-102874606D02*
X196953000Y-102874606D01*
X194457000Y-102834606D02*
X196953000Y-102834606D01*
X194473000Y-102794606D02*
X196953000Y-102794606D01*
X194491000Y-102754606D02*
X196953000Y-102754606D01*
X194509000Y-102714606D02*
X196953000Y-102714606D01*
X194527000Y-102674606D02*
X196953000Y-102674606D01*
X194546000Y-102634606D02*
X196953000Y-102634606D01*
X194566000Y-102594606D02*
X196953000Y-102594606D01*
X194586000Y-102554606D02*
X196953000Y-102554606D01*
X194607000Y-102514606D02*
X196953000Y-102514606D01*
X194628000Y-102474606D02*
X196953000Y-102474606D01*
X194650000Y-102434606D02*
X196953000Y-102434606D01*
X194672000Y-102394606D02*
X196953000Y-102394606D01*
X194696000Y-102354606D02*
X196953000Y-102354606D01*
X194719000Y-102314606D02*
X196953000Y-102314606D01*
X194744000Y-102274606D02*
X196953000Y-102274606D01*
X194769000Y-102234606D02*
X196953000Y-102234606D01*
X194795000Y-102194606D02*
X196953000Y-102194606D01*
X194821000Y-102154606D02*
X196953000Y-102154606D01*
X194849000Y-102114606D02*
X196953000Y-102114606D01*
X194877000Y-102074606D02*
X196953000Y-102074606D01*
X194905000Y-102034606D02*
X196953000Y-102034606D01*
X194935000Y-101994606D02*
X201051000Y-101994606D01*
X194965000Y-101954606D02*
X201021000Y-101954606D01*
X194997000Y-101914606D02*
X200989000Y-101914606D01*
X195029000Y-101874606D02*
X200957000Y-101874606D01*
X195062000Y-101834606D02*
X200924000Y-101834606D01*
X195095000Y-101794606D02*
X200891000Y-101794606D01*
X195130000Y-101754606D02*
X200856000Y-101754606D01*
X195166000Y-101714606D02*
X200820000Y-101714606D01*
X195203000Y-101674606D02*
X200783000Y-101674606D01*
X195241000Y-101634606D02*
X200745000Y-101634606D01*
X195280000Y-101594606D02*
X200706000Y-101594606D01*
X195320000Y-101554606D02*
X200666000Y-101554606D01*
X195361000Y-101514606D02*
X200625000Y-101514606D01*
X195404000Y-101474606D02*
X200582000Y-101474606D01*
X195443000Y-108082817D02*
X196193000Y-108082817D01*
X195447000Y-101434606D02*
X200539000Y-101434606D01*
X195493000Y-101394606D02*
X200493000Y-101394606D01*
X195539000Y-101354606D02*
X200447000Y-101354606D01*
X195588000Y-101314606D02*
X200398000Y-101314606D01*
X195638000Y-101274606D02*
X200348000Y-101274606D01*
X195689000Y-101234606D02*
X200297000Y-101234606D01*
X195743000Y-101194606D02*
X200243000Y-101194606D01*
X195798000Y-101154606D02*
X200188000Y-101154606D01*
X195818000Y-108457817D02*
X195818000Y-107707817D01*
X195856000Y-101114606D02*
X200130000Y-101114606D01*
X195916000Y-101074606D02*
X200070000Y-101074606D01*
X195979000Y-101034606D02*
X200007000Y-101034606D01*
X196044000Y-100994606D02*
X199942000Y-100994606D01*
X196112000Y-100954606D02*
X199874000Y-100954606D01*
X196184000Y-100914606D02*
X199802000Y-100914606D01*
X196260000Y-100874606D02*
X199726000Y-100874606D01*
X196339000Y-100834606D02*
X199647000Y-100834606D01*
X196424000Y-100794606D02*
X199562000Y-100794606D01*
X196515000Y-100754606D02*
X199471000Y-100754606D01*
X196612000Y-100714606D02*
X199374000Y-100714606D01*
X196718000Y-100674606D02*
X199268000Y-100674606D01*
X196835000Y-100634606D02*
X199151000Y-100634606D01*
X196965000Y-100594606D02*
X199021000Y-100594606D01*
X197116000Y-100554606D02*
X198870000Y-100554606D01*
X197300000Y-100514606D02*
X198686000Y-100514606D01*
X197552000Y-100474606D02*
X198434000Y-100474606D01*
X199033000Y-102034606D02*
X201081000Y-102034606D01*
X199033000Y-102074606D02*
X201109000Y-102074606D01*
X199033000Y-102114606D02*
X201137000Y-102114606D01*
X199033000Y-102154606D02*
X201165000Y-102154606D01*
X199033000Y-102194606D02*
X201191000Y-102194606D01*
X199033000Y-102234606D02*
X201217000Y-102234606D01*
X199033000Y-102274606D02*
X201242000Y-102274606D01*
X199033000Y-102314606D02*
X201267000Y-102314606D01*
X199033000Y-102354606D02*
X201290000Y-102354606D01*
X199033000Y-102394606D02*
X201314000Y-102394606D01*
X199033000Y-102434606D02*
X201336000Y-102434606D01*
X199033000Y-102474606D02*
X201358000Y-102474606D01*
X199033000Y-102514606D02*
X201379000Y-102514606D01*
X199033000Y-102554606D02*
X201400000Y-102554606D01*
X199033000Y-102594606D02*
X201420000Y-102594606D01*
X199033000Y-102634606D02*
X201440000Y-102634606D01*
X199033000Y-102674606D02*
X201459000Y-102674606D01*
X199033000Y-102714606D02*
X201477000Y-102714606D01*
X199033000Y-102754606D02*
X201495000Y-102754606D01*
X199033000Y-102794606D02*
X201513000Y-102794606D01*
X199033000Y-102834606D02*
X201529000Y-102834606D01*
X199033000Y-102874606D02*
X201546000Y-102874606D01*
X199033000Y-102914606D02*
X201561000Y-102914606D01*
X199033000Y-102954606D02*
X201577000Y-102954606D01*
X199033000Y-102994606D02*
X201591000Y-102994606D01*
X199033000Y-103034606D02*
X201606000Y-103034606D01*
X199033000Y-103074606D02*
X201619000Y-103074606D01*
X199033000Y-103114606D02*
X201633000Y-103114606D01*
X199033000Y-103154606D02*
X201646000Y-103154606D01*
X199033000Y-103194606D02*
X201658000Y-103194606D01*
X199033000Y-103234606D02*
X201670000Y-103234606D01*
X199033000Y-103274606D02*
X201681000Y-103274606D01*
X199033000Y-103314606D02*
X201692000Y-103314606D01*
X199033000Y-103354606D02*
X201703000Y-103354606D01*
X199033000Y-103394606D02*
X201713000Y-103394606D01*
X199033000Y-103434606D02*
X201722000Y-103434606D01*
X199033000Y-103474606D02*
X201731000Y-103474606D01*
X199033000Y-103514606D02*
X201740000Y-103514606D01*
X199033000Y-103554606D02*
X201748000Y-103554606D01*
X199033000Y-103594606D02*
X201756000Y-103594606D01*
X199033000Y-103635606D02*
X201763000Y-103635606D01*
X199033000Y-103675606D02*
X201770000Y-103675606D01*
X199033000Y-103715606D02*
X201777000Y-103715606D01*
X199033000Y-103755606D02*
X201783000Y-103755606D01*
X199033000Y-103795606D02*
X201788000Y-103795606D01*
X199033000Y-103835606D02*
X201794000Y-103835606D01*
X199033000Y-103875606D02*
X201798000Y-103875606D01*
X199033000Y-103915606D02*
X201803000Y-103915606D01*
X199033000Y-103955606D02*
X201807000Y-103955606D01*
X199033000Y-103995606D02*
X201810000Y-103995606D01*
X199033000Y-104035606D02*
X201813000Y-104035606D01*
X199033000Y-104075606D02*
X201816000Y-104075606D01*
X201863000Y-104315606D02*
G75*
G02*
X194123000Y-104315606I-3870000J0D01*
G01*
X194123000Y-104315606D02*
G75*
G02*
X201863000Y-104315606I3870000J0D01*
G01*
%TO.C,R21*%
X157437000Y-55095500D02*
X163977000Y-55095500D01*
X157437000Y-55425500D02*
X157437000Y-55095500D01*
X157437000Y-57505500D02*
X157437000Y-57835500D01*
X157437000Y-57835500D02*
X163977000Y-57835500D01*
X163977000Y-55095500D02*
X163977000Y-55425500D01*
X163977000Y-57835500D02*
X163977000Y-57505500D01*
%TO.C,AudioJack1*%
X116730000Y-98737000D02*
X116730000Y-104757000D01*
X116730000Y-104757000D02*
X124570000Y-104757000D01*
X117310000Y-104157000D02*
X117310000Y-104757000D01*
X118110000Y-99737000D02*
X118110000Y-98737000D01*
X118360000Y-98737000D02*
X118360000Y-99737000D01*
X118360000Y-100267000D02*
X118110000Y-99737000D01*
X118910000Y-104157000D02*
X117310000Y-104157000D01*
X118910000Y-104757000D02*
X118910000Y-104157000D01*
X119850000Y-104157000D02*
X119850000Y-104757000D01*
X121450000Y-104157000D02*
X119850000Y-104157000D01*
X121450000Y-104757000D02*
X121450000Y-104157000D01*
X122390000Y-104157000D02*
X122390000Y-104757000D01*
X122940000Y-98737000D02*
X122940000Y-99737000D01*
X122940000Y-100267000D02*
X118360000Y-100267000D01*
X123190000Y-98737000D02*
X123190000Y-99737000D01*
X123190000Y-99737000D02*
X118110000Y-99737000D01*
X123190000Y-99737000D02*
X122940000Y-100267000D01*
X123990000Y-104157000D02*
X122390000Y-104157000D01*
X123990000Y-104757000D02*
X123990000Y-104157000D01*
X124570000Y-98737000D02*
X116730000Y-98737000D01*
X124570000Y-104757000D02*
X124570000Y-98737000D01*
X124860000Y-103727000D02*
X124860000Y-99727000D01*
%TO.C,R19*%
X157310000Y-49507500D02*
X163850000Y-49507500D01*
X157310000Y-49837500D02*
X157310000Y-49507500D01*
X157310000Y-51917500D02*
X157310000Y-52247500D01*
X157310000Y-52247500D02*
X163850000Y-52247500D01*
X163850000Y-49507500D02*
X163850000Y-49837500D01*
X163850000Y-52247500D02*
X163850000Y-51917500D01*
%TO.C,R31*%
X157512000Y-120296000D02*
X164052000Y-120296000D01*
X157512000Y-120626000D02*
X157512000Y-120296000D01*
X157512000Y-122706000D02*
X157512000Y-123036000D01*
X157512000Y-123036000D02*
X164052000Y-123036000D01*
X164052000Y-120296000D02*
X164052000Y-120626000D01*
X164052000Y-123036000D02*
X164052000Y-122706000D01*
%TO.C,Pot4*%
X158731000Y-34322000D02*
X158731000Y-38322000D01*
X159021000Y-33292000D02*
X159021000Y-39312000D01*
X159021000Y-39312000D02*
X166861000Y-39312000D01*
X159601000Y-33292000D02*
X159601000Y-33892000D01*
X159601000Y-33892000D02*
X161201000Y-33892000D01*
X160401000Y-38312000D02*
X160651000Y-37782000D01*
X160401000Y-38312000D02*
X165481000Y-38312000D01*
X160401000Y-39312000D02*
X160401000Y-38312000D01*
X160651000Y-37782000D02*
X165231000Y-37782000D01*
X160651000Y-39312000D02*
X160651000Y-38312000D01*
X161201000Y-33892000D02*
X161201000Y-33292000D01*
X162141000Y-33292000D02*
X162141000Y-33892000D01*
X162141000Y-33892000D02*
X163741000Y-33892000D01*
X163741000Y-33892000D02*
X163741000Y-33292000D01*
X164681000Y-33292000D02*
X164681000Y-33892000D01*
X164681000Y-33892000D02*
X166281000Y-33892000D01*
X165231000Y-37782000D02*
X165481000Y-38312000D01*
X165231000Y-39312000D02*
X165231000Y-38312000D01*
X165481000Y-38312000D02*
X165481000Y-39312000D01*
X166281000Y-33892000D02*
X166281000Y-33292000D01*
X166861000Y-33292000D02*
X159021000Y-33292000D01*
X166861000Y-39312000D02*
X166861000Y-33292000D01*
%TO.C,C8*%
X205070000Y-92130000D02*
X206466000Y-92130000D01*
X205070000Y-98370000D02*
X205070000Y-92130000D01*
X205070000Y-98370000D02*
X206466000Y-98370000D01*
X208316000Y-92130000D02*
X209712000Y-92130000D01*
X208316000Y-98370000D02*
X209712000Y-98370000D01*
X209712000Y-98370000D02*
X209712000Y-92130000D01*
%TO.C,R3*%
X130080000Y-104929000D02*
X136620000Y-104929000D01*
X130080000Y-105259000D02*
X130080000Y-104929000D01*
X130080000Y-107339000D02*
X130080000Y-107669000D01*
X130080000Y-107669000D02*
X136620000Y-107669000D01*
X136620000Y-104929000D02*
X136620000Y-105259000D01*
X136620000Y-107669000D02*
X136620000Y-107339000D01*
%TO.C,R33*%
X206216000Y-45058000D02*
X206216000Y-44728000D01*
X206216000Y-42318000D02*
X206216000Y-42648000D01*
X199676000Y-45058000D02*
X206216000Y-45058000D01*
X199676000Y-44728000D02*
X199676000Y-45058000D01*
X199676000Y-42648000D02*
X199676000Y-42318000D01*
X199676000Y-42318000D02*
X206216000Y-42318000D01*
%TO.C,C2*%
X194163000Y-115538606D02*
X201823000Y-115538606D01*
X194163000Y-115578606D02*
X201823000Y-115578606D01*
X194163000Y-115618606D02*
X201823000Y-115618606D01*
X194164000Y-115498606D02*
X201822000Y-115498606D01*
X194166000Y-115458606D02*
X201820000Y-115458606D01*
X194168000Y-115418606D02*
X201818000Y-115418606D01*
X194170000Y-115378606D02*
X196953000Y-115378606D01*
X194173000Y-115338606D02*
X196953000Y-115338606D01*
X194176000Y-115298606D02*
X196953000Y-115298606D01*
X194179000Y-115258606D02*
X196953000Y-115258606D01*
X194183000Y-115218606D02*
X196953000Y-115218606D01*
X194188000Y-115178606D02*
X196953000Y-115178606D01*
X194192000Y-115138606D02*
X196953000Y-115138606D01*
X194198000Y-115098606D02*
X196953000Y-115098606D01*
X194203000Y-115058606D02*
X196953000Y-115058606D01*
X194209000Y-115018606D02*
X196953000Y-115018606D01*
X194216000Y-114978606D02*
X196953000Y-114978606D01*
X194223000Y-114938606D02*
X196953000Y-114938606D01*
X194230000Y-114897606D02*
X196953000Y-114897606D01*
X194238000Y-114857606D02*
X196953000Y-114857606D01*
X194246000Y-114817606D02*
X196953000Y-114817606D01*
X194255000Y-114777606D02*
X196953000Y-114777606D01*
X194264000Y-114737606D02*
X196953000Y-114737606D01*
X194273000Y-114697606D02*
X196953000Y-114697606D01*
X194283000Y-114657606D02*
X196953000Y-114657606D01*
X194294000Y-114617606D02*
X196953000Y-114617606D01*
X194305000Y-114577606D02*
X196953000Y-114577606D01*
X194316000Y-114537606D02*
X196953000Y-114537606D01*
X194328000Y-114497606D02*
X196953000Y-114497606D01*
X194340000Y-114457606D02*
X196953000Y-114457606D01*
X194353000Y-114417606D02*
X196953000Y-114417606D01*
X194367000Y-114377606D02*
X196953000Y-114377606D01*
X194380000Y-114337606D02*
X196953000Y-114337606D01*
X194395000Y-114297606D02*
X196953000Y-114297606D01*
X194409000Y-114257606D02*
X196953000Y-114257606D01*
X194425000Y-114217606D02*
X196953000Y-114217606D01*
X194440000Y-114177606D02*
X196953000Y-114177606D01*
X194457000Y-114137606D02*
X196953000Y-114137606D01*
X194473000Y-114097606D02*
X196953000Y-114097606D01*
X194491000Y-114057606D02*
X196953000Y-114057606D01*
X194509000Y-114017606D02*
X196953000Y-114017606D01*
X194527000Y-113977606D02*
X196953000Y-113977606D01*
X194546000Y-113937606D02*
X196953000Y-113937606D01*
X194566000Y-113897606D02*
X196953000Y-113897606D01*
X194586000Y-113857606D02*
X196953000Y-113857606D01*
X194607000Y-113817606D02*
X196953000Y-113817606D01*
X194628000Y-113777606D02*
X196953000Y-113777606D01*
X194650000Y-113737606D02*
X196953000Y-113737606D01*
X194672000Y-113697606D02*
X196953000Y-113697606D01*
X194696000Y-113657606D02*
X196953000Y-113657606D01*
X194719000Y-113617606D02*
X196953000Y-113617606D01*
X194744000Y-113577606D02*
X196953000Y-113577606D01*
X194769000Y-113537606D02*
X196953000Y-113537606D01*
X194795000Y-113497606D02*
X196953000Y-113497606D01*
X194821000Y-113457606D02*
X196953000Y-113457606D01*
X194849000Y-113417606D02*
X196953000Y-113417606D01*
X194877000Y-113377606D02*
X196953000Y-113377606D01*
X194905000Y-113337606D02*
X196953000Y-113337606D01*
X194935000Y-113297606D02*
X201051000Y-113297606D01*
X194965000Y-113257606D02*
X201021000Y-113257606D01*
X194997000Y-113217606D02*
X200989000Y-113217606D01*
X195029000Y-113177606D02*
X200957000Y-113177606D01*
X195062000Y-113137606D02*
X200924000Y-113137606D01*
X195095000Y-113097606D02*
X200891000Y-113097606D01*
X195130000Y-113057606D02*
X200856000Y-113057606D01*
X195166000Y-113017606D02*
X200820000Y-113017606D01*
X195203000Y-112977606D02*
X200783000Y-112977606D01*
X195241000Y-112937606D02*
X200745000Y-112937606D01*
X195280000Y-112897606D02*
X200706000Y-112897606D01*
X195320000Y-112857606D02*
X200666000Y-112857606D01*
X195361000Y-112817606D02*
X200625000Y-112817606D01*
X195404000Y-112777606D02*
X200582000Y-112777606D01*
X195443000Y-119385817D02*
X196193000Y-119385817D01*
X195447000Y-112737606D02*
X200539000Y-112737606D01*
X195493000Y-112697606D02*
X200493000Y-112697606D01*
X195539000Y-112657606D02*
X200447000Y-112657606D01*
X195588000Y-112617606D02*
X200398000Y-112617606D01*
X195638000Y-112577606D02*
X200348000Y-112577606D01*
X195689000Y-112537606D02*
X200297000Y-112537606D01*
X195743000Y-112497606D02*
X200243000Y-112497606D01*
X195798000Y-112457606D02*
X200188000Y-112457606D01*
X195818000Y-119760817D02*
X195818000Y-119010817D01*
X195856000Y-112417606D02*
X200130000Y-112417606D01*
X195916000Y-112377606D02*
X200070000Y-112377606D01*
X195979000Y-112337606D02*
X200007000Y-112337606D01*
X196044000Y-112297606D02*
X199942000Y-112297606D01*
X196112000Y-112257606D02*
X199874000Y-112257606D01*
X196184000Y-112217606D02*
X199802000Y-112217606D01*
X196260000Y-112177606D02*
X199726000Y-112177606D01*
X196339000Y-112137606D02*
X199647000Y-112137606D01*
X196424000Y-112097606D02*
X199562000Y-112097606D01*
X196515000Y-112057606D02*
X199471000Y-112057606D01*
X196612000Y-112017606D02*
X199374000Y-112017606D01*
X196718000Y-111977606D02*
X199268000Y-111977606D01*
X196835000Y-111937606D02*
X199151000Y-111937606D01*
X196965000Y-111897606D02*
X199021000Y-111897606D01*
X197116000Y-111857606D02*
X198870000Y-111857606D01*
X197300000Y-111817606D02*
X198686000Y-111817606D01*
X197552000Y-111777606D02*
X198434000Y-111777606D01*
X199033000Y-113337606D02*
X201081000Y-113337606D01*
X199033000Y-113377606D02*
X201109000Y-113377606D01*
X199033000Y-113417606D02*
X201137000Y-113417606D01*
X199033000Y-113457606D02*
X201165000Y-113457606D01*
X199033000Y-113497606D02*
X201191000Y-113497606D01*
X199033000Y-113537606D02*
X201217000Y-113537606D01*
X199033000Y-113577606D02*
X201242000Y-113577606D01*
X199033000Y-113617606D02*
X201267000Y-113617606D01*
X199033000Y-113657606D02*
X201290000Y-113657606D01*
X199033000Y-113697606D02*
X201314000Y-113697606D01*
X199033000Y-113737606D02*
X201336000Y-113737606D01*
X199033000Y-113777606D02*
X201358000Y-113777606D01*
X199033000Y-113817606D02*
X201379000Y-113817606D01*
X199033000Y-113857606D02*
X201400000Y-113857606D01*
X199033000Y-113897606D02*
X201420000Y-113897606D01*
X199033000Y-113937606D02*
X201440000Y-113937606D01*
X199033000Y-113977606D02*
X201459000Y-113977606D01*
X199033000Y-114017606D02*
X201477000Y-114017606D01*
X199033000Y-114057606D02*
X201495000Y-114057606D01*
X199033000Y-114097606D02*
X201513000Y-114097606D01*
X199033000Y-114137606D02*
X201529000Y-114137606D01*
X199033000Y-114177606D02*
X201546000Y-114177606D01*
X199033000Y-114217606D02*
X201561000Y-114217606D01*
X199033000Y-114257606D02*
X201577000Y-114257606D01*
X199033000Y-114297606D02*
X201591000Y-114297606D01*
X199033000Y-114337606D02*
X201606000Y-114337606D01*
X199033000Y-114377606D02*
X201619000Y-114377606D01*
X199033000Y-114417606D02*
X201633000Y-114417606D01*
X199033000Y-114457606D02*
X201646000Y-114457606D01*
X199033000Y-114497606D02*
X201658000Y-114497606D01*
X199033000Y-114537606D02*
X201670000Y-114537606D01*
X199033000Y-114577606D02*
X201681000Y-114577606D01*
X199033000Y-114617606D02*
X201692000Y-114617606D01*
X199033000Y-114657606D02*
X201703000Y-114657606D01*
X199033000Y-114697606D02*
X201713000Y-114697606D01*
X199033000Y-114737606D02*
X201722000Y-114737606D01*
X199033000Y-114777606D02*
X201731000Y-114777606D01*
X199033000Y-114817606D02*
X201740000Y-114817606D01*
X199033000Y-114857606D02*
X201748000Y-114857606D01*
X199033000Y-114897606D02*
X201756000Y-114897606D01*
X199033000Y-114938606D02*
X201763000Y-114938606D01*
X199033000Y-114978606D02*
X201770000Y-114978606D01*
X199033000Y-115018606D02*
X201777000Y-115018606D01*
X199033000Y-115058606D02*
X201783000Y-115058606D01*
X199033000Y-115098606D02*
X201788000Y-115098606D01*
X199033000Y-115138606D02*
X201794000Y-115138606D01*
X199033000Y-115178606D02*
X201798000Y-115178606D01*
X199033000Y-115218606D02*
X201803000Y-115218606D01*
X199033000Y-115258606D02*
X201807000Y-115258606D01*
X199033000Y-115298606D02*
X201810000Y-115298606D01*
X199033000Y-115338606D02*
X201813000Y-115338606D01*
X199033000Y-115378606D02*
X201816000Y-115378606D01*
X201863000Y-115618606D02*
G75*
G02*
X194123000Y-115618606I-3870000J0D01*
G01*
X194123000Y-115618606D02*
G75*
G02*
X201863000Y-115618606I3870000J0D01*
G01*
%TO.C,R4*%
X143034000Y-111660000D02*
X143034000Y-111990000D01*
X143034000Y-114400000D02*
X143034000Y-114070000D01*
X149574000Y-111660000D02*
X143034000Y-111660000D01*
X149574000Y-111990000D02*
X149574000Y-111660000D01*
X149574000Y-114070000D02*
X149574000Y-114400000D01*
X149574000Y-114400000D02*
X143034000Y-114400000D01*
%TO.C,C5*%
X143654000Y-79126500D02*
X145050000Y-79126500D01*
X143654000Y-85366500D02*
X143654000Y-79126500D01*
X143654000Y-85366500D02*
X145050000Y-85366500D01*
X146900000Y-79126500D02*
X148296000Y-79126500D01*
X146900000Y-85366500D02*
X148296000Y-85366500D01*
X148296000Y-85366500D02*
X148296000Y-79126500D01*
D13*
%TO.C,KeyboardUSBPort1*%
X112255000Y-57139000D02*
X112255000Y-71639000D01*
X112255000Y-71639000D02*
X121005000Y-71639000D01*
X121005000Y-57139000D02*
X112255000Y-57139000D01*
X126355000Y-57139000D02*
X124205000Y-57139000D01*
X126355000Y-57139000D02*
X126355000Y-71639000D01*
X126355000Y-71639000D02*
X124205000Y-71639000D01*
D14*
X125365000Y-55879000D02*
G75*
G02*
X125165000Y-55879000I-100000J0D01*
G01*
X125165000Y-55879000D02*
G75*
G02*
X125365000Y-55879000I100000J0D01*
G01*
D12*
%TO.C,R1*%
X145372000Y-94338500D02*
X145372000Y-94668500D01*
X145372000Y-97078500D02*
X145372000Y-96748500D01*
X151912000Y-94338500D02*
X145372000Y-94338500D01*
X151912000Y-94668500D02*
X151912000Y-94338500D01*
X151912000Y-96748500D02*
X151912000Y-97078500D01*
X151912000Y-97078500D02*
X145372000Y-97078500D01*
%TO.C,R10*%
X157056000Y-65509500D02*
X163596000Y-65509500D01*
X157056000Y-65839500D02*
X157056000Y-65509500D01*
X157056000Y-67919500D02*
X157056000Y-68249500D01*
X157056000Y-68249500D02*
X163596000Y-68249500D01*
X163596000Y-65509500D02*
X163596000Y-65839500D01*
X163596000Y-68249500D02*
X163596000Y-67919500D01*
%TO.C,R25*%
X200057000Y-48160000D02*
X206597000Y-48160000D01*
X200057000Y-48490000D02*
X200057000Y-48160000D01*
X200057000Y-50570000D02*
X200057000Y-50900000D01*
X200057000Y-50900000D02*
X206597000Y-50900000D01*
X206597000Y-48160000D02*
X206597000Y-48490000D01*
X206597000Y-50900000D02*
X206597000Y-50570000D01*
%TO.C,C3*%
X151274000Y-79126500D02*
X152670000Y-79126500D01*
X151274000Y-85366500D02*
X151274000Y-79126500D01*
X151274000Y-85366500D02*
X152670000Y-85366500D01*
X154520000Y-79126500D02*
X155916000Y-79126500D01*
X154520000Y-85366500D02*
X155916000Y-85366500D01*
X155916000Y-85366500D02*
X155916000Y-79126500D01*
%TO.C,R30*%
X130080000Y-98579000D02*
X136620000Y-98579000D01*
X130080000Y-98909000D02*
X130080000Y-98579000D01*
X130080000Y-100989000D02*
X130080000Y-101319000D01*
X130080000Y-101319000D02*
X136620000Y-101319000D01*
X136620000Y-98579000D02*
X136620000Y-98909000D01*
X136620000Y-101319000D02*
X136620000Y-100989000D01*
%TO.C,C1*%
X158894000Y-79126500D02*
X160290000Y-79126500D01*
X158894000Y-85366500D02*
X158894000Y-79126500D01*
X158894000Y-85366500D02*
X160290000Y-85366500D01*
X162140000Y-79126500D02*
X163536000Y-79126500D01*
X162140000Y-85366500D02*
X163536000Y-85366500D01*
X163536000Y-85366500D02*
X163536000Y-79126500D01*
%TO.C,R14*%
X157512000Y-108485000D02*
X157512000Y-108815000D01*
X157512000Y-111225000D02*
X157512000Y-110895000D01*
X164052000Y-108485000D02*
X157512000Y-108485000D01*
X164052000Y-108815000D02*
X164052000Y-108485000D01*
X164052000Y-110895000D02*
X164052000Y-111225000D01*
X164052000Y-111225000D02*
X157512000Y-111225000D01*
%TO.C,Pot8*%
X116440000Y-89567000D02*
X116440000Y-93567000D01*
X116730000Y-88537000D02*
X116730000Y-94557000D01*
X116730000Y-94557000D02*
X124570000Y-94557000D01*
X117310000Y-88537000D02*
X117310000Y-89137000D01*
X117310000Y-89137000D02*
X118910000Y-89137000D01*
X118110000Y-93557000D02*
X118360000Y-93027000D01*
X118110000Y-93557000D02*
X123190000Y-93557000D01*
X118110000Y-94557000D02*
X118110000Y-93557000D01*
X118360000Y-93027000D02*
X122940000Y-93027000D01*
X118360000Y-94557000D02*
X118360000Y-93557000D01*
X118910000Y-89137000D02*
X118910000Y-88537000D01*
X119850000Y-88537000D02*
X119850000Y-89137000D01*
X119850000Y-89137000D02*
X121450000Y-89137000D01*
X121450000Y-89137000D02*
X121450000Y-88537000D01*
X122390000Y-88537000D02*
X122390000Y-89137000D01*
X122390000Y-89137000D02*
X123990000Y-89137000D01*
X122940000Y-93027000D02*
X123190000Y-93557000D01*
X122940000Y-94557000D02*
X122940000Y-93557000D01*
X123190000Y-93557000D02*
X123190000Y-94557000D01*
X123990000Y-89137000D02*
X123990000Y-88537000D01*
X124570000Y-88537000D02*
X116730000Y-88537000D01*
X124570000Y-94557000D02*
X124570000Y-88537000D01*
%TO.C,Pot2*%
X177019000Y-34302000D02*
X177019000Y-38302000D01*
X177309000Y-33272000D02*
X177309000Y-39292000D01*
X177309000Y-39292000D02*
X185149000Y-39292000D01*
X177889000Y-33272000D02*
X177889000Y-33872000D01*
X177889000Y-33872000D02*
X179489000Y-33872000D01*
X178689000Y-38292000D02*
X178939000Y-37762000D01*
X178689000Y-38292000D02*
X183769000Y-38292000D01*
X178689000Y-39292000D02*
X178689000Y-38292000D01*
X178939000Y-37762000D02*
X183519000Y-37762000D01*
X178939000Y-39292000D02*
X178939000Y-38292000D01*
X179489000Y-33872000D02*
X179489000Y-33272000D01*
X180429000Y-33272000D02*
X180429000Y-33872000D01*
X180429000Y-33872000D02*
X182029000Y-33872000D01*
X182029000Y-33872000D02*
X182029000Y-33272000D01*
X182969000Y-33272000D02*
X182969000Y-33872000D01*
X182969000Y-33872000D02*
X184569000Y-33872000D01*
X183519000Y-37762000D02*
X183769000Y-38292000D01*
X183519000Y-39292000D02*
X183519000Y-38292000D01*
X183769000Y-38292000D02*
X183769000Y-39292000D01*
X184569000Y-33872000D02*
X184569000Y-33272000D01*
X185149000Y-33272000D02*
X177309000Y-33272000D01*
X185149000Y-39292000D02*
X185149000Y-33272000D01*
%TO.C,Pot3*%
X167875000Y-34302000D02*
X167875000Y-38302000D01*
X168165000Y-33272000D02*
X168165000Y-39292000D01*
X168165000Y-39292000D02*
X176005000Y-39292000D01*
X168745000Y-33272000D02*
X168745000Y-33872000D01*
X168745000Y-33872000D02*
X170345000Y-33872000D01*
X169545000Y-38292000D02*
X169795000Y-37762000D01*
X169545000Y-38292000D02*
X174625000Y-38292000D01*
X169545000Y-39292000D02*
X169545000Y-38292000D01*
X169795000Y-37762000D02*
X174375000Y-37762000D01*
X169795000Y-39292000D02*
X169795000Y-38292000D01*
X170345000Y-33872000D02*
X170345000Y-33272000D01*
X171285000Y-33272000D02*
X171285000Y-33872000D01*
X171285000Y-33872000D02*
X172885000Y-33872000D01*
X172885000Y-33872000D02*
X172885000Y-33272000D01*
X173825000Y-33272000D02*
X173825000Y-33872000D01*
X173825000Y-33872000D02*
X175425000Y-33872000D01*
X174375000Y-37762000D02*
X174625000Y-38292000D01*
X174375000Y-39292000D02*
X174375000Y-38292000D01*
X174625000Y-38292000D02*
X174625000Y-39292000D01*
X175425000Y-33872000D02*
X175425000Y-33272000D01*
X176005000Y-33272000D02*
X168165000Y-33272000D01*
X176005000Y-39292000D02*
X176005000Y-33272000D01*
%TO.C,R13*%
X205767000Y-80931000D02*
X205767000Y-87471000D01*
X205767000Y-87471000D02*
X206097000Y-87471000D01*
X206097000Y-80931000D02*
X205767000Y-80931000D01*
X208177000Y-80931000D02*
X208507000Y-80931000D01*
X208507000Y-80931000D02*
X208507000Y-87471000D01*
X208507000Y-87471000D02*
X208177000Y-87471000D01*
D13*
%TO.C,ProgrammableUSBPort1*%
X112255000Y-40077500D02*
X112255000Y-54577500D01*
X112255000Y-54577500D02*
X121005000Y-54577500D01*
X121005000Y-40077500D02*
X112255000Y-40077500D01*
X126355000Y-40077500D02*
X124205000Y-40077500D01*
X126355000Y-40077500D02*
X126355000Y-54577500D01*
X126355000Y-54577500D02*
X124205000Y-54577500D01*
D14*
X125365000Y-38817500D02*
G75*
G02*
X125165000Y-38817500I-100000J0D01*
G01*
X125165000Y-38817500D02*
G75*
G02*
X125365000Y-38817500I100000J0D01*
G01*
D12*
%TO.C,R17*%
X117507000Y-111533000D02*
X124047000Y-111533000D01*
X117507000Y-111863000D02*
X117507000Y-111533000D01*
X117507000Y-113943000D02*
X117507000Y-114273000D01*
X117507000Y-114273000D02*
X124047000Y-114273000D01*
X124047000Y-111533000D02*
X124047000Y-111863000D01*
X124047000Y-114273000D02*
X124047000Y-113943000D01*
%TO.C,Pot1*%
X186163000Y-34302000D02*
X186163000Y-38302000D01*
X186453000Y-33272000D02*
X186453000Y-39292000D01*
X186453000Y-39292000D02*
X194293000Y-39292000D01*
X187033000Y-33272000D02*
X187033000Y-33872000D01*
X187033000Y-33872000D02*
X188633000Y-33872000D01*
X187833000Y-38292000D02*
X188083000Y-37762000D01*
X187833000Y-38292000D02*
X192913000Y-38292000D01*
X187833000Y-39292000D02*
X187833000Y-38292000D01*
X188083000Y-37762000D02*
X192663000Y-37762000D01*
X188083000Y-39292000D02*
X188083000Y-38292000D01*
X188633000Y-33872000D02*
X188633000Y-33272000D01*
X189573000Y-33272000D02*
X189573000Y-33872000D01*
X189573000Y-33872000D02*
X191173000Y-33872000D01*
X191173000Y-33872000D02*
X191173000Y-33272000D01*
X192113000Y-33272000D02*
X192113000Y-33872000D01*
X192113000Y-33872000D02*
X193713000Y-33872000D01*
X192663000Y-37762000D02*
X192913000Y-38292000D01*
X192663000Y-39292000D02*
X192663000Y-38292000D01*
X192913000Y-38292000D02*
X192913000Y-39292000D01*
X193713000Y-33872000D02*
X193713000Y-33272000D01*
X194293000Y-33272000D02*
X186453000Y-33272000D01*
X194293000Y-39292000D02*
X194293000Y-33272000D01*
%TO.C,R27*%
X117634000Y-116613000D02*
X124174000Y-116613000D01*
X117634000Y-116943000D02*
X117634000Y-116613000D01*
X117634000Y-119023000D02*
X117634000Y-119353000D01*
X117634000Y-119353000D02*
X124174000Y-119353000D01*
X124174000Y-116613000D02*
X124174000Y-116943000D01*
X124174000Y-119353000D02*
X124174000Y-119023000D01*
%TO.C,C12*%
X116895000Y-123155000D02*
X116895000Y-124551000D01*
X116895000Y-123155000D02*
X123135000Y-123155000D01*
X116895000Y-126401000D02*
X116895000Y-127797000D01*
X116895000Y-127797000D02*
X123135000Y-127797000D01*
X123135000Y-123155000D02*
X123135000Y-124551000D01*
X123135000Y-126401000D02*
X123135000Y-127797000D01*
%TO.C,Pot0*%
X195307000Y-34302000D02*
X195307000Y-38302000D01*
X195597000Y-33272000D02*
X195597000Y-39292000D01*
X195597000Y-39292000D02*
X203437000Y-39292000D01*
X196177000Y-33272000D02*
X196177000Y-33872000D01*
X196177000Y-33872000D02*
X197777000Y-33872000D01*
X196977000Y-38292000D02*
X197227000Y-37762000D01*
X196977000Y-38292000D02*
X202057000Y-38292000D01*
X196977000Y-39292000D02*
X196977000Y-38292000D01*
X197227000Y-37762000D02*
X201807000Y-37762000D01*
X197227000Y-39292000D02*
X197227000Y-38292000D01*
X197777000Y-33872000D02*
X197777000Y-33272000D01*
X198717000Y-33272000D02*
X198717000Y-33872000D01*
X198717000Y-33872000D02*
X200317000Y-33872000D01*
X200317000Y-33872000D02*
X200317000Y-33272000D01*
X201257000Y-33272000D02*
X201257000Y-33872000D01*
X201257000Y-33872000D02*
X202857000Y-33872000D01*
X201807000Y-37762000D02*
X202057000Y-38292000D01*
X201807000Y-39292000D02*
X201807000Y-38292000D01*
X202057000Y-38292000D02*
X202057000Y-39292000D01*
X202857000Y-33872000D02*
X202857000Y-33272000D01*
X203437000Y-33272000D02*
X195597000Y-33272000D01*
X203437000Y-39292000D02*
X203437000Y-33272000D01*
%TO.C,R8*%
X144558000Y-72113500D02*
X144558000Y-72443500D01*
X144558000Y-74853500D02*
X144558000Y-74523500D01*
X151098000Y-72113500D02*
X144558000Y-72113500D01*
X151098000Y-72443500D02*
X151098000Y-72113500D01*
X151098000Y-74523500D02*
X151098000Y-74853500D01*
X151098000Y-74853500D02*
X144558000Y-74853500D01*
%TO.C,R2*%
X145447000Y-88673000D02*
X145447000Y-89003000D01*
X145447000Y-91413000D02*
X145447000Y-91083000D01*
X151987000Y-88673000D02*
X145447000Y-88673000D01*
X151987000Y-89003000D02*
X151987000Y-88673000D01*
X151987000Y-91083000D02*
X151987000Y-91413000D01*
X151987000Y-91413000D02*
X145447000Y-91413000D01*
%TO.C,R29*%
X130207000Y-116867000D02*
X136747000Y-116867000D01*
X130207000Y-117197000D02*
X130207000Y-116867000D01*
X130207000Y-119277000D02*
X130207000Y-119607000D01*
X130207000Y-119607000D02*
X136747000Y-119607000D01*
X136747000Y-116867000D02*
X136747000Y-117197000D01*
X136747000Y-119607000D02*
X136747000Y-119277000D01*
%TO.C,Op-Amp*%
X127966000Y-77218000D02*
X127966000Y-95238000D01*
X127966000Y-95238000D02*
X138246000Y-95238000D01*
X130456000Y-77278000D02*
X130456000Y-95178000D01*
X130456000Y-95178000D02*
X135756000Y-95178000D01*
X132106000Y-77278000D02*
X130456000Y-77278000D01*
X135756000Y-77278000D02*
X134106000Y-77278000D01*
X135756000Y-95178000D02*
X135756000Y-77278000D01*
X138246000Y-77218000D02*
X127966000Y-77218000D01*
X138246000Y-95238000D02*
X138246000Y-77218000D01*
X134106000Y-77278000D02*
G75*
G02*
X132106000Y-77278000I-1000000J0D01*
G01*
%TO.C,R34*%
X199930000Y-59463000D02*
X199930000Y-59793000D01*
X199930000Y-62203000D02*
X199930000Y-61873000D01*
X206470000Y-59463000D02*
X199930000Y-59463000D01*
X206470000Y-59793000D02*
X206470000Y-59463000D01*
X206470000Y-61873000D02*
X206470000Y-62203000D01*
X206470000Y-62203000D02*
X199930000Y-62203000D01*
%TO.C,R23*%
X157056000Y-60048500D02*
X163596000Y-60048500D01*
X157056000Y-60378500D02*
X157056000Y-60048500D01*
X157056000Y-62458500D02*
X157056000Y-62788500D01*
X157056000Y-62788500D02*
X163596000Y-62788500D01*
X163596000Y-60048500D02*
X163596000Y-60378500D01*
X163596000Y-62788500D02*
X163596000Y-62458500D01*
%TO.C,R7*%
X143034000Y-123344000D02*
X143034000Y-123674000D01*
X143034000Y-126084000D02*
X143034000Y-125754000D01*
X149574000Y-123344000D02*
X143034000Y-123344000D01*
X149574000Y-123674000D02*
X149574000Y-123344000D01*
X149574000Y-125754000D02*
X149574000Y-126084000D01*
X149574000Y-126084000D02*
X143034000Y-126084000D01*
%TO.C,R26*%
X200184000Y-65587000D02*
X200184000Y-65917000D01*
X200184000Y-68327000D02*
X200184000Y-67997000D01*
X206724000Y-65587000D02*
X200184000Y-65587000D01*
X206724000Y-65917000D02*
X206724000Y-65587000D01*
X206724000Y-67997000D02*
X206724000Y-68327000D01*
X206724000Y-68327000D02*
X200184000Y-68327000D01*
%TO.C,R22*%
X144483000Y-66779500D02*
X144483000Y-67109500D01*
X144483000Y-69519500D02*
X144483000Y-69189500D01*
X151023000Y-66779500D02*
X144483000Y-66779500D01*
X151023000Y-67109500D02*
X151023000Y-66779500D01*
X151023000Y-69189500D02*
X151023000Y-69519500D01*
X151023000Y-69519500D02*
X144483000Y-69519500D01*
%TO.C,Pot6*%
X139935000Y-34429000D02*
X139935000Y-38429000D01*
X140225000Y-33399000D02*
X140225000Y-39419000D01*
X140225000Y-39419000D02*
X148065000Y-39419000D01*
X140805000Y-33399000D02*
X140805000Y-33999000D01*
X140805000Y-33999000D02*
X142405000Y-33999000D01*
X141605000Y-38419000D02*
X141855000Y-37889000D01*
X141605000Y-38419000D02*
X146685000Y-38419000D01*
X141605000Y-39419000D02*
X141605000Y-38419000D01*
X141855000Y-37889000D02*
X146435000Y-37889000D01*
X141855000Y-39419000D02*
X141855000Y-38419000D01*
X142405000Y-33999000D02*
X142405000Y-33399000D01*
X143345000Y-33399000D02*
X143345000Y-33999000D01*
X143345000Y-33999000D02*
X144945000Y-33999000D01*
X144945000Y-33999000D02*
X144945000Y-33399000D01*
X145885000Y-33399000D02*
X145885000Y-33999000D01*
X145885000Y-33999000D02*
X147485000Y-33999000D01*
X146435000Y-37889000D02*
X146685000Y-38419000D01*
X146435000Y-39419000D02*
X146435000Y-38419000D01*
X146685000Y-38419000D02*
X146685000Y-39419000D01*
X147485000Y-33999000D02*
X147485000Y-33399000D01*
X148065000Y-33399000D02*
X140225000Y-33399000D01*
X148065000Y-39419000D02*
X148065000Y-33399000D01*
%TO.C,C11*%
X128579000Y-124424000D02*
X128579000Y-123028000D01*
X128579000Y-127670000D02*
X128579000Y-126274000D01*
X134819000Y-123028000D02*
X128579000Y-123028000D01*
X134819000Y-124424000D02*
X134819000Y-123028000D01*
X134819000Y-127670000D02*
X128579000Y-127670000D01*
X134819000Y-127670000D02*
X134819000Y-126274000D01*
%TO.C,R12*%
X157968000Y-103621500D02*
X164508000Y-103621500D01*
X157968000Y-103951500D02*
X157968000Y-103621500D01*
X157968000Y-106031500D02*
X157968000Y-106361500D01*
X157968000Y-106361500D02*
X164508000Y-106361500D01*
X164508000Y-103621500D02*
X164508000Y-103951500D01*
X164508000Y-106361500D02*
X164508000Y-106031500D01*
%TO.C,U1*%
X159492000Y-89972500D02*
X163252000Y-89972500D01*
X159492000Y-96792500D02*
X163252000Y-96792500D01*
X163252000Y-89972500D02*
X163252000Y-91232500D01*
X163252000Y-96792500D02*
X163252000Y-95532500D01*
X158212000Y-90072500D02*
X157972000Y-89742500D01*
X158452000Y-89742500D01*
X158212000Y-90072500D01*
G36*
X158212000Y-90072500D02*
G01*
X157972000Y-89742500D01*
X158452000Y-89742500D01*
X158212000Y-90072500D01*
G37*
%TO.C,R20*%
X144662000Y-61318500D02*
X144662000Y-61648500D01*
X144662000Y-64058500D02*
X144662000Y-63728500D01*
X151202000Y-61318500D02*
X144662000Y-61318500D01*
X151202000Y-61648500D02*
X151202000Y-61318500D01*
X151202000Y-63728500D02*
X151202000Y-64058500D01*
X151202000Y-64058500D02*
X144662000Y-64058500D01*
%TO.C,R24*%
X200057000Y-53240000D02*
X200057000Y-53570000D01*
X200057000Y-55980000D02*
X200057000Y-55650000D01*
X206597000Y-53240000D02*
X200057000Y-53240000D01*
X206597000Y-53570000D02*
X206597000Y-53240000D01*
X206597000Y-55650000D02*
X206597000Y-55980000D01*
X206597000Y-55980000D02*
X200057000Y-55980000D01*
%TO.C,R28*%
X143415000Y-116994000D02*
X143415000Y-117324000D01*
X143415000Y-119734000D02*
X143415000Y-119404000D01*
X149955000Y-116994000D02*
X143415000Y-116994000D01*
X149955000Y-117324000D02*
X149955000Y-116994000D01*
X149955000Y-119404000D02*
X149955000Y-119734000D01*
X149955000Y-119734000D02*
X143415000Y-119734000D01*
%TO.C,R9*%
X158020000Y-125376000D02*
X164560000Y-125376000D01*
X158020000Y-125706000D02*
X158020000Y-125376000D01*
X158020000Y-127786000D02*
X158020000Y-128116000D01*
X158020000Y-128116000D02*
X164560000Y-128116000D01*
X164560000Y-125376000D02*
X164560000Y-125706000D01*
X164560000Y-128116000D02*
X164560000Y-127786000D01*
%TO.C,R5*%
X129699000Y-111914000D02*
X136239000Y-111914000D01*
X129699000Y-112244000D02*
X129699000Y-111914000D01*
X129699000Y-114324000D02*
X129699000Y-114654000D01*
X129699000Y-114654000D02*
X136239000Y-114654000D01*
X136239000Y-111914000D02*
X136239000Y-112244000D01*
X136239000Y-114654000D02*
X136239000Y-114324000D01*
%TO.C,U5*%
X146680000Y-99460000D02*
X146680000Y-100720000D01*
X146680000Y-106280000D02*
X146680000Y-105020000D01*
X150440000Y-99460000D02*
X146680000Y-99460000D01*
X150440000Y-106280000D02*
X146680000Y-106280000D01*
X151960000Y-106510000D02*
X151480000Y-106510000D01*
X151720000Y-106180000D01*
X151960000Y-106510000D01*
G36*
X151960000Y-106510000D02*
G01*
X151480000Y-106510000D01*
X151720000Y-106180000D01*
X151960000Y-106510000D01*
G37*
%TO.C,R11*%
X158095000Y-98033500D02*
X164635000Y-98033500D01*
X158095000Y-98363500D02*
X158095000Y-98033500D01*
X158095000Y-100443500D02*
X158095000Y-100773500D01*
X158095000Y-100773500D02*
X164635000Y-100773500D01*
X164635000Y-98033500D02*
X164635000Y-98363500D01*
X164635000Y-100773500D02*
X164635000Y-100443500D01*
%TD*%
M02*
