M48
; DRILL file {KiCad 8.0.4} date 2024-10-29T15:25:12-0500
; FORMAT={-:-/ absolute / inch / decimal}
; #@! TF.CreationDate,2024-10-29T15:25:12-05:00
; #@! TF.GenerationSoftware,Kicad,Pcbnew,8.0.4
; #@! TF.FileFunction,Plated,1,2,PTH
FMAT,2
INCH
; #@! TA.AperFunction,Plated,PTH,ViaDrill
T1C0.0118
; #@! TA.AperFunction,Plated,PTH,ComponentDrill
T2C0.0315
; #@! TA.AperFunction,Plated,PTH,ComponentDrill
T3C0.0354
; #@! TA.AperFunction,Plated,PTH,ComponentDrill
T4C0.0394
; #@! TA.AperFunction,Plated,PTH,ComponentDrill
T5C0.0469
%
G90
G05
T1
X5.3Y-2.265
X5.47Y-4.775
X5.575Y-4.07
X5.59Y-4.19
X6.67Y-3.415
X6.675Y-2.365
X6.675Y-4.61
X6.965Y-4.205
X6.97Y-3.63
X7.44Y-3.69
X7.65Y-1.97
T2
X4.605Y-4.445
X4.61Y-4.645
X4.6266Y-4.94
X4.8234Y-4.94
X4.905Y-4.445
X4.91Y-4.645
X5.085Y-4.46
X5.0866Y-4.935
X5.0904Y-3.0948
X5.0904Y-3.1948
X5.0904Y-3.2948
X5.0904Y-3.3948
X5.0904Y-3.4948
X5.0904Y-3.5948
X5.0904Y-3.6948
X5.1Y-3.935
X5.1Y-4.185
X5.105Y-4.655
X5.2834Y-4.935
X5.385Y-4.46
X5.3904Y-3.0948
X5.3904Y-3.1948
X5.3904Y-3.2948
X5.3904Y-3.3948
X5.3904Y-3.4948
X5.3904Y-3.5948
X5.3904Y-3.6948
X5.4Y-3.935
X5.4Y-4.185
X5.405Y-4.655
X5.61Y-4.45
X5.61Y-4.91
X5.625Y-4.66
X5.667Y-2.2381
X5.667Y-2.6831
X5.67Y-2.8931
X5.6741Y-2.4681
X5.702Y-3.7681
X5.705Y-3.545
X5.7186Y-1.9631
X5.747Y-3.1396
X5.747Y-3.3365
X5.91Y-4.45
X5.91Y-4.91
X5.9155Y-1.9631
X5.925Y-4.66
X5.967Y-2.2381
X5.967Y-2.6831
X5.97Y-2.8931
X5.9741Y-2.4681
X6.002Y-3.7681
X6.005Y-3.545
X6.047Y-3.1396
X6.047Y-3.3365
X6.157Y-2.8731
X6.162Y-2.4181
X6.162Y-2.6331
X6.172Y-2.0031
X6.177Y-2.2231
X6.18Y-4.325
X6.18Y-4.59
X6.18Y-4.79
X6.198Y-4.1335
X6.2Y-4.99
X6.203Y-3.9135
X6.347Y-3.1396
X6.347Y-3.3365
X6.457Y-2.8731
X6.462Y-2.4181
X6.462Y-2.6331
X6.472Y-2.0031
X6.477Y-2.2231
X6.48Y-4.325
X6.48Y-4.59
X6.48Y-4.79
X6.498Y-4.1335
X6.5Y-4.99
X6.503Y-3.9135
X7.795Y-4.0577
X7.795Y-4.1561
X7.795Y-4.5027
X7.795Y-4.6011
X7.805Y-3.2366
X7.805Y-3.335
X7.805Y-3.64
X7.805Y-3.7384
X7.84Y-1.72
X7.85Y-2.395
X7.85Y-2.9161
X7.855Y-1.95
X7.855Y-2.15
X7.86Y-2.6361
X8.14Y-1.72
X8.15Y-2.395
X8.15Y-2.9161
X8.155Y-1.95
X8.155Y-2.15
X8.155Y-3.165
X8.155Y-3.465
X8.155Y-4.04
X8.155Y-4.34
X8.16Y-2.6361
X8.165Y-3.6516
X8.165Y-3.8484
X8.17Y-4.63
X8.17Y-4.93
T4
X4.9317Y-1.7255
X4.9317Y-1.8239
X4.9317Y-1.9027
X4.9317Y-2.0011
X4.9317Y-2.3972
X4.9317Y-2.4956
X4.9317Y-2.5744
X4.9317Y-2.6728
T5
X4.65Y-3.605
X4.65Y-4.005
X4.75Y-3.605
X4.75Y-4.005
X4.85Y-3.605
X4.85Y-4.005
X5.215Y-1.435
X5.315Y-1.435
X5.415Y-1.435
X5.575Y-1.4342
X5.675Y-1.4342
X5.775Y-1.4342
X5.945Y-1.43
X6.045Y-1.43
X6.145Y-1.43
X6.315Y-1.43
X6.415Y-1.43
X6.515Y-1.43
X6.675Y-1.4292
X6.775Y-1.4292
X6.875Y-1.4292
X7.035Y-1.4292
X7.135Y-1.4292
X7.235Y-1.4292
X7.395Y-1.4292
X7.495Y-1.4292
X7.595Y-1.4292
X7.755Y-1.4292
X7.855Y-1.4292
X7.955Y-1.4292
T3
G00X6.9324Y-4.8195
M15
G01X6.9324Y-4.8904
M16
G05
G00X6.9324Y-5.0738
M15
G01X6.9324Y-5.1053
M16
G05
G00X7.5033Y-4.8195
M15
G01X7.5033Y-4.8904
M16
G05
G00X7.5033Y-5.0738
M15
G01X7.5033Y-5.1053
M16
G05
M30
